<?xml version="1.0" encoding="UTF-8" standalone="no"?>
<!-- Created with Inkscape (http://www.inkscape.org/) -->

<svg
   xmlns:dc="http://purl.org/dc/elements/1.1/"
   xmlns:cc="http://creativecommons.org/ns#"
   xmlns:rdf="http://www.w3.org/1999/02/22-rdf-syntax-ns#"
   xmlns:svg="http://www.w3.org/2000/svg"
   xmlns="http://www.w3.org/2000/svg"
   xmlns:sodipodi="http://sodipodi.sourceforge.net/DTD/sodipodi-0.dtd"
   xmlns:inkscape="http://www.inkscape.org/namespaces/inkscape"
   width="210mm"
   height="297mm"
   viewBox="0 0 210 297"
   version="1.1"
   id="svg1054"
   inkscape:version="0.92.3 (2405546, 2018-03-11)"
   sodipodi:docname="pta_tracing.svg">
  <defs
     id="defs1048">
    <filter
       inkscape:menu-tooltip="In and out glow with a possible offset and colorizable flood"
       inkscape:menu="Shadows and Glows"
       inkscape:label="Cutout Glow"
       style="color-interpolation-filters:sRGB;"
       id="filter1843">
      <feOffset
         dy="3"
         dx="3"
         id="feOffset1833" />
      <feGaussianBlur
         stdDeviation="3"
         result="blur"
         id="feGaussianBlur1835" />
      <feFlood
         flood-color="rgb(0,0,0)"
         flood-opacity="1"
         result="flood"
         id="feFlood1837" />
      <feComposite
         in="flood"
         in2="SourceGraphic"
         operator="in"
         result="composite"
         id="feComposite1839" />
      <feBlend
         in="blur"
         in2="composite"
         mode="normal"
         id="feBlend1841" />
    </filter>
  </defs>
  <sodipodi:namedview
     id="base"
     pagecolor="#ffffff"
     bordercolor="#666666"
     borderopacity="1.0"
     inkscape:pageopacity="0.0"
     inkscape:pageshadow="2"
     inkscape:zoom="0.49497475"
     inkscape:cx="1018.3968"
     inkscape:cy="1103.4922"
     inkscape:document-units="mm"
     inkscape:current-layer="layer1"
     showgrid="false"
     inkscape:window-width="1920"
     inkscape:window-height="1008"
     inkscape:window-x="0"
     inkscape:window-y="32"
     inkscape:window-maximized="1" />
  <metadata
     id="metadata1051">
    <rdf:RDF>
      <cc:Work
         rdf:about="">
        <dc:format>image/svg+xml</dc:format>
        <dc:type
           rdf:resource="http://purl.org/dc/dcmitype/StillImage" />
        <dc:title></dc:title>
      </cc:Work>
    </rdf:RDF>
  </metadata>
  <g
     inkscape:label="Layer 1"
     inkscape:groupmode="layer"
     id="layer1">
    <path
       style="opacity:1;vector-effect:none;fill:#ed1b24;fill-opacity:1;stroke:none;stroke-width:0.3714253;stroke-linecap:butt;stroke-linejoin:miter;stroke-miterlimit:4;stroke-dasharray:none;stroke-dashoffset:0;stroke-opacity:1"
       d="m 130.17166,62.824724 c -0.79407,-0.0032 -2.56213,0.184762 -4.00117,0.451978 -6.10887,1.134369 -11.73549,4.001793 -16.19035,8.250624 -0.55401,0.52839 -1.00741,0.9913 -1.00741,1.02865 0,0.0373 0.19855,0.12077 0.44123,0.18568 0.56676,0.15158 1.17249,0.7003 1.38388,1.25382 0.15688,0.41075 0.15474,0.59373 -0.014,1.26592 -0.0597,0.2379 0.10432,0.43202 1.83801,2.17874 1.04689,1.05475 1.98164,1.96164 2.07717,2.0151 0.12482,0.0699 0.23444,0.0545 0.39018,-0.0546 0.30914,-0.21654 1.30669,-0.19397 1.7453,0.0395 0.39596,0.21077 0.3566,0.22588 1.13021,-0.4372 1.22751,-1.05213 2.68887,-2.03945 4.04148,-2.73042 0.7082,-0.36177 2.39422,-1.02521 2.93598,-1.15547 0.16215,-0.039 0.64864,-0.1682 1.08104,-0.28699 0.96086,-0.26396 2.29996,-0.49105 2.90992,-0.49336 0.24919,-0.001 0.65384,-0.0292 0.89939,-0.0629 0.40175,-0.0551 0.4639,-0.0995 0.61992,-0.44553 0.16864,-0.37397 0.75987,-0.99352 1.03563,-1.08534 0.11175,-0.0372 0.14258,-0.58133 0.16957,-2.97441 0.0181,-1.610788 0.005,-3.077826 -0.029,-3.260052 -0.0472,-0.251594 -0.13795,-0.363296 -0.37702,-0.46434 -0.40082,-0.169411 -0.79057,-0.562603 -1.00446,-1.013325 -0.22816,-0.48081 -0.16381,-1.36103 0.12952,-1.772982 0.11889,-0.166959 0.21632,-0.330034 0.21632,-0.362228 0,-0.04775 -0.15665,-0.06987 -0.42135,-0.07094 z m 3.733,0.01156 c -0.22727,-0.0022 -0.36357,0.01145 -0.36357,0.0446 0,0.04043 0.0966,0.208778 0.21443,0.37432 0.31993,0.449297 0.35444,1.205216 0.0801,1.751484 -0.28217,0.56183 -0.55057,0.851082 -1.00687,1.085072 l -0.36868,0.188907 v 3.184269 3.18428 l 0.36035,0.11904 c 0.46982,0.15505 1.18271,0.81686 1.26027,1.16999 l 0.061,0.27785 1.10012,0.068 c 1.28064,0.079 2.56588,0.27925 3.60614,0.56188 0.40539,0.11014 0.86972,0.23215 1.03187,0.27114 1.09936,0.26431 3.39,1.30756 4.61036,2.09974 1.17484,0.76263 1.81321,1.2395 2.74788,2.05352 0.35765,0.31152 0.33382,0.30697 0.65082,0.12576 0.35,-0.20009 1.32724,-0.18704 1.68162,0.0223 l 0.28699,0.16929 1.91942,-1.91379 c 1.69422,-1.68916 1.91285,-1.94256 1.86087,-2.15939 -0.18372,-0.76621 -0.16988,-1.2724 0.0465,-1.69156 0.27974,-0.54197 0.53522,-0.8141 0.94829,-1.01011 0.18261,-0.0867 0.33213,-0.18985 0.33213,-0.22921 0,-0.18051 -2.39542,-2.36308 -3.58708,-3.26839 -2.31644,-1.759808 -5.46604,-3.536612 -7.76344,-4.379784 -2.57731,-0.945897 -3.96499,-1.32395 -6.43707,-1.753902 -1.09067,-0.189693 -2.5906,-0.338656 -3.27242,-0.3453 z m -1.89363,0.314934 c -0.41575,0.0049 -0.79495,0.220292 -0.97437,0.567257 -0.29042,0.561596 -0.10763,1.193731 0.42671,1.476051 0.45926,0.242651 0.86819,0.245559 1.25679,0.0086 0.86076,-0.524831 0.50345,-1.90236 -0.52936,-2.040891 -0.0604,-0.0081 -0.12038,-0.01173 -0.17977,-0.01102 z m 0.2499,10.367568 c -0.55573,0.008 -0.87263,0.22095 -1.08186,0.72607 -0.2202,0.53159 0.13117,1.29127 0.69142,1.49513 0.73315,0.26677 1.5559,-0.49595 1.443,-1.33767 -0.0804,-0.59965 -0.42971,-0.89293 -1.05256,-0.88353 z m 23.1748,0.0301 c -0.37626,0 -0.52982,0.0554 -0.78331,0.28188 -0.27703,0.24753 -0.3152,0.34247 -0.3152,0.78411 0,0.59971 0.25346,0.93497 0.80963,1.07056 1.0593,0.25824 1.82061,-0.61903 1.34143,-1.54565 -0.21636,-0.41841 -0.52327,-0.5909 -1.05255,-0.5909 z m -46.44768,0.002 c -0.49433,-0.003 -0.93506,0.22406 -1.08776,0.5592 -0.24133,0.52966 -0.0437,1.2154 0.4157,1.44192 0.17213,0.0849 0.50429,0.15542 0.73816,0.15666 0.59166,0.003 0.99962,-0.39673 0.99962,-0.97947 0,-0.752 -0.38227,-1.17482 -1.06572,-1.17831 z m -2.14757,1.41801 c -0.008,0.002 -0.0147,0.005 -0.021,0.0121 -0.2818,0.30194 -1.79419,2.50538 -2.28838,3.33395 -0.59857,1.00357 -1.83286,3.45201 -2.08657,4.13928 -0.0774,0.20982 -0.2345,0.62469 -0.34907,0.92197 -0.81028,2.10242 -1.4072,4.4545 -1.81947,7.16959 -0.1826,1.20262 -0.306685,4.82627 -0.20287,5.92624 l 0.072,0.76261 4.38919,-0.0255 4.38946,-0.0255 0.16848,-0.34395 c 0.19344,-0.39466 0.8029,-0.96397 1.11625,-1.04261 0.17276,-0.0434 0.22423,-0.14916 0.27382,-0.56189 0.0336,-0.27967 0.0615,-0.77113 0.0621,-1.09232 0.002,-1.13491 0.5799,-4.04789 1.13908,-5.73761 0.40479,-1.2232 1.694,-3.89079 2.39183,-4.9492 l 0.48503,-0.73547 -0.29639,-0.58123 c -0.25101,-0.49225 -0.28825,-0.65654 -0.24238,-1.07271 0.0298,-0.27025 0.0835,-0.59247 0.11931,-0.71613 0.0562,-0.19399 -0.20431,-0.49474 -1.90062,-2.19458 l -1.96565,-1.96995 -0.40146,0.20476 c -1.04452,0.53287 -2.34383,0.0172 -2.80969,-1.1149 -0.0816,-0.1982 -0.16907,-0.31629 -0.22303,-0.30687 z m 27.77198,0.11206 c -0.42507,0.009 -0.57989,0.0923 -0.57989,0.26711 0,0.21762 -0.59936,0.85501 -0.99237,1.05551 l -0.38345,0.19563 v 3.7174 3.71767 l 1.04691,0.064 c 0.57594,0.0353 1.31976,0.064 1.65287,0.064 0.72016,0 1.43836,0.19888 2.31767,0.64169 0.78919,0.39744 1.51158,0.60876 2.35287,0.68819 1.12663,0.10632 2.19555,0.35428 2.7863,0.64625 0.56941,0.28141 0.59272,0.2843 2.33057,0.2843 2.02652,0 1.8989,-0.0656 2.00488,1.03187 0.0366,0.37835 0.10622,0.93102 0.15478,1.22829 0.17053,1.04393 0.38811,3.16458 0.33374,3.25253 -0.0699,0.11301 -2.30752,0.11447 -2.48561,0.002 -0.10115,-0.0641 -0.15382,-0.62149 -0.21954,-2.32385 -0.0875,-2.26573 -0.12636,-2.59184 -0.32407,-2.72208 -0.21137,-0.13925 -0.84987,-0.083 -0.91256,0.0803 -0.0328,0.0855 0.0531,0.78204 0.19079,1.5478 0.35374,1.96726 0.45011,2.68333 0.5643,4.19303 0.0552,0.72967 0.14304,1.61405 0.19509,1.96538 0.0521,0.35132 0.096,0.97044 0.0978,1.37582 0.002,0.40538 0.0301,0.83703 0.0629,0.95931 l 0.0597,0.2225 3.48873,-0.0258 3.48872,-0.0258 0.16016,-0.39421 c 0.24592,-0.60539 0.59685,-1.01075 1.0762,-1.2428 l 0.43639,-0.21121 -0.0621,-0.79567 c -0.27348,-3.51567 -1.11398,-6.53765 -2.5802,-9.27658 -0.50337,-0.9403 -1.1497,-1.93261 -1.33229,-2.04546 -0.0643,-0.0397 -0.34752,-0.0614 -0.62933,-0.0484 -1.39773,0.0647 -2.38214,-1.19721 -2.00193,-2.56623 0.0977,-0.35169 0.0871,-0.37849 -0.28456,-0.71424 -1.5528,-1.40286 -3.88543,-2.82974 -5.91093,-3.61583 -1.59948,-0.62075 -3.2025,-0.97492 -5.19561,-1.14768 -0.28176,-0.0244 -0.51556,-0.0393 -0.70779,-0.0438 -0.0721,-0.002 -0.1384,-0.002 -0.19912,-5.3e-4 z m -5.02606,0.0403 c -0.99416,0 -2.62003,0.25544 -3.80877,0.59844 -2.68163,0.77375 -4.70963,1.83668 -7.05162,3.6959 l -0.9096,0.72204 0.0634,0.68119 c 0.13203,1.42062 -0.7264,2.42151 -2.01106,2.34454 l -0.54845,-0.0331 -0.4106,0.58553 c -0.22588,0.32192 -0.49264,0.74196 -0.59278,0.93352 -0.10014,0.19152 -0.32125,0.59136 -0.49148,0.88864 -0.43699,0.76311 -1.04076,2.22284 -1.443,3.48873 -0.61827,1.94584 -0.93114,3.59691 -1.01548,5.35844 l -0.0637,1.32907 0.24749,0.11286 c 0.39646,0.18064 0.9244,0.69018 1.10146,1.0633 l 0.16365,0.34476 3.4589,-0.0258 3.4589,-0.0258 0.0685,-1.27773 c 0.0377,-0.70266 0.11831,-2.20616 0.17897,-3.34121 0.17895,-3.34839 0.19729,-3.46877 0.75535,-4.94086 0.12862,-0.33926 0.20745,-0.65976 0.17494,-0.71237 -0.0689,-0.11145 -0.63636,-0.12604 -0.79405,-0.0204 -0.0683,0.0458 -0.14465,0.93632 -0.20799,2.43053 -0.055,1.2972 -0.13311,2.43729 -0.17386,2.53345 -0.0664,0.15661 -0.20358,0.17208 -1.31563,0.14752 -1.47246,-0.0325 -1.39623,0.0696 -1.15709,-1.54807 0.0841,-0.56894 0.22432,-1.56507 0.31145,-2.21367 0.0871,-0.64861 0.17956,-1.32323 0.20529,-1.49889 l 0.0468,-0.31921 h 1.73026 c 1.69547,0 1.74242,-0.006 2.32949,-0.27947 0.60679,-0.28299 1.11244,-0.38861 3.12301,-0.65217 1.28014,-0.16781 2.01179,-0.36467 2.62427,-0.70618 0.88881,-0.49561 1.38042,-0.62219 2.41897,-0.62342 0.54051,-5.3e-4 1.14868,-0.0286 1.35137,-0.0621 l 0.36842,-0.061 v -3.71958 -3.71955 l -0.36977,-0.18865 c -0.46468,-0.23706 -0.85053,-0.61882 -1.00715,-0.99693 -0.11798,-0.28485 -0.13842,-0.29237 -0.80883,-0.29237 z m 27.73839,0.31253 c -0.0485,0.0173 -0.1917,0.18543 -0.31816,0.37378 -0.47259,0.70391 -1.45662,0.98126 -2.27252,0.64035 -0.19404,-0.0811 -0.37213,-0.14752 -0.39555,-0.14752 -0.0234,0 -0.89007,0.84815 -1.92615,1.88477 -1.55553,1.55635 -1.87274,1.92037 -1.81974,2.08845 0.19937,0.63218 0.16769,1.21201 -0.0989,1.80603 l -0.26737,0.59574 0.53877,0.81717 c 0.74504,1.13027 1.86444,3.48158 2.3174,4.86777 0.33905,1.03758 0.48098,1.58148 0.80239,3.0741 0.14216,0.66033 0.39178,2.82202 0.39178,3.39334 v 0.50007 l 0.5901,0.38185 c 0.42608,0.27573 0.64699,0.4996 0.79486,0.80507 l 0.20476,0.42295 h 3.96704 3.96677 l 0.0672,-0.35873 c 0.1263,-0.67326 -0.0337,-4.73126 -0.24561,-6.22559 -0.33037,-2.32993 -0.86294,-4.46387 -1.63056,-6.53516 -0.20031,-0.5405 -0.42672,-1.15146 -0.5033,-1.35782 -0.2806,-0.75611 -1.46769,-3.09544 -2.14354,-4.2242 -0.79873,-1.33397 -1.89025,-2.84845 -2.01967,-2.80243 z m -41.33054,4.69929 c -0.62756,0 -0.97909,0.24471 -1.12376,0.78196 -0.12923,0.47992 -0.0185,0.78368 0.40898,1.12055 0.5026,0.39604 1.07817,0.36321 1.52845,-0.0871 0.3186,-0.3186 0.34244,-0.3826 0.29613,-0.79352 -0.0349,-0.31014 -0.13469,-0.53504 -0.32568,-0.7344 -0.2349,-0.24518 -0.34994,-0.28752 -0.78412,-0.28752 z m 32.77062,0 c -0.50891,0 -0.58828,0.0296 -0.81797,0.30257 -0.13994,0.16632 -0.2809,0.4072 -0.31305,0.53529 -0.0927,0.3692 0.13469,0.89765 0.48181,1.12 0.19562,0.1253 0.48064,0.20165 0.75697,0.20261 1.01753,0.004 1.40953,-1.14259 0.66319,-1.93932 -0.16819,-0.17952 -0.31318,-0.22115 -0.77095,-0.22115 z m -17.1494,4.47464 c -2.39381,-0.007 -2.71306,0.0813 -3.67119,0.59628 -0.91628,0.49249 -1.32172,0.61412 -2.57832,0.7739 -3.19144,0.40591 -3.27005,0.42374 -3.65264,0.82308 -0.34827,0.36351 -0.91961,1.98711 -1.04262,2.96285 -0.29884,2.37054 -0.58512,11.085064 -0.36868,11.222624 0.0657,0.0418 5.50379,0.0766 12.0844,0.0774 l 11.96481,0.002 v -0.96817 c 0,-2.147934 -0.46915,-9.119654 -0.682,-10.136474 -0.0509,-0.24323 -0.16773,-0.96618 -0.25985,-1.60638 -0.2534,-1.76097 -0.40778,-1.89297 -2.59605,-2.21932 -1.72185,-0.25678 -2.39025,-0.43445 -3.28773,-0.87413 -1.21856,-0.59699 -1.34297,-0.61389 -4.74927,-0.64518 -0.43456,-0.004 -0.81888,-0.007 -1.16086,-0.008 z m -13.45403,2.15886 c -0.0205,0.24569 -0.0407,0.49139 -0.061,0.73709 h 0.69678 c 0.72801,0 0.76335,-0.0214 0.81259,-0.49148 -0.33598,-0.45299 -0.74153,-0.24561 -1.44837,-0.24561 z m 27.442,0.0575 c -0.25567,10e-4 -0.26952,0.0478 -0.26952,0.21632 0,0.12869 0.0295,0.26331 0.0656,0.29935 0.036,0.036 0.3263,0.0656 0.64519,0.0656 0.57451,0 0.57953,-0.003 0.54871,-0.27033 -0.0298,-0.259 -0.0568,-0.27131 -0.64545,-0.29935 -0.14741,-0.007 -0.25927,-0.0119 -0.34449,-0.0115 z m -7.63016,0.86204 c 2.23607,0.003 3.75387,0.017 3.92108,0.0403 0.43856,0.0611 0.60075,0.13967 0.85989,0.41624 l 0.31924,0.34073 v 5.54762 c 0,3.36594 -0.0375,5.64649 -0.0957,5.79941 -0.0527,0.13862 -0.24084,0.340304 -0.41785,0.448224 -0.31626,0.19282 -0.49476,0.19629 -10.29636,0.19052 -5.48609,-0.003 -10.06331,-0.0423 -10.17141,-0.0865 -0.2926,-0.11976 -0.51063,-0.405224 -0.60434,-0.791374 -0.0459,-0.18917 -0.0614,-2.78643 -0.0344,-5.77173 l 0.0492,-5.42804 0.32111,-0.32111 0.32139,-0.32112 9.60442,-0.0492 c 1.3206,-0.007 2.59622,-0.0111 3.77169,-0.0131 0.8816,-0.002 1.70666,-0.002 2.45202,-0.001 z m -18.47498,0.2018 -0.71747,0.029 -0.71774,0.0288 -0.0277,0.34396 c -0.0152,0.18917 -0.11472,0.9556 -0.22115,1.70312 -0.23324,1.63805 -0.23151,1.51583 -0.0215,1.57037 0.0946,0.0246 0.23086,0.0276 0.30284,0.007 0.072,-0.0206 0.36848,-0.0373 0.65889,-0.0373 0.5202,0 0.52894,-0.005 0.57693,-0.31951 0.0268,-0.17566 0.0752,-0.99573 0.10776,-1.82242 z m 26.77102,0.006 c -0.0749,5.3e-4 -0.16138,0.003 -0.26174,0.003 h -0.68656 l 0.0591,1.30193 c 0.0325,0.71616 0.0826,1.53263 0.11125,1.8141 l 0.0521,0.51163 0.70591,0.0288 c 0.38826,0.0158 0.73901,0.0151 0.77954,-0.002 0.11044,-0.0455 0.0887,-0.62353 -0.0734,-1.93502 -0.20287,-1.6423 -0.1619,-1.72742 -0.6863,-1.723 z m -23.73159,0.19966 -0.32111,0.28672 -0.32085,0.28699 -0.0153,5.23672 c -0.0164,5.59393 7.4e-4,5.82009 0.45764,6.0528 0.19503,0.0994 2.26531,0.120204 10.04484,0.101044 9.2567,-0.0228 9.80895,-0.034 9.9747,-0.199664 0.16349,-0.16347 0.17732,-0.54529 0.20341,-5.60136 0.0154,-2.98437 0.006,-5.51503 -0.0205,-5.62367 -0.0267,-0.10866 -0.17884,-0.27464 -0.33804,-0.36869 -0.26977,-0.15935 -0.94848,-0.1709 -9.97712,-0.1709 z m 31.31365,8.20575 c -0.42225,0 -0.51126,0.0403 -0.81071,0.36706 -0.53843,0.58754 -0.42813,1.21802 0.2894,1.65556 0.3901,0.23785 0.8134,0.23902 1.20009,0.003 0.43547,-0.26555 0.58876,-0.68979 0.43934,-1.2162 -0.15786,-0.55619 -0.50784,-0.80965 -1.11812,-0.80965 z m -43.06455,0.30177 c -0.44955,0 -0.58156,0.0425 -0.79486,0.25582 -0.21128,0.21128 -0.25555,0.34664 -0.25555,0.77793 0,0.47383 0.0327,0.55186 0.3539,0.84618 0.26367,0.24164 0.44421,0.32434 0.7086,0.32434 1.06465,0 1.57798,-1.19724 0.82334,-1.92024 -0.25317,-0.24255 -0.37504,-0.28403 -0.83543,-0.28403 z m 45.06487,1.12323 -0.13651,0.32648 c -0.18752,0.44881 -0.68975,1.00025 -1.04503,1.14742 -0.26892,0.11139 -0.29532,0.16352 -0.29532,0.58392 0,1.848494 1.59482,4.007334 3.81575,5.165244 0.92177,0.48057 1.21134,0.59332 2.27736,0.88756 0.96816,0.26724 1.21531,0.28928 1.35352,0.11985 0.15669,-0.19209 0.86097,-2.37356 1.13424,-3.51345 0.33231,-1.38613 0.46696,-2.05523 0.60811,-3.021164 0.1877,-1.28453 0.18631,-1.56152 -0.008,-1.6362 -0.0855,-0.0328 -1.85391,-0.0597 -3.92969,-0.0597 z m -50.13795,0.29021 c -2.38329,-0.005 -5.39862,0.0391 -5.44309,0.11098 -0.10518,0.17018 0.22347,2.275654 0.61214,3.922704 0.21532,0.91248 0.79728,2.87685 1.041,3.51372 l 0.20744,0.54227 0.84108,-0.0615 c 1.60918,-0.11751 3.42826,-0.83096 4.83016,-1.89444 1.30124,-0.98713 2.23944,-2.43506 2.47728,-3.82355 0.10478,-0.611704 0.0995,-0.673754 -0.0677,-0.772824 -0.6087,-0.36062 -0.82831,-0.55349 -1.09179,-0.95878 -0.20215,-0.31097 -0.38374,-0.47249 -0.57747,-0.51379 -0.19666,-0.0419 -1.39906,-0.062 -2.82903,-0.0648 z m 42.5626,0.006 c -2.32796,-0.001 -3.14303,0.0295 -3.26838,0.12172 -0.15189,0.11173 -0.15839,0.25185 -0.0696,1.54781 0.0537,0.783724 0.0983,2.534434 0.0991,3.890194 5.3e-4,1.35575 0.0332,2.49652 0.072,2.53532 0.0388,0.0388 0.22667,0.0482 0.41758,0.0207 0.19092,-0.0276 0.59056,-0.078 0.88783,-0.11179 0.68402,-0.0778 1.61833,-0.30503 2.06374,-0.50196 1.60006,-0.70744 2.33988,-1.20076 3.22834,-2.15214 0.78769,-0.84345 1.33833,-1.85181 1.55049,-2.83978 0.20233,-0.942184 0.17853,-1.178534 -0.13544,-1.334704 -0.34553,-0.17188 -1.00741,-0.78801 -1.00741,-0.93782 0,-0.19676 -0.64045,-0.23644 -3.83832,-0.23754 z m -31.96958,5.2e-4 c -1.79055,0.001 -3.31257,0.0376 -3.38205,0.0817 -0.0695,0.0441 -0.21812,0.25332 -0.33052,0.46515 -0.23755,0.44771 -0.38955,0.60276 -0.89428,0.91229 -0.35204,0.21589 -0.36583,0.24401 -0.31037,0.635514 0.0644,0.45487 0.36946,1.42559 0.55409,1.76358 0.41369,0.75731 0.62606,1.04179 1.30408,1.74772 1.07622,1.12054 3.0662,2.11662 4.7662,2.38537 0.13512,0.0214 0.51767,0.0448 0.84994,0.0521 l 0.60407,0.0134 0.0583,-1.3022 c 0.16579,-3.69633 0.22207,-6.518764 0.13221,-6.633494 -0.0736,-0.0939 -0.86261,-0.12229 -3.35168,-0.12119 z m 3.9184,3.585474 -0.0325,0.22814 c -0.0178,0.12554 -0.008,0.29153 0.0215,0.36868 0.0462,0.12044 1.76257,0.14026 12.1505,0.14026 h 12.09648 l -0.0304,-0.36867 -0.0306,-0.36841 h -12.08734 z m 1.95786,1.15171 c -1.04718,0.002 -1.728,0.0106 -1.78991,0.0261 -0.1269,0.0318 -0.19685,0.10239 -0.16015,0.16176 0.0441,0.0712 0.7253,0.094 2.10833,0.0707 l 2.04331,-0.0344 0.25421,0.23808 c 0.13982,0.13104 0.2542,0.27729 0.2542,0.32488 0,0.0476 0.17868,0.34938 0.39689,0.67071 l 0.39663,0.5842 h 6.66683 6.66709 l 0.57693,-0.8599 0.5772,-0.85988 2.0116,-0.0266 c 1.14222,-0.0151 2.05347,-0.0682 2.10807,-0.12281 0.0627,-0.0627 -2.10734,-0.0987 -6.23742,-0.10319 -3.48353,-0.004 -8.83252,-0.0279 -11.88635,-0.0535 -1.52691,-0.0128 -2.94028,-0.0179 -3.98746,-0.0161 z m -2.10538,0.76449 -0.004,0.22116 c -0.01,0.57805 -0.18857,4.058 -0.25017,4.86454 l -0.0693,0.90907 h 0.2894 c 0.15913,0 0.68493,-0.0899 1.16864,-0.19965 0.48372,-0.10976 1.12289,-0.24698 1.42016,-0.30501 0.29728,-0.058 0.96044,-0.25952 1.4739,-0.44768 1.45457,-0.53296 3.05968,-0.71871 4.44509,-0.51485 0.75691,0.11139 2.12529,0.72784 2.95022,1.32933 l 0.41733,0.30447 0.54065,-0.41088 c 1.42083,-1.08018 2.30235,-1.37614 4.51791,-1.51636 1.27922,-0.081 1.36143,-0.074 2.42542,0.20046 0.79055,0.2039 1.41653,0.44943 2.21799,0.87038 1.09398,0.5746 1.81585,0.77947 2.7691,0.78599 l 0.28511,0.002 -0.0632,-2.039 c -0.0347,-1.12154 -0.0634,-2.49241 -0.064,-3.04643 l -0.001,-1.00741 h -2.04868 -2.04869 l -0.91067,1.29843 c -0.50082,0.7141 -0.93098,1.35204 -0.95609,1.41748 -0.0251,0.0654 -0.11558,0.14564 -0.201,0.17842 -0.0854,0.0328 -2.83253,0.0577 -6.10467,0.0554 -4.8459,-0.004 -5.98713,-0.029 -6.15331,-0.13785 -0.11222,-0.0735 -0.55357,-0.73635 -0.98055,-1.47282 l -0.77631,-1.33901 h -2.14489 z m 1.9283,1.17241 c 1.23242,-0.003 2.78959,0.0471 2.86746,0.12496 0.12378,0.12377 0.17181,2.08421 0.0583,2.37999 -0.052,0.1355 -0.34851,0.15532 -2.30934,0.15532 h -2.24995 v -1.26699 c 0,-1.06471 0.025,-1.27651 0.15558,-1.32665 0.11607,-0.0446 0.73849,-0.065 1.47794,-0.0666 z m 17.77551,0.0562 h 2.21099 2.21126 v 1.27747 1.27748 l -2.23867,0.0266 -2.2384,0.0263 0.0274,-1.30407 z m 4.08635,0.43774 -1.84661,0.0269 -1.84661,0.0266 -0.0295,0.67823 c -0.0162,0.373 -0.006,0.73872 0.0223,0.81287 0.0418,0.10885 0.39827,0.12965 1.84769,0.10803 l 1.79555,-0.0266 0.0285,-0.81313 z"
       id="path850-3-7"
       inkscape:connector-curvature="0"
       sodipodi:nodetypes="ccssccccccccccccccccccccscccscccccccccccccccccccccsscsccccccccccccccscsccsccccsccccccccccccccccccccccccccccscccccscccscccccccccccccccccccscccccccccccccccccccccccccccccccccccccccscccccccccccccccscccccccscccccccccsccccccscccscccccsccccccccscccccccccscccscsccccccccsccccccccccccccccccccsccccscccccccccccccccccccsccccccccscscscscccsccccccscccccccccccccccccccccccccscccccccccccccccccccscccccccccccsccccccccccccccccscccccccccccccccccccccccccccccscsccccccccccccccccccccc"
       inkscape:export-xdpi="79.529999"
       inkscape:export-ydpi="79.529999" />
    <path
       style="opacity:0.047;vector-effect:none;fill:#ffffff;fill-opacity:1;stroke:none;stroke-width:0.3714253;stroke-linecap:butt;stroke-linejoin:miter;stroke-miterlimit:4;stroke-dasharray:none;stroke-dashoffset:0;stroke-opacity:1;filter:url(#filter1843)"
       d="m 81.742486,-0.001767 c -0.79407,-0.003 -2.56213,0.18476 -4.00117,0.45197 -6.10887,1.13437 -11.73549,4.0018 -16.19035,8.25063 -0.55401,0.52839 -1.00741,0.9913 -1.00741,1.02864 0,0.0373 0.19855,0.12078 0.44123,0.18569 0.56676,0.15158 1.17249,0.70029 1.38388,1.25382 0.15688,0.41075 0.15474,0.59373 -0.014,1.26592 -0.0597,0.2379 0.10432,0.43201 1.83801,2.17874 1.04689,1.05475 1.98164,1.96163 2.07717,2.01509 0.12482,0.0699 0.23444,0.0545 0.39018,-0.0546 0.30914,-0.21653 1.30669,-0.19397 1.7453,0.0395 0.39596,0.21077 0.3566,0.22588 1.13021,-0.4372 1.22751,-1.05212 2.68887,-2.03944 4.04148,-2.73041 0.7082,-0.36178 2.39422,-1.02522 2.93598,-1.15548 0.16215,-0.039 0.64864,-0.16819 1.08104,-0.28698 0.96086,-0.26396 2.29996,-0.49105 2.90992,-0.49336 0.24919,-0.001 0.65384,-0.0292 0.89939,-0.0629 0.40175,-0.0551 0.4639,-0.0995 0.61992,-0.44554 0.16864,-0.37397 0.75987,-0.99352 1.03563,-1.08534 0.11175,-0.0372 0.14257,-0.58133 0.16956,-2.9744 0.0181,-1.61079 0.005,-3.07783 -0.029,-3.26005 -0.0472,-0.2516 -0.13794,-0.3633 -0.37701,-0.46434 -0.40082,-0.16941 -0.79057,-0.56261 -1.00446,-1.01333 -0.22816,-0.48081 -0.16381,-1.36103 0.12952,-1.77298 0.11889,-0.16696 0.21632,-0.33003 0.21632,-0.36223 0,-0.0478 -0.15665,-0.0699 -0.42135,-0.0709 z m 3.73299,0.0116 c -0.22727,-0.002 -0.36357,0.0115 -0.36357,0.0446 0,0.0404 0.0966,0.20877 0.21443,0.37432 0.31993,0.44929 0.35444,1.20521 0.0801,1.75148 -0.28217,0.56183 -0.55057,0.85108 -1.00687,1.08507 l -0.36868,0.18891 v 3.18427 3.18428 l 0.36035,0.11904 c 0.46982,0.15505 1.18271,0.81685 1.26027,1.16999 l 0.061,0.27784 1.10012,0.068 c 1.28065,0.079 2.56589,0.27926 3.60615,0.56189 0.40538,0.11014 0.869717,0.23215 1.031867,0.27113 1.09935,0.26432 3.38999,1.30756 4.61035,2.09974 1.17484,0.76264 1.81321,1.2395 2.74788,2.05352 0.35766,0.31153 0.33382,0.30698 0.65082,0.12576 0.35001,-0.20008 1.327237,-0.18703 1.681617,0.0223 l 0.287,0.16929 1.91942,-1.91378 c 1.69421,-1.68916 1.91285,-1.94256 1.86086,-2.1594 -0.18372,-0.7662 -0.16988,-1.2724 0.0465,-1.69156 0.27974,-0.54196 0.53522,-0.81409 0.94829,-1.0101 0.18261,-0.0867 0.33213,-0.18986 0.33213,-0.22922 0,-0.18051 -2.39542,-2.36307 -3.58708,-3.26838 -2.31644,-1.75981 -5.466037,-3.53661 -7.763437,-4.37979 -2.57731,-0.94589 -3.96499,-1.32395 -6.437067,-1.7539 -1.09067,-0.18969 -2.5906,-0.33865 -3.27242,-0.3453 z m -1.89363,0.31493 c -0.41574,0.005 -0.79494,0.22029 -0.97436,0.56726 -0.29042,0.56159 -0.10763,1.19373 0.42671,1.47605 0.45925,0.24265 0.86818,0.24556 1.25678,0.009 0.86076,-0.52483 0.50345,-1.90236 -0.52936,-2.04089 -0.0604,-0.008 -0.12038,-0.0117 -0.17977,-0.011 z m 0.2499,10.36757 c -0.55573,0.008 -0.87262,0.22095 -1.08185,0.72606 -0.2202,0.5316 0.13117,1.29128 0.69141,1.49513 0.73315,0.26678 1.5559,-0.49594 1.443,-1.33766 -0.0804,-0.59965 -0.42971,-0.89293 -1.05256,-0.88353 z m 23.174794,0.0301 c -0.37626,0 -0.52982,0.0554 -0.78331,0.28187 -0.27703,0.24753 -0.3152,0.34247 -0.3152,0.78412 0,0.59971 0.25346,0.93497 0.80963,1.07056 1.0593,0.25824 1.82061,-0.61904 1.34143,-1.54565 -0.21636,-0.41841 -0.52327,-0.5909 -1.05255,-0.5909 z m -46.447664,0.002 c -0.49433,-0.003 -0.93506,0.22406 -1.08776,0.55919 -0.24133,0.52967 -0.0437,1.2154 0.4157,1.44193 0.17213,0.0849 0.50429,0.15542 0.73816,0.15666 0.59166,0.003 0.99962,-0.39674 0.99962,-0.97947 0,-0.752 -0.38227,-1.17482 -1.06572,-1.17831 z m -2.14757,1.41801 c -0.008,0.002 -0.0147,0.005 -0.021,0.0121 -0.2818,0.30194 -1.79419,2.50538 -2.28838,3.33395 -0.59857,1.00356 -1.83286,3.45201 -2.086571,4.13928 -0.0774,0.20981 -0.2345,0.62469 -0.34907,0.92196 -0.81028,2.10242 -1.4072,4.4545 -1.81947,7.16959 -0.1826,1.20262 -0.30668,4.82627 -0.20287,5.92624 l 0.072,0.76262 4.389191,-0.0255 4.38946,-0.0255 0.16848,-0.34396 c 0.19344,-0.39466 0.8029,-0.96396 1.11625,-1.04261 0.17276,-0.0434 0.22423,-0.14916 0.27382,-0.56188 0.0336,-0.27967 0.0615,-0.77114 0.0621,-1.09233 0.002,-1.13491 0.5799,-4.04789 1.13908,-5.7376 0.40479,-1.2232 1.694,-3.89079 2.39183,-4.9492 l 0.48503,-0.73547 -0.29639,-0.58123 c -0.25101,-0.49226 -0.28825,-0.65655 -0.24238,-1.07272 0.0298,-0.27024 0.0835,-0.59246 0.11931,-0.71612 0.0562,-0.194 -0.20431,-0.49474 -1.90062,-2.19459 l -1.96565,-1.96995 -0.40146,0.20477 c -1.04452,0.53287 -2.34383,0.0172 -2.80969,-1.1149 -0.0816,-0.19821 -0.16907,-0.31629 -0.22303,-0.30687 z m 27.77197,0.11206 c -0.42507,0.009 -0.57989,0.0923 -0.57989,0.2671 0,0.21763 -0.59936,0.85502 -0.99237,1.05551 l -0.38345,0.19563 v 3.7174 3.71768 l 1.04691,0.064 c 0.57594,0.0352 1.31976,0.0639 1.65287,0.0639 0.72016,0 1.43836,0.19887 2.31767,0.64169 0.78919,0.39743 1.51158,0.60876 2.352867,0.68818 1.12663,0.10632 2.19555,0.35428 2.7863,0.64626 0.56941,0.28141 0.59272,0.2843 2.33057,0.2843 2.02652,0 1.8989,-0.0656 2.00488,1.03187 0.0366,0.37835 0.10622,0.93101 0.15478,1.22829 0.17053,1.04392 0.38811,3.16458 0.33374,3.25253 -0.0699,0.11301 -2.30752,0.11446 -2.48561,0.002 -0.10115,-0.0641 -0.15382,-0.62149 -0.21954,-2.32385 -0.0875,-2.26574 -0.12636,-2.59184 -0.32407,-2.72208 -0.21137,-0.13925 -0.84987,-0.083 -0.91256,0.0803 -0.0328,0.0855 0.0531,0.78204 0.19079,1.5478 0.35374,1.96725 0.45011,2.68333 0.5643,4.19302 0.0552,0.72968 0.14304,1.61406 0.19509,1.96539 0.0521,0.35132 0.096,0.97044 0.0978,1.37582 0.002,0.40537 0.0301,0.83702 0.0629,0.95931 l 0.0597,0.22249 3.48873,-0.0258 3.488717,-0.0258 0.16016,-0.3942 c 0.24592,-0.60539 0.59685,-1.01075 1.0762,-1.24281 l 0.43639,-0.2112 -0.0621,-0.79567 c -0.27348,-3.51567 -1.11398,-6.53765 -2.5802,-9.27658 -0.50337,-0.94031 -1.1497,-1.93261 -1.33229,-2.04546 -0.0643,-0.0397 -0.34752,-0.0614 -0.62933,-0.0484 -1.397727,0.0648 -2.382137,-1.19721 -2.001927,-2.56623 0.0977,-0.3517 0.0871,-0.3785 -0.28456,-0.71425 -1.5528,-1.40286 -3.88543,-2.82973 -5.91093,-3.61583 -1.599477,-0.62075 -3.202497,-0.97491 -5.195607,-1.14767 -0.28176,-0.0244 -0.51556,-0.0393 -0.70779,-0.0438 -0.0721,-0.002 -0.1384,-0.002 -0.19912,-5.3e-4 z m -5.02605,0.0403 c -0.99416,0 -2.62003,0.25543 -3.80877,0.59843 -2.68163,0.77376 -4.70963,1.83668 -7.05162,3.69591 l -0.9096,0.72204 0.0634,0.68119 c 0.13203,1.42061 -0.7264,2.4215 -2.01106,2.34453 l -0.54845,-0.0331 -0.4106,0.58554 c -0.22588,0.32191 -0.49264,0.74196 -0.59278,0.93351 -0.10014,0.19153 -0.32125,0.59137 -0.49148,0.88864 -0.43699,0.76312 -1.04076,2.22285 -1.443,3.48873 -0.61827,1.94585 -0.93114,3.59692 -1.01548,5.35845 l -0.0637,1.32906 0.24749,0.11287 c 0.39646,0.18064 0.9244,0.69017 1.10146,1.0633 l 0.16365,0.34476 3.4589,-0.0258 3.4589,-0.0258 0.0685,-1.27774 c 0.0377,-0.70265 0.11831,-2.20615 0.17897,-3.3412 0.17895,-3.34839 0.19729,-3.46878 0.75535,-4.94086 0.12862,-0.33926 0.20745,-0.65976 0.17494,-0.71237 -0.0689,-0.11145 -0.63636,-0.12604 -0.79405,-0.0204 -0.0683,0.0458 -0.14465,0.93632 -0.20799,2.43053 -0.055,1.2972 -0.13311,2.43729 -0.17386,2.53345 -0.0664,0.15661 -0.20358,0.17208 -1.31563,0.14752 -1.47246,-0.0325 -1.39623,0.0696 -1.15709,-1.54807 0.0841,-0.56894 0.22432,-1.56507 0.31145,-2.21367 0.0871,-0.64861 0.17956,-1.32324 0.20529,-1.49889 l 0.0468,-0.31922 h 1.73026 c 1.69547,0 1.74242,-0.006 2.32949,-0.27946 0.60679,-0.28299 1.11244,-0.38861 3.12301,-0.65217 1.28014,-0.16781 2.01179,-0.36467 2.62427,-0.70619 0.88881,-0.4956 1.38042,-0.62218 2.41897,-0.62342 0.54051,-5.2e-4 1.14868,-0.0286 1.35137,-0.0621 l 0.36841,-0.061 v -3.71958 -3.71955 l -0.36976,-0.18864 c -0.46468,-0.23707 -0.85053,-0.61882 -1.00715,-0.99694 -0.11798,-0.28484 -0.13842,-0.29236 -0.80883,-0.29236 z m 27.738374,0.31252 c -0.0485,0.0173 -0.1917,0.18543 -0.31816,0.37378 -0.47259,0.70391 -1.45662,0.98125 -2.27252,0.64035 -0.19404,-0.0811 -0.37213,-0.14753 -0.39555,-0.14753 -0.0234,0 -0.89007,0.84816 -1.92615,1.88477 -1.55553,1.55635 -1.87274,1.92038 -1.81974,2.08845 0.19937,0.63218 0.16769,1.21202 -0.0989,1.80604 l -0.26737,0.59574 0.53877,0.81716 c 0.74504,1.13028 1.86444,3.48159 2.3174,4.86778 0.33905,1.03758 0.48098,1.58147 0.80239,3.0741 0.14216,0.66033 0.39178,2.82202 0.39178,3.39333 v 0.50008 l 0.5901,0.38184 c 0.42608,0.27574 0.64699,0.4996 0.79486,0.80508 l 0.20476,0.42295 h 3.96704 3.96677 l 0.0672,-0.35873 c 0.1263,-0.67326 -0.0337,-4.73126 -0.24561,-6.22559 -0.33037,-2.32993 -0.86294,-4.46387 -1.63056,-6.53516 -0.20031,-0.5405 -0.42672,-1.15147 -0.5033,-1.35782 -0.2806,-0.75612 -1.46769,-3.09545 -2.14354,-4.2242 -0.79873,-1.33397 -1.89025,-2.84846 -2.01967,-2.80243 z m -41.330524,4.69928 c -0.62756,0 -0.97909,0.24471 -1.12376,0.78197 -0.12923,0.47992 -0.0185,0.78367 0.40898,1.12054 0.5026,0.39605 1.07817,0.36321 1.52845,-0.0871 0.3186,-0.3186 0.34244,-0.38259 0.29613,-0.79351 -0.0349,-0.31015 -0.13469,-0.53504 -0.32568,-0.7344 -0.2349,-0.24518 -0.34994,-0.28753 -0.78412,-0.28753 z m 32.770604,0 c -0.508907,0 -0.588277,0.0296 -0.817967,0.30258 -0.13994,0.16632 -0.2809,0.40719 -0.31305,0.53528 -0.0927,0.36921 0.13469,0.89766 0.48181,1.12001 0.19562,0.1253 0.480637,0.20165 0.756967,0.20261 1.01753,0.004 1.40953,-1.14259 0.66319,-1.93932 -0.16819,-0.17952 -0.31318,-0.22116 -0.77095,-0.22116 z m -17.149384,4.47465 c -2.39381,-0.007 -2.71306,0.0813 -3.67119,0.59628 -0.91628,0.49249 -1.32172,0.61411 -2.57832,0.7739 -3.19144,0.40591 -3.27005,0.42374 -3.65264,0.82307 -0.34827,0.36351 -0.91961,1.98712 -1.04262,2.96286 -0.29884,2.37053 -0.58512,11.08505 -0.36868,11.22261 0.0657,0.0418 5.50379,0.0766 12.08439,0.0774 l 11.964807,0.002 v -0.96816 c 0,-2.14793 -0.46915,-9.11965 -0.682,-10.13647 -0.0509,-0.24323 -0.16773,-0.96618 -0.25985,-1.60638 -0.2534,-1.76097 -0.40778,-1.89297 -2.59605,-2.21932 -1.721847,-0.25679 -2.390247,-0.43445 -3.287727,-0.87413 -1.21856,-0.59699 -1.34297,-0.61389 -4.74927,-0.64519 -0.43456,-0.004 -0.81888,-0.007 -1.16085,-0.008 z m -13.45403,2.15886 c -0.0205,0.24568 -0.0407,0.49138 -0.061,0.73708 h 0.69678 c 0.72801,0 0.76335,-0.0214 0.81259,-0.49148 -0.33598,-0.45298 -0.74153,-0.2456 -1.44837,-0.2456 z m 27.441987,0.0575 c -0.25567,10e-4 -0.26952,0.0478 -0.26952,0.21631 0,0.1287 0.0295,0.26332 0.0656,0.29935 0.036,0.036 0.3263,0.0656 0.64519,0.0656 0.57451,0 0.57953,-0.003 0.54871,-0.27033 -0.0298,-0.25899 -0.0568,-0.2713 -0.64545,-0.29934 -0.14741,-0.007 -0.25927,-0.0119 -0.34449,-0.0115 z m -7.630157,0.86204 c 2.236067,0.003 3.753867,0.017 3.921077,0.0403 0.43856,0.0611 0.60075,0.13966 0.85989,0.41624 l 0.31924,0.34073 v 5.54762 c 0,3.36594 -0.0375,5.64649 -0.0957,5.79941 -0.0527,0.13862 -0.24084,0.3403 -0.41785,0.44822 -0.31626,0.19282 -0.49476,0.19628 -10.296357,0.19051 -5.48608,-0.003 -10.0633,-0.0423 -10.1714,-0.0865 -0.2926,-0.11975 -0.51063,-0.40522 -0.60434,-0.79136 -0.0459,-0.18918 -0.0614,-2.78644 -0.0344,-5.77173 l 0.0492,-5.42805 0.32111,-0.32111 0.32139,-0.32112 9.60441,-0.0492 c 1.3206,-0.007 2.59622,-0.0111 3.77169,-0.0131 0.8816,-0.002 1.70666,-0.002 2.45202,-0.001 z m -18.47497,0.2018 -0.71747,0.029 -0.71774,0.0288 -0.0277,0.34396 c -0.0152,0.18917 -0.11472,0.95559 -0.22115,1.70311 -0.23324,1.63806 -0.23151,1.51584 -0.0215,1.57037 0.0946,0.0246 0.23086,0.0276 0.30284,0.007 0.072,-0.0206 0.36848,-0.0373 0.65889,-0.0373 0.5202,0 0.52894,-0.005 0.57693,-0.3195 0.0268,-0.17566 0.0752,-0.99574 0.10776,-1.82242 z m 26.771007,0.006 c -0.0749,5.3e-4 -0.16138,0.003 -0.26174,0.003 h -0.68656 l 0.0591,1.30193 c 0.0325,0.71616 0.0826,1.53262 0.11125,1.81409 l 0.0521,0.51164 0.70591,0.0288 c 0.38826,0.0158 0.73901,0.0151 0.77954,-0.002 0.11044,-0.0455 0.0887,-0.62354 -0.0734,-1.93502 -0.20287,-1.6423 -0.1619,-1.72742 -0.6863,-1.723 z m -23.731577,0.19965 -0.32111,0.28672 -0.32085,0.28699 -0.0153,5.23673 c -0.0164,5.59393 7.4e-4,5.82009 0.45764,6.05279 0.19503,0.0994 2.26531,0.12021 10.04483,0.10105 9.256697,-0.0228 9.808947,-0.034 9.974697,-0.19966 0.16349,-0.16347 0.17732,-0.54529 0.20341,-5.60136 0.0154,-2.98438 0.006,-5.51503 -0.0205,-5.62367 -0.0267,-0.10865 -0.17884,-0.27464 -0.33804,-0.36868 -0.26977,-0.15935 -0.94848,-0.17091 -9.977117,-0.17091 z m 31.313634,8.20575 c -0.42225,0 -0.51126,0.0403 -0.81071,0.36707 -0.53843,0.58753 -0.42813,1.21802 0.2894,1.65556 0.3901,0.23785 0.8134,0.23902 1.20009,0.003 0.43547,-0.26555 0.58876,-0.68979 0.43934,-1.21621 -0.15786,-0.55618 -0.50784,-0.80964 -1.11812,-0.80964 z m -43.064534,0.30178 c -0.44955,0 -0.58156,0.0425 -0.79486,0.25581 -0.21128,0.21129 -0.25555,0.34665 -0.25555,0.77793 0,0.47384 0.0327,0.55186 0.3539,0.84618 0.26367,0.24164 0.44421,0.32434 0.7086,0.32434 1.06465,0 1.57798,-1.19724 0.82334,-1.92024 -0.25317,-0.24254 -0.37504,-0.28402 -0.83543,-0.28402 z m 45.064854,1.12322 -0.13651,0.32649 c -0.18752,0.4488 -0.68975,1.00025 -1.04503,1.14742 -0.26892,0.11138 -0.29532,0.16351 -0.29532,0.58392 0,1.84849 1.59482,4.00733 3.81575,5.16524 0.92177,0.48057 1.21134,0.59332 2.27736,0.88756 0.96816,0.26724 1.21531,0.28928 1.35352,0.11985 0.15669,-0.19209 0.86097,-2.37356 1.13424,-3.51345 0.33231,-1.38613 0.46696,-2.05524 0.60811,-3.02117 0.1877,-1.28452 0.18631,-1.56151 -0.008,-1.6362 -0.0855,-0.0328 -1.85391,-0.0597 -3.92969,-0.0597 z m -50.137934,0.29021 c -2.38329,-0.005 -5.398621,0.0391 -5.443091,0.11099 -0.10518,0.17017 0.22347,2.27565 0.61214,3.9227 0.21532,0.91247 0.79728,2.87685 1.041,3.51372 l 0.20744,0.54227 0.841081,-0.0615 c 1.60918,-0.11751 3.42826,-0.83096 4.83016,-1.89445 1.30124,-0.98713 2.23944,-2.43505 2.47728,-3.82354 0.10478,-0.6117 0.0995,-0.67375 -0.0677,-0.77283 -0.6087,-0.36061 -0.82831,-0.55348 -1.09179,-0.95877 -0.20215,-0.31097 -0.38374,-0.47248 -0.57747,-0.51379 -0.19666,-0.0419 -1.39906,-0.062 -2.82903,-0.0648 z m 42.562587,0.006 c -2.32796,-10e-4 -3.14303,0.0295 -3.26838,0.12173 -0.15189,0.11172 -0.15839,0.25184 -0.0696,1.5478 0.0537,0.78373 0.0983,2.53443 0.0991,3.89019 5.3e-4,1.35576 0.0332,2.49653 0.072,2.53533 0.0388,0.0388 0.22667,0.0482 0.41758,0.0207 0.19092,-0.0276 0.59056,-0.078 0.88783,-0.11179 0.68402,-0.0778 1.61833,-0.30503 2.063737,-0.50196 1.60006,-0.70745 2.33988,-1.20077 3.22834,-2.15214 0.78769,-0.84345 1.33833,-1.85181 1.55049,-2.83978 0.20233,-0.94218 0.17853,-1.17854 -0.13544,-1.33471 -0.34553,-0.17188 -1.00741,-0.78801 -1.00741,-0.93781 0,-0.19676 -0.64045,-0.23644 -3.838317,-0.23755 z m -31.969567,5.3e-4 c -1.79055,0.001 -3.31257,0.0376 -3.38205,0.0817 -0.0695,0.0441 -0.21812,0.25332 -0.33052,0.46514 -0.23755,0.44772 -0.38955,0.60277 -0.89428,0.9123 -0.35204,0.21588 -0.36583,0.24401 -0.31037,0.6355 0.0644,0.45488 0.36946,1.42559 0.55409,1.76359 0.41369,0.75731 0.62606,1.04179 1.30408,1.74772 1.07622,1.12053 3.0662,2.11662 4.7662,2.38537 0.13512,0.0214 0.51767,0.0448 0.84994,0.0521 l 0.60407,0.0134 0.0583,-1.3022 c 0.16579,-3.69633 0.22207,-6.51876 0.13221,-6.63349 -0.0736,-0.0939 -0.86261,-0.12229 -3.35168,-0.12119 z m 3.9184,3.58547 -0.0325,0.22814 c -0.0178,0.12554 -0.008,0.29152 0.0215,0.36867 0.0462,0.12045 1.76257,0.14027 12.15049,0.14027 h 12.096477 l -0.0304,-0.36867 -0.0306,-0.36841 H 83.883626 Z m 1.95786,1.15171 c -1.04718,0.002 -1.728,0.0106 -1.78991,0.0261 -0.1269,0.0318 -0.19685,0.10239 -0.16015,0.16176 0.0441,0.0712 0.7253,0.094 2.10833,0.0707 l 2.04331,-0.0344 0.25421,0.23808 c 0.13982,0.13103 0.2542,0.27728 0.2542,0.32488 0,0.0476 0.17868,0.34937 0.39689,0.67071 l 0.39663,0.58419 h 6.66682 6.66709 l 0.576927,-0.8599 0.5772,-0.85988 2.0116,-0.0266 c 1.14222,-0.0151 2.05347,-0.0682 2.10807,-0.1228 0.0627,-0.0627 -2.10734,-0.0987 -6.237417,-0.10319 -3.48353,-0.004 -8.83251,-0.0279 -11.88634,-0.0535 -1.52691,-0.0128 -2.94028,-0.0179 -3.98746,-0.0161 z m -2.10538,0.76449 -0.004,0.22116 c -0.01,0.57804 -0.18857,4.058 -0.25017,4.86454 l -0.0693,0.90907 h 0.2894 c 0.15913,0 0.68493,-0.0899 1.16864,-0.19965 0.48372,-0.10976 1.12289,-0.24698 1.42016,-0.30501 0.29728,-0.058 0.96044,-0.25952 1.4739,-0.44768 1.45457,-0.53296 3.05968,-0.71871 4.44509,-0.51485 0.75691,0.11139 2.12529,0.72784 2.95022,1.32933 l 0.41732,0.30447 0.54065,-0.41088 c 1.42083,-1.08018 2.30235,-1.37614 4.51791,-1.51636 1.27922,-0.081 1.36143,-0.074 2.425417,0.20046 0.79055,0.2039 1.41653,0.44943 2.21799,0.87038 1.09398,0.5746 1.81585,0.77947 2.7691,0.78599 l 0.28511,0.002 -0.0632,-2.039 c -0.0347,-1.12154 -0.0634,-2.49242 -0.064,-3.04643 l -0.001,-1.00741 h -2.04868 -2.04869 l -0.91067,1.29842 c -0.500817,0.71411 -0.930977,1.35205 -0.956087,1.41749 -0.0251,0.0654 -0.11558,0.14564 -0.201,0.17842 -0.0854,0.0328 -2.83253,0.0577 -6.10467,0.0554 -4.84589,-0.004 -5.98712,-0.029 -6.1533,-0.13785 -0.11222,-0.0735 -0.55357,-0.73635 -0.98055,-1.47282 l -0.77631,-1.33901 h -2.14489 z m 1.9283,1.17241 c 1.23242,-0.003 2.78959,0.0471 2.86746,0.12496 0.12378,0.12376 0.17181,2.08421 0.0583,2.37999 -0.052,0.1355 -0.34851,0.15532 -2.30934,0.15532 h -2.24995 v -1.26699 c 0,-1.06471 0.025,-1.27652 0.15558,-1.32665 0.11607,-0.0446 0.73849,-0.065 1.47794,-0.0666 z m 17.775497,0.0562 h 2.21099 2.21126 v 1.27747 1.27748 l -2.23867,0.0266 -2.2384,0.0263 0.0274,-1.30407 z m 4.08635,0.43774 -1.84661,0.0269 -1.84661,0.0266 -0.0295,0.67823 c -0.0162,0.373 -0.006,0.73872 0.0223,0.81287 0.0418,0.10885 0.39827,0.12965 1.84769,0.10803 l 1.79555,-0.0266 0.0285,-0.81314 z"
       id="path850-3"
       inkscape:connector-curvature="0"
       sodipodi:nodetypes="ccssccccccccccccccccccccscccscccccccccccccccccccccsscsccccccccccccccscsccsccccsccccccccccccccccccccccccccccscccccscccscccccccccccccccccccscccccccccccccccccccccccccccccccccccccccscccccccccccccccscccccccscccccccccsccccccscccscccccsccccccccscccccccccscccscsccccccccsccccccccccccccccccccsccccscccccccccccccccccccsccccccccscscscscccsccccccscccccccccccccccccccccccccscccccccccccccccccccscccccccccccsccccccccccccccccscccccccccccccccccccccccccccccscsccccccccccccccccccccc" />
    <rect
       style="opacity:1;vector-effect:none;fill:none;fill-opacity:1;stroke:#000000;stroke-width:1;stroke-linecap:butt;stroke-linejoin:miter;stroke-miterlimit:4;stroke-dasharray:none;stroke-dashoffset:0;stroke-opacity:1"
       id="rect1036"
       width="71.628235"
       height="50.781212"
       x="95.343613"
       y="17.609394" />
    <path
       style="opacity:1;vector-effect:none;fill:#808000;fill-opacity:0;stroke:#1a1a1a;stroke-width:0.71428573;stroke-linecap:butt;stroke-linejoin:miter;stroke-miterlimit:4;stroke-dasharray:none;stroke-dashoffset:0;stroke-opacity:1"
       d="M -1.779534,100.56605 V 75.714115 h 35.15179 35.15178 v 24.851935 24.85193 h -35.15178 -35.15179 z m 33.98691,21.56547 c 1.22727,-0.82589 2.63615,-1.12431 4.83928,-1.02502 1.51679,0.0684 1.90549,0.1659 3.41265,0.85638 0.96201,0.44073 2.07033,0.80628 2.55134,0.8415 0.77757,0.0569 0.84929,0.0258 0.83695,-0.36296 -0.007,-0.23387 -0.0287,-1.66115 -0.0472,-3.17174 l -0.0337,-2.74652 -2.1238,0.0534 -2.1238,0.0534 -1.00614,1.46465 -1.00614,1.46466 h -6.02636 -6.02637 l -0.45656,-0.61421 c -0.25111,-0.33782 -0.68874,-1.01817 -0.97251,-1.5119 l -0.51596,-0.8977 h -2.14684 -2.14684 l -0.0934,0.61421 c -0.0514,0.33782 -0.14394,1.75126 -0.20569,3.14099 l -0.11227,2.52677 0.89496,-0.13421 c 0.82298,-0.12341 1.82782,-0.37208 4.59592,-1.13736 2.11014,-0.58338 4.28425,-0.24934 6.05368,0.93012 0.3638,0.2425 0.71191,0.41155 0.77358,0.37565 0.0617,-0.0359 0.55007,-0.35997 1.08535,-0.72019 z m -28.92786,-3.04608 c 3.09179,-0.72896 5.45314,-2.7472 6.11458,-5.22612 l 0.23503,-0.88084 -0.93238,-0.91455 -0.93238,-0.91455 h -4.0949 c -2.25219,0 -4.16111,0.0663 -4.24204,0.1473 -0.33312,0.33348 0.97571,6.45462 1.65561,7.74296 0.21183,0.40139 0.64954,0.41052 2.19648,0.0458 z m 15.42047,-0.5919 c 0.0661,-0.48225 0.12018,-2.30686 0.12018,-4.05468 V 111.261 l -0.66138,-0.12407 c -0.36376,-0.0682 -1.90129,-0.092 -3.41674,-0.0528 -2.51102,0.0649 -2.77394,0.1045 -2.96471,0.44624 -0.11514,0.20625 -0.44859,0.58528 -0.74099,0.8423 -0.67049,0.58935 -0.68688,1.27021 -0.0628,2.61068 1.04831,2.25175 4.30154,4.30528 6.92326,4.37015 0.67252,0.0166 0.68486,0.003 0.8032,-0.85993 z m 27.5614,0.66416 c 1.09882,-0.23333 2.92372,-1.08867 3.88222,-1.81962 0.87312,-0.66585 2.04493,-2.50557 2.31622,-3.63643 l 0.23148,-0.96491 -0.82433,-0.79368 -0.82434,-0.79368 h -3.4331 c -1.88821,0 -3.4879,0.0547 -3.55488,0.1216 -0.067,0.0669 -0.0614,1.91661 0.0125,4.1105 l 0.13429,3.98888 h 0.52923 c 0.29107,0 0.97989,-0.0957 1.53071,-0.21266 z m 15.32262,-1.58369 c 0.64948,-2.03756 1.27039,-4.95688 1.27039,-5.97296 v -0.73515 h -3.95807 -3.95806 l -0.32617,0.55216 c -0.17939,0.30368 -0.53391,0.66334 -0.78783,0.79923 -0.41994,0.22474 -0.45181,0.33033 -0.35259,1.1681 0.20314,1.71524 1.72813,3.65685 3.7295,4.74842 1.05215,0.57385 3.07797,1.24254 3.56592,1.17705 0.16901,-0.0227 0.48397,-0.69234 0.81691,-1.73685 z m -22.7957,-0.37667 0.53707,-0.85011 1.79539,-0.003 c 0.98746,-0.002 1.90534,-0.073 2.03973,-0.15824 0.28573,-0.18127 -23.21257,-0.46445 -23.67926,-0.28537 -0.70614,0.27097 0.25159,0.45481 2.16495,0.41556 l 1.97557,-0.0405 0.5445,0.88601 0.5445,0.88602 h 6.77024 6.77024 z m 4.7893,-2.07921 v -0.47247 h -12.18973 c -11.69435,0 -12.18973,0.0141 -12.18973,0.34648 0,0.19056 0.0567,0.40317 0.12599,0.47247 0.0693,0.0693 5.55467,0.12599 12.18973,0.12599 h 12.06374 z m 0,-1.94035 c 0,-3.38292 -0.7494,-11.32852 -1.19616,-12.68253 -0.2576,-0.78069 -0.66494,-0.963426 -3.1678,-1.421115 -0.89301,-0.163301 -2.12615,-0.527886 -2.74033,-0.810192 -1.08381,-0.49817 -1.21962,-0.513566 -4.61297,-0.522999 l -3.49628,-0.0097 -1.41741,0.598183 c -0.96953,0.409165 -2.09904,0.692447 -3.57457,0.896496 -1.37229,0.189772 -2.28044,0.409877 -2.49599,0.604947 -0.34702,0.31406 -0.99418,2.1039 -1.18831,3.28653 -0.17213,1.04858 -0.50581,10.42366 -0.3846,10.80557 0.1044,0.32892 0.66378,0.34473 12.19192,0.34473 h 12.0825 z m -32.95946,-1.32259 c 0.69551,-0.4644 0.68288,-1.73325 -0.0199,-2.00295 -0.50553,-0.19399 -1.32263,-0.13847 -1.56762,0.10652 -0.32753,0.32752 -0.27858,1.29261 0.086,1.69546 0.31599,0.34916 1.11873,0.4566 1.50157,0.20097 z m 43.12277,-0.33855 c 0.60341,-0.42265 0.58013,-1.48206 -0.0415,-1.88938 -0.61984,-0.40614 -1.21534,-0.28711 -1.67843,0.33549 -0.32256,0.43365 -0.34799,0.59003 -0.16224,0.99771 0.35309,0.77494 1.20884,1.02782 1.88219,0.55618 z m -44.93618,-1.9928 c 0.88458,-0.9034 0.94413,-1.02534 0.94599,-1.93713 0.003,-1.52249 0.82404,-5.17172 1.58172,-7.03111 0.37886,-0.92974 1.07965,-2.363356 1.55731,-3.185805 0.85667,-1.475066 0.86447,-1.503731 0.57426,-2.112309 -0.18747,-0.393121 -0.2542,-0.86346 -0.18394,-1.296419 0.1066,-0.656902 0.0449,-0.74562 -1.85732,-2.671008 -1.92757,-1.951048 -1.97896,-1.987212 -2.52754,-1.778646 -0.85994,0.326951 -1.69937,0.0782 -2.33392,-0.691623 -0.30661,-0.371967 -0.63787,-0.626616 -0.73613,-0.565886 -0.37109,0.229346 -2.13701,2.960857 -3.14113,4.858681 -1.13895,2.152653 -2.35169,5.551853 -2.97153,8.328875 -0.29431,1.31858 -0.42026,2.69891 -0.49353,5.40844 l -0.0984,3.63802 h 4.37006 4.37006 z m 10.34803,-2.95742 c 0.16057,-2.96551 0.30657,-4.22097 0.59889,-5.14992 0.48294,-1.53475 0.48386,-1.51191 -0.0608,-1.51191 -0.53243,0 -0.68168,0.30747 -0.68168,1.40435 0,0.44356 -0.055,1.45715 -0.12222,2.2524 l -0.12223,1.44593 h -1.20069 c -0.83227,0 -1.20201,-0.0725 -1.20498,-0.23624 -0.002,-0.12992 0.14167,-1.32055 0.32006,-2.64583 l 0.32435,-2.4096 h 1.54606 c 0.91142,0 1.88551,-0.11985 2.37302,-0.291972 0.45483,-0.160589 1.6774,-0.42455 2.71684,-0.586581 1.08659,-0.169386 2.42549,-0.527257 3.14998,-0.841955 0.92778,-0.402994 1.55918,-0.547346 2.39414,-0.547346 1.85445,0 1.73192,0.275175 1.73192,-3.889502 v -3.660076 l -0.8772,-0.877202 -0.8772,-0.877203 -1.31977,0.130048 c -3.12899,0.308322 -6.63666,1.720316 -9.44629,3.80255 -1.43951,1.066834 -1.46466,1.099706 -1.46466,1.914895 0,1.474862 -0.79437,2.32256 -2.17645,2.32256 -0.47958,0 -1.01452,0.727446 -2.05656,2.796654 -1.2373,2.45696 -1.98644,5.16878 -2.28437,8.26919 l -0.12809,1.33296 0.81864,0.86162 0.81865,0.86162 3.50916,0.026 3.50917,0.026 z m 31.98437,3.60876 c 0,-0.17201 0.35059,-0.64625 0.77909,-1.05388 l 0.7791,-0.74113 -0.13377,-1.53347 c -0.26431,-3.03002 -1.4278,-6.68667 -2.93745,-9.231891 -0.72211,-1.217445 -0.76526,-1.253011 -1.63979,-1.351581 -0.70372,-0.07932 -1.01667,-0.233868 -1.44554,-0.713857 -0.47562,-0.532312 -0.535,-0.722418 -0.45297,-1.450191 0.0934,-0.828953 0.0834,-0.846236 -0.97066,-1.678996 -2.55088,-2.015236 -5.63555,-3.422843 -8.65469,-3.949337 -2.64704,-0.461606 -2.94323,-0.418542 -3.93368,0.571902 l -0.85542,0.855419 v 3.654607 3.654605 l 0.87683,0.120185 c 0.48225,0.0661 1.28796,0.120181 1.79047,0.120181 0.57143,0 1.44674,0.21177 2.33696,0.565404 0.78283,0.310973 2.02862,0.659321 2.76842,0.774102 0.7398,0.114784 1.81572,0.370621 2.39094,0.568524 0.69757,0.239994 1.56422,0.359824 2.60245,0.359824 1.07113,0 1.58475,0.0737 1.64687,0.23624 0.18439,0.48244 0.58185,4.86471 0.45292,4.99364 -0.24331,0.24331 -2.05131,0.11895 -2.22357,-0.15295 -0.0898,-0.14175 -0.17465,-1.02313 -0.18854,-1.95862 -0.0357,-2.40483 -0.1486,-2.82131 -0.78463,-2.89462 -0.47655,-0.0549 -0.51882,-0.007 -0.51882,0.58841 0,0.35652 0.0876,1.10631 0.1946,1.6662 0.26016,1.36093 0.75034,6.03109 0.75034,7.14878 0,0.49129 0.0567,0.94996 0.12599,1.01925 0.0693,0.0693 1.72767,0.12599 3.68527,0.12599 3.18582,0 3.55928,-0.0328 3.55928,-0.31274 z m 11.84915,-3.41977 c -0.16752,-5.04934 -1.11484,-8.872694 -3.25166,-13.123567 -1.01749,-2.024141 -2.71886,-4.72608 -3.13974,-4.986197 -0.12058,-0.07453 -0.35412,0.03642 -0.52275,0.248336 -0.49077,0.616749 -1.09882,0.836546 -1.96564,0.710535 l -0.796,-0.11572 -1.86283,1.877015 c -1.7014,1.714346 -1.85237,1.924648 -1.7421,2.426692 0.0677,0.308089 0.005,0.879131 -0.14212,1.29926 -0.26079,0.743744 -0.25566,0.762095 0.65989,2.355982 1.63478,2.846024 2.60504,5.856164 2.9727,9.222564 0.18763,1.71791 0.21026,1.77609 1.00366,2.58003 l 0.81169,0.82249 4.0431,0.0185 4.0431,0.0186 -0.1113,-3.35454 z m -44.46982,-2.23607 c 0.0631,-0.16441 0.11471,-1.01486 0.11471,-1.88988 v -1.59094 h -0.73492 c -0.83004,0 -0.8355,0.0127 -1.0813,2.50409 l -0.12585,1.27567 h 0.85632 c 0.60652,0 0.88979,-0.0872 0.97104,-0.29894 z m 27.64166,-1.41857 c -0.067,-0.94464 -0.16985,-1.79508 -0.22844,-1.88988 -0.0586,-0.0948 -0.4538,-0.17237 -0.87825,-0.17237 h -0.77172 l 0.12142,1.16165 c 0.0668,0.63891 0.12141,1.48936 0.12141,1.88988 v 0.72823 h 0.87875 0.87875 z m -27.39349,-2.51068 c 0.0562,-0.0562 0.0519,-0.23347 -0.01,-0.39387 -0.0753,-0.19612 -0.36144,-0.29163 -0.8738,-0.29163 -0.69684,0 -0.76188,0.0425 -0.76188,0.49736 0,0.47283 0.038,0.49225 0.77156,0.39386 0.42436,-0.0569 0.81757,-0.14949 0.8738,-0.20572 z m 27.04583,-0.26028 c -0.071,-0.37428 -1.03243,-0.56731 -1.33227,-0.26747 -0.315,0.31499 0.031,0.5982 0.73082,0.5982 0.53044,0 0.65154,-0.0666 0.60145,-0.33073 z m -29.82512,-5.149921 c 0.45407,-0.454065 0.47974,-0.904537 0.0838,-1.469853 -0.35359,-0.504817 -1.41396,-0.574752 -1.86567,-0.123047 -0.67041,0.670417 -0.0558,1.970876 0.93145,1.970876 0.25985,0 0.64256,-0.17009 0.85044,-0.377976 z m 32.72731,0.0652 c 0.38398,-0.347498 0.44853,-1.031663 0.14997,-1.589529 -0.29069,-0.543166 -1.57328,-0.507646 -1.96701,0.05448 -0.40362,0.576249 -0.37086,0.843401 0.16968,1.383948 0.53861,0.538609 1.15654,0.595289 1.64736,0.151106 z m -30.55394,-3.766182 c 2.56739,-2.031918 7.29425,-3.85758 9.98961,-3.858297 0.85139,-2.28e-4 0.97714,-0.06446 1.72864,-0.882949 0.95989,-1.045446 1.03354,-1.375035 1.03636,-4.637895 l 0.002,-2.402297 -0.75595,-0.748435 c -0.60673,-0.600697 -0.75596,-0.88438 -0.75596,-1.437137 0,-0.378786 0.0919,-0.860486 0.2043,-1.070441 0.11237,-0.209957 0.15517,-0.430871 0.0951,-0.490924 -0.21344,-0.213439 -4.30992,0.351274 -6.4273,0.886024 -5.22423,1.3194 -10.15181,3.999968 -14.04124,7.638341 -1.22243,1.143521 -1.40669,1.444574 -0.88415,1.444574 0.16631,0 0.59526,0.292878 0.95322,0.650841 0.55553,0.55553 0.64417,0.764064 0.60523,1.423969 -0.0442,0.748345 0.0172,0.836117 1.9129,2.738331 l 1.95852,1.965206 0.88866,-0.105248 c 0.48877,-0.05789 1.04654,-0.01691 1.23949,0.09108 0.41459,0.232018 0.47789,0.198128 2.25046,-1.204743 z m 34.59963,-3.184562 c -0.14865,-0.792427 0.20641,-1.584891 0.97208,-2.169592 l 0.52501,-0.400915 -1.32292,-1.239774 c -3.68488,-3.453294 -8.08658,-5.951146 -12.94568,-7.346338 -1.99883,-0.573927 -5.69421,-1.234623 -6.90541,-1.234623 -0.41085,0 -0.47834,0.06196 -0.36026,0.330729 0.0799,0.181901 0.18262,0.645756 0.22823,1.030788 0.093,0.784796 -0.44427,1.74113 -1.09396,1.947333 -0.35238,0.111842 -0.37306,0.298651 -0.37306,3.369985 v 3.251581 l 0.66145,0.356219 c 0.36381,0.195918 0.66417,0.406609 0.66747,0.468199 0.003,0.06159 0.11764,0.258958 0.25407,0.438599 0.18204,0.239705 0.73998,0.381471 2.09671,0.532755 3.6735,0.40962 6.98064,1.708724 9.84005,3.86534 1.54327,1.163963 1.65296,1.213824 2.43474,1.10667 0.46436,-0.06365 0.97192,-0.02312 1.17278,0.09366 0.30694,0.178443 0.6152,-0.05681 2.31365,-1.765646 1.8986,-1.910231 1.95565,-1.992146 1.83505,-2.634972 z m -21.01079,0.622887 c 1.10202,-0.502118 0.92892,-2.0951 -0.23992,-2.207855 -1.24315,-0.11992 -1.77811,1.065199 -0.8843,1.959012 0.53657,0.536572 0.50706,0.53004 1.12422,0.248843 z m -22.93133,-0.16959 c 0.25116,-0.134416 0.36555,-0.396322 0.36555,-0.836946 0,-0.783219 -0.41497,-1.235273 -1.13393,-1.235273 -0.68872,0 -1.13393,0.445206 -1.13393,1.13393 0,0.967679 0.96137,1.441863 1.90231,0.938289 z m 46.75141,-0.224388 c 0.39596,-0.565316 0.37029,-1.015788 -0.0838,-1.469855 -0.76366,-0.763662 -2.07887,-0.275413 -2.07887,0.771744 0,0.702903 0.45723,1.118137 1.23121,1.118137 0.44427,0 0.72633,-0.127195 0.93144,-0.420026 z M 32.081706,78.236163 c 0.73308,-0.66343 0.12845,-1.955083 -0.91518,-1.955083 -1.03774,0 -1.57156,1.161716 -0.88329,1.922245 0.38972,0.430636 1.33974,0.447982 1.79847,0.03284 z"
       id="path1800"
       inkscape:connector-curvature="0" />
    <path
       style="opacity:1;vector-effect:none;fill:#ed1b24;fill-opacity:1;stroke:none;stroke-width:0.3714253;stroke-linecap:butt;stroke-linejoin:miter;stroke-miterlimit:4;stroke-dasharray:none;stroke-dashoffset:0;stroke-opacity:1"
       d="m 80.160628,167.25596 c -0.79407,-0.003 -2.56213,0.18476 -4.00117,0.45198 -6.10887,1.13437 -11.73549,4.00179 -16.19035,8.25062 -0.55401,0.52839 -1.00741,0.9913 -1.00741,1.02865 0,0.0373 0.19855,0.12077 0.44123,0.18568 0.56676,0.15158 1.17249,0.7003 1.38388,1.25382 0.15688,0.41075 0.15474,0.59373 -0.014,1.26592 -0.0597,0.2379 0.10432,0.43202 1.83801,2.17874 1.04689,1.05475 1.98164,1.96164 2.07717,2.0151 0.12482,0.0699 0.23444,0.0545 0.39018,-0.0546 0.30914,-0.21654 1.30669,-0.19397 1.7453,0.0395 0.39596,0.21077 0.3566,0.22588 1.13021,-0.4372 1.22751,-1.05213 2.68887,-2.03945 4.04148,-2.73042 0.7082,-0.36177 2.39422,-1.02521 2.93598,-1.15547 0.16215,-0.039 0.64864,-0.1682 1.08104,-0.28699 0.96086,-0.26396 2.29996,-0.49105 2.90992,-0.49336 0.24919,-0.001 0.65384,-0.0292 0.89939,-0.0629 0.40175,-0.0551 0.4639,-0.0995 0.61992,-0.44553 0.16864,-0.37397 0.75987,-0.99352 1.03563,-1.08534 0.11175,-0.0372 0.14258,-0.58133 0.16957,-2.97441 0.0181,-1.61079 0.005,-3.07782 -0.029,-3.26005 -0.0472,-0.25159 -0.13795,-0.3633 -0.37702,-0.46434 -0.40082,-0.16941 -0.79057,-0.5626 -1.00446,-1.01333 -0.22816,-0.48081 -0.16381,-1.36103 0.12952,-1.77298 0.11889,-0.16696 0.21632,-0.33003 0.21632,-0.36223 0,-0.0478 -0.15665,-0.0699 -0.42135,-0.0709 z m 3.733,0.0116 c -0.22727,-0.002 -0.36357,0.0115 -0.36357,0.0446 0,0.0404 0.0966,0.20878 0.21443,0.37432 0.31993,0.4493 0.35444,1.20522 0.0801,1.75148 -0.28217,0.56183 -0.55057,0.85109 -1.00687,1.08508 l -0.36868,0.1889 v 3.18427 3.18428 l 0.36035,0.11904 c 0.46982,0.15505 1.18271,0.81686 1.26027,1.16999 l 0.061,0.27785 1.10012,0.068 c 1.28064,0.079 2.56588,0.27925 3.60614,0.56188 0.40539,0.11014 0.86972,0.23215 1.03187,0.27114 1.09936,0.26431 3.39,1.30756 4.61036,2.09974 1.17484,0.76263 1.81321,1.2395 2.74788,2.05352 0.35765,0.31152 0.33382,0.30697 0.65082,0.12576 0.35,-0.20009 1.32724,-0.18704 1.68162,0.0223 l 0.28699,0.16929 1.919422,-1.91379 c 1.69422,-1.68916 1.91285,-1.94256 1.86087,-2.15939 -0.18372,-0.76621 -0.16988,-1.2724 0.0465,-1.69156 0.27974,-0.54197 0.53522,-0.8141 0.94829,-1.01011 0.18261,-0.0867 0.33213,-0.18985 0.33213,-0.22921 0,-0.18051 -2.39542,-2.36308 -3.58708,-3.26839 -2.316442,-1.75981 -5.466042,-3.53661 -7.763442,-4.37978 -2.57731,-0.9459 -3.96499,-1.32395 -6.43707,-1.7539 -1.09067,-0.1897 -2.5906,-0.33866 -3.27242,-0.3453 z m -1.89363,0.31493 c -0.41575,0.005 -0.79495,0.2203 -0.97437,0.56726 -0.29042,0.5616 -0.10763,1.19373 0.42671,1.47605 0.45926,0.24265 0.86819,0.24556 1.25679,0.009 0.86076,-0.52483 0.50345,-1.90236 -0.52936,-2.04089 -0.0604,-0.008 -0.12038,-0.0117 -0.17977,-0.011 z m 0.2499,10.36757 c -0.55573,0.008 -0.87263,0.22095 -1.08186,0.72607 -0.2202,0.53159 0.13117,1.29127 0.69142,1.49513 0.73315,0.26677 1.5559,-0.49595 1.443,-1.33767 -0.0804,-0.59965 -0.42971,-0.89293 -1.05256,-0.88353 z m 23.174802,0.0301 c -0.37626,0 -0.52982,0.0554 -0.78331,0.28188 -0.27703,0.24753 -0.3152,0.34247 -0.3152,0.78411 0,0.59971 0.25346,0.93497 0.80963,1.07056 1.0593,0.25824 1.82061,-0.61903 1.34143,-1.54565 -0.21636,-0.41841 -0.52327,-0.5909 -1.05255,-0.5909 z m -46.447682,0.002 c -0.49433,-0.003 -0.93506,0.22406 -1.08776,0.5592 -0.24133,0.52966 -0.0437,1.2154 0.4157,1.44192 0.17213,0.0849 0.50429,0.15542 0.73816,0.15666 0.59166,0.003 0.99962,-0.39673 0.99962,-0.97947 0,-0.752 -0.38227,-1.17482 -1.06572,-1.17831 z m -2.14757,1.41801 c -0.008,0.002 -0.0147,0.005 -0.021,0.0121 -0.2818,0.30194 -1.79419,2.50538 -2.28838,3.33395 -0.59857,1.00356 -1.83286,3.452 -2.08657,4.13927 -0.0774,0.20982 -0.2345,0.62469 -0.34907,0.92197 -0.81028,2.10242 -1.4072,4.4545 -1.81947,7.16959 -0.1826,1.20262 -0.30669,4.82627 -0.20287,5.92624 l 0.072,0.76261 4.38919,-0.0255 4.38946,-0.0255 0.16848,-0.34395 c 0.19344,-0.39466 0.8029,-0.96397 1.11625,-1.04261 0.17276,-0.0434 0.22423,-0.14916 0.27382,-0.56189 0.0336,-0.27967 0.0615,-0.77113 0.0621,-1.09232 0.002,-1.13491 0.5799,-4.04789 1.13908,-5.73761 0.40479,-1.2232 1.694,-3.89079 2.39183,-4.9492 l 0.48503,-0.73547 -0.29639,-0.58123 c -0.25101,-0.49225 -0.28825,-0.65654 -0.24238,-1.07271 0.0298,-0.27025 0.0835,-0.59247 0.11931,-0.71613 0.0562,-0.19399 -0.20431,-0.49474 -1.90062,-2.19458 l -1.96565,-1.96995 -0.40146,0.20476 c -1.04452,0.53287 -2.34383,0.0172 -2.80969,-1.1149 -0.0816,-0.1982 -0.16907,-0.31629 -0.22303,-0.30687 z m 27.77198,0.11206 c -0.42507,0.009 -0.57989,0.0923 -0.57989,0.26711 0,0.21762 -0.59936,0.85501 -0.99237,1.05551 l -0.38345,0.19563 v 3.7174 3.71767 l 1.04691,0.064 c 0.57594,0.0353 1.31976,0.064 1.65287,0.064 0.72016,0 1.43836,0.19888 2.31767,0.64169 0.78919,0.39744 1.51158,0.60876 2.35287,0.68819 1.12663,0.10632 2.19555,0.35428 2.7863,0.64625 0.56941,0.28141 0.59272,0.2843 2.33057,0.2843 2.02652,0 1.8989,-0.0656 2.00488,1.03187 0.0366,0.37835 0.10622,0.93102 0.15478,1.22829 0.17053,1.04393 0.38811,3.16458 0.33374,3.25253 -0.0699,0.11301 -2.30752,0.11447 -2.48561,0.002 -0.10115,-0.0641 -0.15382,-0.62149 -0.21954,-2.32385 -0.0875,-2.26573 -0.12636,-2.59184 -0.32407,-2.72208 -0.21137,-0.13925 -0.84987,-0.083 -0.91256,0.0803 -0.0328,0.0855 0.0531,0.78204 0.19079,1.5478 0.35374,1.96726 0.45011,2.68333 0.5643,4.19303 0.0552,0.72967 0.14304,1.61405 0.19509,1.96538 0.0521,0.35132 0.096,0.97044 0.0978,1.37582 0.002,0.40538 0.0301,0.83703 0.0629,0.95931 l 0.0597,0.2225 3.48873,-0.0258 3.488722,-0.0258 0.16016,-0.39421 c 0.24592,-0.60539 0.59685,-1.01075 1.0762,-1.2428 l 0.43639,-0.21121 -0.0621,-0.79567 c -0.27348,-3.51567 -1.11398,-6.53765 -2.5802,-9.27658 -0.50337,-0.9403 -1.149702,-1.93261 -1.332292,-2.04546 -0.0643,-0.0397 -0.34752,-0.0614 -0.62933,-0.0484 -1.39773,0.0647 -2.38214,-1.19721 -2.00193,-2.56623 0.0977,-0.35169 0.0871,-0.37849 -0.28456,-0.71424 -1.5528,-1.40286 -3.88543,-2.82974 -5.91093,-3.61583 -1.59948,-0.62075 -3.2025,-0.97492 -5.19561,-1.14768 -0.28176,-0.0244 -0.51556,-0.0393 -0.70779,-0.0438 -0.0721,-0.002 -0.1384,-0.002 -0.19912,-5.3e-4 z m -5.02606,0.0403 c -0.99416,0 -2.62003,0.25544 -3.80877,0.59844 -2.68163,0.77375 -4.70963,1.83668 -7.05162,3.6959 l -0.9096,0.72204 0.0634,0.68119 c 0.13203,1.42062 -0.7264,2.42151 -2.01106,2.34454 l -0.54845,-0.0331 -0.4106,0.58553 c -0.22588,0.32192 -0.49264,0.74196 -0.59278,0.93352 -0.10014,0.19152 -0.32125,0.59136 -0.49148,0.88864 -0.43699,0.76311 -1.04076,2.22284 -1.443,3.48873 -0.61827,1.94584 -0.93114,3.59691 -1.01548,5.35844 l -0.0637,1.32907 0.24749,0.11286 c 0.39646,0.18064 0.9244,0.69018 1.10146,1.0633 l 0.16365,0.34476 3.4589,-0.0258 3.4589,-0.0258 0.0685,-1.27773 c 0.0377,-0.70266 0.11831,-2.20616 0.17897,-3.34121 0.17895,-3.34839 0.19729,-3.46877 0.75535,-4.94086 0.12862,-0.33926 0.20745,-0.65976 0.17494,-0.71237 -0.0689,-0.11145 -0.63636,-0.12604 -0.79405,-0.0204 -0.0683,0.0458 -0.14465,0.93632 -0.20799,2.43053 -0.055,1.2972 -0.13311,2.43729 -0.17386,2.53345 -0.0664,0.15661 -0.20358,0.17208 -1.31563,0.14752 -1.47246,-0.0325 -1.39623,0.0696 -1.15709,-1.54807 0.0841,-0.56894 0.22432,-1.56507 0.31145,-2.21367 0.0871,-0.64861 0.17956,-1.32323 0.20529,-1.49889 l 0.0468,-0.31921 h 1.73026 c 1.69547,0 1.74242,-0.006 2.32949,-0.27947 0.60679,-0.28299 1.11244,-0.38861 3.12301,-0.65217 1.28014,-0.16781 2.01179,-0.36467 2.62427,-0.70618 0.88881,-0.49561 1.38042,-0.62219 2.41897,-0.62342 0.54051,-5.3e-4 1.14868,-0.0286 1.35137,-0.0621 l 0.36842,-0.061 v -3.7196 -3.71955 l -0.36977,-0.18865 c -0.46468,-0.23706 -0.85053,-0.61882 -1.00715,-0.99693 -0.11798,-0.28485 -0.13842,-0.29237 -0.80883,-0.29237 z m 27.738392,0.31253 c -0.0485,0.0173 -0.1917,0.18543 -0.31816,0.37378 -0.47259,0.70391 -1.45662,0.98126 -2.27252,0.64035 -0.19404,-0.0811 -0.37213,-0.14752 -0.39555,-0.14752 -0.0234,0 -0.89007,0.84815 -1.92615,1.88477 -1.55553,1.55635 -1.87274,1.92037 -1.81974,2.08845 0.19937,0.63218 0.16769,1.21201 -0.0989,1.80603 l -0.26737,0.59574 0.53877,0.81717 c 0.74504,1.13027 1.86444,3.48158 2.3174,4.86777 0.33905,1.03758 0.48098,1.58148 0.80239,3.0741 0.14216,0.66033 0.39178,2.82202 0.39178,3.39334 v 0.50007 l 0.5901,0.38185 c 0.42608,0.27573 0.64699,0.4996 0.79486,0.80507 l 0.20476,0.42295 h 3.96704 3.96677 l 0.0672,-0.35873 c 0.1263,-0.67326 -0.0337,-4.73126 -0.24561,-6.22559 -0.33037,-2.32993 -0.86294,-4.46387 -1.63056,-6.53516 -0.20031,-0.5405 -0.42672,-1.15146 -0.5033,-1.35782 -0.2806,-0.75611 -1.46769,-3.09544 -2.14354,-4.2242 -0.79873,-1.33397 -1.89025,-2.84845 -2.01967,-2.80243 z m -41.330542,4.69928 c -0.62756,0 -0.97909,0.24471 -1.12376,0.78196 -0.12923,0.47992 -0.0185,0.78368 0.40898,1.12055 0.5026,0.39604 1.07817,0.36321 1.52845,-0.0871 0.3186,-0.3186 0.34244,-0.3826 0.29613,-0.79352 -0.0349,-0.31014 -0.13469,-0.53504 -0.32568,-0.7344 -0.2349,-0.24518 -0.34994,-0.28752 -0.78412,-0.28752 z m 32.77062,0 c -0.50891,0 -0.58828,0.0296 -0.81797,0.30257 -0.13994,0.16632 -0.2809,0.4072 -0.31305,0.53529 -0.0927,0.3692 0.13469,0.89765 0.48181,1.12 0.19562,0.1253 0.48064,0.20165 0.75697,0.20261 1.01753,0.004 1.409532,-1.14259 0.66319,-1.93932 -0.16819,-0.17952 -0.31318,-0.22115 -0.77095,-0.22115 z m -17.1494,4.47464 c -2.39381,-0.007 -2.71306,0.0813 -3.67119,0.59628 -0.91628,0.49249 -1.32172,0.61412 -2.57832,0.7739 -3.19144,0.40591 -3.27005,0.42374 -3.65264,0.82308 -0.34827,0.36351 -0.91961,1.98711 -1.04262,2.96285 -0.29884,2.37054 -0.58512,11.08507 -0.36868,11.22262 0.0657,0.0418 5.50379,0.0766 12.0844,0.0774 l 11.96481,0.002 v -0.96816 c 0,-2.14794 -0.46915,-9.11966 -0.682,-10.13648 -0.0509,-0.24323 -0.16773,-0.96618 -0.25985,-1.60638 -0.2534,-1.76097 -0.40778,-1.89297 -2.59605,-2.21932 -1.72185,-0.25678 -2.39025,-0.43445 -3.28773,-0.87413 -1.21856,-0.59699 -1.34297,-0.61389 -4.74927,-0.64518 -0.43456,-0.004 -0.81888,-0.007 -1.16086,-0.008 z m -13.45403,2.15886 c -0.0205,0.24569 -0.0407,0.49139 -0.061,0.73709 h 0.69678 c 0.72801,0 0.76335,-0.0214 0.81259,-0.49148 -0.33598,-0.45299 -0.74153,-0.24561 -1.44837,-0.24561 z m 27.442,0.0575 c -0.25567,0.001 -0.26952,0.0478 -0.26952,0.21632 0,0.12869 0.0295,0.26331 0.0656,0.29935 0.036,0.036 0.3263,0.0656 0.64519,0.0656 0.57451,0 0.57953,-0.003 0.54871,-0.27033 -0.0298,-0.259 -0.0568,-0.27131 -0.64545,-0.29935 -0.14741,-0.007 -0.25927,-0.0119 -0.34449,-0.0115 z m -7.63016,0.86204 c 2.23607,0.003 3.75387,0.017 3.92108,0.0403 0.43856,0.0611 0.60075,0.13967 0.85989,0.41624 l 0.31924,0.34073 v 5.54762 c 0,3.36594 -0.0375,5.64649 -0.0957,5.79941 -0.0527,0.13862 -0.24084,0.34031 -0.41785,0.44822 -0.31626,0.19282 -0.49476,0.1963 -10.29636,0.19053 -5.48609,-0.003 -10.06331,-0.0423 -10.17141,-0.0865 -0.2926,-0.11977 -0.51063,-0.40523 -0.60434,-0.79138 -0.0459,-0.18917 -0.0614,-2.78643 -0.0344,-5.77173 l 0.0492,-5.42804 0.32111,-0.32111 0.32139,-0.32112 9.60442,-0.0492 c 1.3206,-0.007 2.59622,-0.0111 3.77169,-0.0131 0.8816,-0.002 1.70666,-0.002 2.45202,-10e-4 z m -18.47498,0.2018 -0.71747,0.029 -0.71774,0.0288 -0.0277,0.34396 c -0.0152,0.18917 -0.11472,0.9556 -0.22115,1.70312 -0.23324,1.63805 -0.23151,1.51583 -0.0215,1.57037 0.0946,0.0246 0.23086,0.0276 0.30284,0.007 0.072,-0.0206 0.36848,-0.0373 0.65889,-0.0373 0.5202,0 0.52894,-0.005 0.57693,-0.31951 0.0268,-0.17566 0.0752,-0.99573 0.10776,-1.82242 z m 26.77102,0.006 c -0.0749,5.3e-4 -0.16138,0.003 -0.26174,0.003 h -0.68656 l 0.0591,1.30193 c 0.0325,0.71616 0.0826,1.53263 0.11125,1.8141 l 0.0521,0.51163 0.70591,0.0288 c 0.38826,0.0158 0.73901,0.0151 0.77954,-0.002 0.11044,-0.0455 0.0887,-0.62353 -0.0734,-1.93502 -0.20287,-1.6423 -0.1619,-1.72742 -0.6863,-1.723 z m -23.73159,0.19966 -0.32111,0.28672 -0.32085,0.28699 -0.0153,5.23672 c -0.0164,5.59393 7.4e-4,5.82009 0.45764,6.0528 0.19503,0.0994 2.26531,0.1202 10.04484,0.10104 9.2567,-0.0228 9.80895,-0.034 9.9747,-0.19966 0.16349,-0.16347 0.17732,-0.54529 0.20341,-5.60136 0.0154,-2.98437 0.006,-5.51503 -0.0205,-5.62367 -0.0267,-0.10866 -0.17884,-0.27464 -0.33804,-0.36869 -0.26977,-0.15935 -0.94848,-0.1709 -9.97712,-0.1709 z m 31.313652,8.20575 c -0.42225,0 -0.51126,0.0403 -0.81071,0.36706 -0.53843,0.58754 -0.42813,1.21802 0.2894,1.65556 0.3901,0.23785 0.8134,0.23902 1.20009,0.003 0.43547,-0.26555 0.58876,-0.68979 0.43934,-1.2162 -0.15786,-0.55619 -0.50784,-0.80965 -1.11812,-0.80965 z m -43.064552,0.30177 c -0.44955,0 -0.58156,0.0425 -0.79486,0.25582 -0.21128,0.21128 -0.25555,0.34664 -0.25555,0.77793 0,0.47383 0.0327,0.55186 0.3539,0.84618 0.26367,0.24164 0.44421,0.32434 0.7086,0.32434 1.06465,0 1.57798,-1.19724 0.82334,-1.92024 -0.25317,-0.24255 -0.37504,-0.28403 -0.83543,-0.28403 z m 9.43834,5.00546 -0.0325,0.22814 c -0.0178,0.12554 -0.008,0.29153 0.0215,0.36868 0.0462,0.12043 1.76257,0.14025 12.1505,0.14025 h 12.09648 l -0.0304,-0.36866 -0.0306,-0.36841 h -12.08734 z"
       id="path850-3-7-7"
       inkscape:connector-curvature="0"
       sodipodi:nodetypes="ccssccccccccccccccccccccscccscccccccccccccccccccccsscsccccccccccccccscsccsccccsccccccccccccccccccccccccccccscccccscccscccccccccccccccccccscccccccccccccccccccccccccccccccccccccccscccccccccccccccscccccccscccccccccscccsccscccscccccsccccccccscccccccccscccccsccccccccsccccccccccccccccccccsccccccccccccccccccccccccsccscccccscscscscccscccccc"
       inkscape:export-xdpi="79.529999"
       inkscape:export-ydpi="79.529999" />
    <path
       style="opacity:1;vector-effect:none;fill:#ed1b24;fill-opacity:1;stroke:none;stroke-width:0.3714253;stroke-linecap:butt;stroke-linejoin:miter;stroke-miterlimit:4;stroke-dasharray:none;stroke-dashoffset:0;stroke-opacity:1"
       d="m 164.70681,137.99313 c -0.79407,-0.003 -2.56213,0.18476 -4.00117,0.45198 -6.10887,1.13437 -11.73549,4.00179 -16.19035,8.25062 -0.55401,0.52839 -1.00741,0.9913 -1.00741,1.02865 0,0.0373 0.19855,0.12077 0.44123,0.18568 0.56676,0.15158 1.17249,0.7003 1.38388,1.25382 0.15688,0.41075 0.15474,0.59373 -0.014,1.26592 -0.0597,0.2379 0.10432,0.43202 1.83801,2.17874 1.04689,1.05475 1.98164,1.96164 2.07717,2.0151 0.12482,0.0699 0.23444,0.0545 0.39018,-0.0546 0.30914,-0.21654 1.30669,-0.19397 1.7453,0.0395 0.39596,0.21077 0.3566,0.22588 1.13021,-0.4372 1.22751,-1.05213 2.68887,-2.03945 4.04148,-2.73042 0.7082,-0.36177 2.39422,-1.02521 2.93598,-1.15547 0.16215,-0.039 0.64864,-0.1682 1.08104,-0.28699 0.96086,-0.26396 2.29996,-0.49105 2.90992,-0.49336 0.24919,-0.001 0.65384,-0.0292 0.89939,-0.0629 0.40175,-0.0551 0.4639,-0.0995 0.61992,-0.44553 0.16864,-0.37397 0.75987,-0.99352 1.03563,-1.08534 0.11175,-0.0372 0.14258,-0.58133 0.16957,-2.97441 0.0181,-1.61079 0.005,-3.07782 -0.029,-3.26005 -0.0472,-0.25159 -0.13795,-0.3633 -0.37702,-0.46434 -0.40082,-0.16941 -0.79057,-0.5626 -1.00446,-1.01333 -0.22816,-0.48081 -0.16381,-1.36103 0.12952,-1.77298 0.11889,-0.16696 0.21632,-0.33003 0.21632,-0.36223 0,-0.0478 -0.15665,-0.0699 -0.42135,-0.0709 z m 3.733,0.0116 c -0.22727,-0.002 -0.36357,0.0115 -0.36357,0.0446 0,0.0404 0.0966,0.20878 0.21443,0.37432 0.31993,0.4493 0.35444,1.20522 0.0801,1.75148 -0.28217,0.56183 -0.55057,0.85109 -1.00687,1.08508 l -0.36868,0.1889 v 3.18427 3.18428 l 0.36035,0.11904 c 0.46982,0.15505 1.18271,0.81686 1.26027,1.16999 l 0.061,0.27785 1.10012,0.068 c 1.28064,0.079 2.56588,0.27925 3.60614,0.56188 0.40539,0.11014 0.86972,0.23215 1.03187,0.27114 1.09936,0.26431 3.39,1.30756 4.61036,2.09974 1.17484,0.76263 1.81321,1.2395 2.74788,2.05352 0.35765,0.31152 0.33382,0.30697 0.65082,0.12576 0.35,-0.20009 1.32724,-0.18704 1.68162,0.0223 l 0.28699,0.16929 1.91942,-1.91379 c 1.69422,-1.68916 1.91285,-1.94256 1.86087,-2.15939 -0.18372,-0.76621 -0.16988,-1.2724 0.0465,-1.69156 0.27974,-0.54197 0.53522,-0.8141 0.94829,-1.01011 0.18261,-0.0867 0.33213,-0.18985 0.33213,-0.22921 0,-0.18051 -2.39542,-2.36308 -3.58708,-3.26839 -2.31644,-1.75981 -5.46604,-3.53661 -7.76344,-4.37978 -2.57731,-0.9459 -3.96499,-1.32395 -6.43707,-1.7539 -1.09067,-0.1897 -2.5906,-0.33866 -3.27242,-0.3453 z m -1.89363,0.31493 c -0.41575,0.005 -0.79495,0.2203 -0.97437,0.56726 -0.29042,0.5616 -0.10763,1.19373 0.42671,1.47605 0.45926,0.24265 0.86819,0.24556 1.25679,0.009 0.86076,-0.52483 0.50345,-1.90236 -0.52936,-2.04089 -0.0604,-0.008 -0.12038,-0.0117 -0.17977,-0.011 z m 0.2499,10.36757 c -0.55573,0.008 -0.87263,0.22095 -1.08186,0.72607 -0.2202,0.53159 0.13117,1.29127 0.69142,1.49513 0.73315,0.26677 1.5559,-0.49595 1.443,-1.33767 -0.0804,-0.59965 -0.42971,-0.89293 -1.05256,-0.88353 z m 23.1748,0.0301 c -0.37626,0 -0.52982,0.0554 -0.78331,0.28188 -0.27703,0.24753 -0.3152,0.34247 -0.3152,0.78411 0,0.59971 0.25346,0.93497 0.80963,1.07056 1.0593,0.25824 1.82061,-0.61903 1.34143,-1.54565 -0.21636,-0.41841 -0.52327,-0.5909 -1.05255,-0.5909 z m -46.44768,0.002 c -0.49433,-0.003 -0.93506,0.22406 -1.08776,0.5592 -0.24133,0.52966 -0.0437,1.2154 0.4157,1.44192 0.17213,0.0849 0.50429,0.15542 0.73816,0.15666 0.59166,0.003 0.99962,-0.39673 0.99962,-0.97947 0,-0.752 -0.38227,-1.17482 -1.06572,-1.17831 z m -2.14757,1.41801 c -0.008,0.002 -0.0147,0.005 -0.021,0.0121 -0.2818,0.30194 -1.79419,2.50538 -2.28838,3.33395 -0.59857,1.00356 -1.83286,3.452 -2.08657,4.13927 -0.0774,0.20982 -0.2345,0.62469 -0.34907,0.92197 -0.81028,2.10242 -1.4072,4.4545 -1.81947,7.16959 -0.1826,1.20262 -0.30669,4.82627 -0.20287,5.92624 l 0.072,0.76261 4.38919,-0.0255 4.38946,-0.0255 0.16848,-0.34395 c 0.19344,-0.39466 0.8029,-0.96397 1.11625,-1.04261 0.17276,-0.0434 0.22423,-0.14916 0.27382,-0.56189 0.0336,-0.27967 0.0615,-0.77112 0.0621,-1.09232 0.002,-1.1349 0.5799,-4.04789 1.13908,-5.73761 0.40479,-1.2232 1.694,-3.89079 2.39183,-4.9492 l 0.48503,-0.73547 -0.29639,-0.58123 c -0.25101,-0.49225 -0.28825,-0.65654 -0.24238,-1.07271 0.0298,-0.27025 0.0835,-0.59247 0.11931,-0.71613 0.0562,-0.19399 -0.20431,-0.49474 -1.90062,-2.19458 l -1.96565,-1.96995 -0.40146,0.20476 c -1.04452,0.53287 -2.34383,0.0172 -2.80969,-1.1149 -0.0816,-0.1982 -0.16907,-0.31629 -0.22303,-0.30687 z m 27.77198,0.11206 c -0.42507,0.009 -0.57989,0.0923 -0.57989,0.26711 0,0.21762 -0.59936,0.85501 -0.99237,1.05551 l -0.38345,0.19563 v 3.7174 3.71767 l 1.04691,0.064 c 0.57594,0.0353 1.31976,0.064 1.65287,0.064 0.72016,0 1.43836,0.19888 2.31767,0.64169 0.78919,0.39744 1.51158,0.60876 2.35287,0.68819 1.12663,0.10632 2.19555,0.35428 2.7863,0.64625 0.56941,0.28141 0.59272,0.2843 2.33057,0.2843 2.02652,0 1.8989,-0.0656 2.00488,1.03187 0.0366,0.37835 0.10622,0.93102 0.15478,1.22829 0.17053,1.04393 0.38811,3.16458 0.33374,3.25253 -0.0699,0.11301 -2.30752,0.11447 -2.48561,0.002 -0.10115,-0.0641 -0.15382,-0.62149 -0.21954,-2.32385 -0.0875,-2.26573 -0.12636,-2.59184 -0.32407,-2.72208 -0.21137,-0.13925 -0.84987,-0.083 -0.91256,0.0803 -0.0328,0.0855 0.0531,0.78204 0.19079,1.5478 0.35374,1.96726 0.45011,2.68333 0.5643,4.19303 0.0552,0.72967 0.14304,1.61405 0.19509,1.96538 0.0521,0.35132 0.096,0.97044 0.0978,1.37582 0.002,0.40538 0.0301,0.83703 0.0629,0.95931 l 0.0597,0.2225 3.48873,-0.0258 3.48872,-0.0258 0.16016,-0.39421 c 0.24592,-0.60539 0.59685,-1.01075 1.0762,-1.2428 l 0.43639,-0.21121 -0.0621,-0.79567 c -0.27348,-3.51567 -1.11398,-6.53765 -2.5802,-9.27658 -0.50337,-0.9403 -1.1497,-1.93261 -1.33229,-2.04546 -0.0643,-0.0397 -0.34752,-0.0614 -0.62933,-0.0484 -1.39773,0.0647 -2.38214,-1.19721 -2.00193,-2.56623 0.0977,-0.35169 0.0871,-0.37849 -0.28456,-0.71424 -1.5528,-1.40286 -3.88543,-2.82974 -5.91093,-3.61583 -1.59948,-0.62075 -3.2025,-0.97492 -5.19561,-1.14768 -0.28176,-0.0244 -0.51556,-0.0393 -0.70779,-0.0438 -0.0721,-0.002 -0.1384,-0.002 -0.19912,-5.3e-4 z m -5.02606,0.0403 c -0.99416,0 -2.62003,0.25544 -3.80877,0.59844 -2.68163,0.77375 -4.70963,1.83668 -7.05162,3.6959 l -0.9096,0.72204 0.0634,0.68119 c 0.13203,1.42062 -0.7264,2.42151 -2.01106,2.34454 l -0.54845,-0.0331 -0.4106,0.58553 c -0.22588,0.32192 -0.49264,0.74196 -0.59278,0.93352 -0.10014,0.19152 -0.32125,0.59136 -0.49148,0.88864 -0.43699,0.76311 -1.04076,2.22284 -1.443,3.48873 -0.61827,1.94584 -0.93114,3.59691 -1.01548,5.35844 l -0.0637,1.32907 0.24749,0.11286 c 0.39646,0.18064 0.9244,0.69018 1.10146,1.0633 l 0.16365,0.34476 3.4589,-0.0258 3.4589,-0.0258 0.0685,-1.27773 c 0.0377,-0.70266 0.11831,-2.20616 0.17897,-3.34121 0.17895,-3.34839 0.19729,-3.46877 0.75535,-4.94086 0.12862,-0.33926 0.20745,-0.65976 0.17494,-0.71237 -0.0689,-0.11145 -0.63636,-0.12604 -0.79405,-0.0204 -0.0683,0.0458 -0.14465,0.93632 -0.20799,2.43053 -0.055,1.2972 -0.13311,2.43729 -0.17386,2.53345 -0.0664,0.15661 -0.20358,0.17208 -1.31563,0.14752 -1.47246,-0.0325 -1.39623,0.0696 -1.15709,-1.54807 0.0841,-0.56894 0.22432,-1.56507 0.31145,-2.21367 0.0871,-0.64861 0.17956,-1.32323 0.20529,-1.49889 l 0.0468,-0.31921 h 1.73026 c 1.69547,0 1.74242,-0.006 2.32949,-0.27947 0.60679,-0.28299 1.11244,-0.38861 3.12301,-0.65217 1.28014,-0.16781 2.01179,-0.36467 2.62427,-0.70618 0.88881,-0.49561 1.38042,-0.62219 2.41897,-0.62342 0.54051,-5.3e-4 1.14868,-0.0286 1.35137,-0.0621 l 0.36842,-0.061 v -3.7196 -3.71955 l -0.36977,-0.18865 c -0.46468,-0.23706 -0.85053,-0.61882 -1.00715,-0.99693 -0.11798,-0.28485 -0.13842,-0.29237 -0.80883,-0.29237 z m 27.73839,0.31253 c -0.0485,0.0173 -0.1917,0.18543 -0.31816,0.37378 -0.47259,0.70391 -1.45662,0.98126 -2.27252,0.64035 -0.19404,-0.0811 -0.37213,-0.14752 -0.39555,-0.14752 -0.0234,0 -0.89007,0.84815 -1.92615,1.88477 -1.55553,1.55635 -1.87274,1.92037 -1.81974,2.08845 0.19937,0.63218 0.16769,1.21201 -0.0989,1.80603 l -0.26737,0.59574 0.53877,0.81717 c 0.74504,1.13027 1.86444,3.48158 2.3174,4.86777 0.33905,1.03758 0.48098,1.58148 0.80239,3.0741 0.14216,0.66033 0.39178,2.82202 0.39178,3.39334 v 0.50008 l 0.5901,0.38185 c 0.42608,0.27573 0.64699,0.4996 0.79486,0.80507 l 0.20476,0.42295 h 3.96704 3.96677 l 0.0672,-0.35873 c 0.1263,-0.67326 -0.0337,-4.73126 -0.24561,-6.22559 -0.33037,-2.32993 -0.86294,-4.46387 -1.63056,-6.53516 -0.20031,-0.5405 -0.42672,-1.15146 -0.5033,-1.35782 -0.28059,-0.75611 -1.46769,-3.09544 -2.14354,-4.2242 -0.79873,-1.33397 -1.89025,-2.84845 -2.01967,-2.80243 z m -41.33054,4.69928 c -0.62756,0 -0.97909,0.24471 -1.12376,0.78196 -0.12923,0.47992 -0.0185,0.78368 0.40898,1.12055 0.5026,0.39604 1.07817,0.36321 1.52845,-0.0871 0.3186,-0.3186 0.34244,-0.3826 0.29613,-0.79352 -0.0349,-0.31014 -0.13469,-0.53504 -0.32568,-0.7344 -0.2349,-0.24518 -0.34994,-0.28752 -0.78412,-0.28752 z m 32.77062,0 c -0.50891,0 -0.58828,0.0296 -0.81797,0.30257 -0.13994,0.16632 -0.2809,0.4072 -0.31305,0.53529 -0.0927,0.3692 0.13469,0.89765 0.48181,1.12 0.19562,0.1253 0.48064,0.20165 0.75697,0.20261 1.01753,0.004 1.40953,-1.14259 0.66319,-1.93932 -0.16819,-0.17952 -0.31318,-0.22115 -0.77095,-0.22115 z m -17.1494,4.47464 c -2.39381,-0.007 -2.71306,0.0813 -3.67119,0.59628 -0.91628,0.49249 -1.32172,0.61412 -2.57832,0.7739 -3.19144,0.40591 -3.27005,0.42374 -3.65264,0.82308 -0.34827,0.36351 -0.91961,1.98711 -1.04262,2.96285 -0.29884,2.37054 -0.58512,11.08507 -0.36868,11.22262 0.0657,0.0418 5.50379,0.0766 12.0844,0.0774 l 11.96481,0.002 v -0.96815 c 0,-2.14794 -0.46915,-9.11967 -0.682,-10.13649 -0.0509,-0.24322 -0.16773,-0.96618 -0.25985,-1.60638 -0.2534,-1.76097 -0.40778,-1.89297 -2.59605,-2.21932 -1.72185,-0.25678 -2.39025,-0.43445 -3.28773,-0.87413 -1.21856,-0.59699 -1.34297,-0.61389 -4.74927,-0.64518 -0.43456,-0.004 -0.81888,-0.007 -1.16086,-0.008 z m -13.45403,2.15886 c -0.0205,0.24569 -0.0407,0.49139 -0.061,0.73709 h 0.69678 c 0.72801,0 0.76335,-0.0214 0.81259,-0.49148 -0.33598,-0.45299 -0.74153,-0.24561 -1.44837,-0.24561 z m 27.442,0.0575 c -0.25567,10e-4 -0.26952,0.0478 -0.26952,0.21632 0,0.12869 0.0295,0.26331 0.0656,0.29935 0.036,0.036 0.3263,0.0656 0.64519,0.0656 0.57451,0 0.57953,-0.003 0.54871,-0.27033 -0.0298,-0.259 -0.0568,-0.27131 -0.64545,-0.29935 -0.14741,-0.007 -0.25927,-0.0119 -0.34449,-0.0115 z m -7.63016,0.86204 c 2.23607,0.003 3.75387,0.017 3.92108,0.0403 0.43856,0.0611 0.60075,0.13967 0.85989,0.41624 l 0.31924,0.34073 v 5.54762 c 0,3.36594 -0.0375,5.64649 -0.0957,5.79941 -0.0527,0.13862 -0.24084,0.34031 -0.41785,0.44822 -0.31626,0.19282 -0.49476,0.1963 -10.29636,0.19053 -5.48609,-0.003 -10.06331,-0.0423 -10.17141,-0.0865 -0.2926,-0.11977 -0.51063,-0.40523 -0.60434,-0.79138 -0.0459,-0.18917 -0.0614,-2.78643 -0.0344,-5.77173 l 0.0492,-5.42804 0.32111,-0.32111 0.32139,-0.32112 9.60442,-0.0492 c 1.3206,-0.007 2.59622,-0.0111 3.77169,-0.0131 0.8816,-0.002 1.70666,-0.002 2.45202,-0.001 z m -18.47498,0.2018 -0.71747,0.029 -0.71774,0.0288 -0.0277,0.34396 c -0.0152,0.18917 -0.11472,0.9556 -0.22115,1.70312 -0.23324,1.63805 -0.23151,1.51583 -0.0215,1.57037 0.0946,0.0246 0.23086,0.0276 0.30284,0.007 0.072,-0.0206 0.36848,-0.0373 0.65889,-0.0373 0.5202,0 0.52894,-0.005 0.57693,-0.31951 0.0268,-0.17566 0.0752,-0.99573 0.10776,-1.82242 z m 26.77102,0.006 c -0.0749,5.3e-4 -0.16138,0.003 -0.26174,0.003 h -0.68656 l 0.0591,1.30193 c 0.0325,0.71616 0.0826,1.53263 0.11125,1.8141 l 0.0521,0.51163 0.70591,0.0288 c 0.38826,0.0158 0.73901,0.0151 0.77954,-0.002 0.11044,-0.0455 0.0887,-0.62353 -0.0734,-1.93502 -0.20287,-1.6423 -0.1619,-1.72742 -0.6863,-1.723 z m -23.73159,0.19966 -0.32111,0.28672 -0.32085,0.28699 -0.0153,5.23672 c -0.0164,5.59393 7.4e-4,5.82009 0.45764,6.0528 0.19503,0.0994 2.26531,0.1202 10.04484,0.10104 9.2567,-0.0228 9.80895,-0.034 9.9747,-0.19966 0.16349,-0.16347 0.17732,-0.54529 0.20341,-5.60136 0.0154,-2.98437 0.006,-5.51503 -0.0205,-5.62367 -0.0267,-0.10866 -0.17884,-0.27464 -0.33804,-0.36869 -0.26977,-0.15935 -0.94848,-0.1709 -9.97712,-0.1709 z m 31.31365,8.20575 c -0.42225,0 -0.51126,0.0403 -0.81071,0.36706 -0.53843,0.58754 -0.42813,1.21802 0.2894,1.65556 0.3901,0.23785 0.8134,0.23902 1.20009,0.003 0.43547,-0.26555 0.58876,-0.68979 0.43934,-1.2162 -0.15786,-0.5562 -0.50784,-0.80966 -1.11812,-0.80966 z m -43.06455,0.30177 c -0.44955,0 -0.58156,0.0425 -0.79486,0.25582 -0.21128,0.21128 -0.25555,0.34664 -0.25555,0.77793 0,0.47383 0.0327,0.55186 0.3539,0.84618 0.26367,0.24164 0.44421,0.32434 0.7086,0.32434 1.06465,0 1.57798,-1.19724 0.82334,-1.92024 -0.25317,-0.24255 -0.37504,-0.28403 -0.83543,-0.28403 z m 9.43834,5.00546 -0.0325,0.22814 c -0.0178,0.12554 -0.008,0.29153 0.0215,0.36868 0.0462,0.12043 1.76257,0.14025 12.1505,0.14025 h 12.09648 l -0.0304,-0.36866 -0.0306,-0.36841 h -12.08734 z"
       id="path850-3-7-7-0"
       inkscape:connector-curvature="0"
       sodipodi:nodetypes="ccssccccccccccccccccccccscccscccccccccccccccccccccsscsccccccccccccccscsccsccccsccccccccccccccccccccccccccccscccccscccscccccccccccccccccccscccccccccccccccccccccccccccccccccccccccscccccccccccccccscccccccscccccccccscccsccscccscccccsccccccccscccccccccscccccsccccccccsccccccccccccccccccccsccccccccccccccccccccccccsccscccccscscscscccscccccc"
       inkscape:export-xdpi="79.529999"
       inkscape:export-ydpi="79.529999" />
    <path
       style="opacity:0.047;vector-effect:none;fill:#000000;fill-opacity:1;stroke:#1a1a1a;stroke-width:1.34983134;stroke-linecap:butt;stroke-linejoin:miter;stroke-miterlimit:4;stroke-dasharray:none;stroke-dashoffset:0;stroke-opacity:1"
       d="M 631.07031 604.1543 C 618.92 604.15129 617.84487 604.29294 613.76562 606.45703 C 610.49588 608.19169 608.72186 608.63631 600.90625 609.67578 C 592.21891 610.8312 591.66434 610.99251 590.4082 612.72656 C 589.13599 614.48279 587.26476 620.07757 586.80469 623.5 C 585.93293 629.98479 584.60706 662.53018 585.13086 664.58398 C 585.37574 665.54413 585.40957 665.5543 588.85547 665.66992 C 590.76869 665.73411 611.19691 665.82023 634.25195 665.86133 L 676.17188 665.93555 L 675.93555 660.31055 C 675.20591 642.89365 674.21052 629.87043 673.00977 622.00781 C 671.87164 614.55531 671.59036 613.47981 670.45898 612.2832 C 669.27926 611.03547 668.46158 610.78579 661.97656 609.67969 C 655.18417 608.52116 654.51665 608.33921 650.19141 606.46094 C 648.22712 605.60793 645.57562 604.74027 644.29883 604.5332 C 643.02205 604.32613 637.06921 604.1553 631.07031 604.1543 z M 580.32422 612.05859 C 580.04473 612.05106 579.71415 612.06108 579.31836 612.08203 C 577.36617 612.18538 577.33278 612.20554 577.22266 613.34766 L 577.11133 614.50781 L 579.5957 614.50781 C 582.35239 614.50781 583.07228 613.93195 581.91602 612.6543 C 581.5486 612.24828 581.16269 612.08119 580.32422 612.05859 z M 681.5918 612.36523 C 680.14677 612.36523 680.01367 612.44015 680.01367 613.25781 C 680.01367 614.11097 680.10863 614.15039 682.15625 614.15039 C 684.02064 614.15039 684.29883 614.06283 684.29883 613.47461 C 684.29883 612.63954 683.62959 612.36523 681.5918 612.36523 z M 650.68359 615.46289 C 666.36975 615.45901 668.02997 615.58707 668.82031 616.01953 C 669.44136 616.35936 670.29776 617.07897 670.72266 617.61914 L 671.49609 618.60156 L 671.37891 639.85742 C 671.25173 663.16049 671.33158 662.35809 669.08008 663.29883 C 668.06321 663.72371 664.10175 663.83293 646.51953 663.92773 C 621.5042 664.06258 591.81282 663.73897 591.17188 663.32422 C 590.92495 663.16444 590.44197 662.52241 590.09961 661.89648 C 589.52529 660.8464 589.48302 659.10318 589.54102 639.36133 L 589.60352 617.96484 L 590.79102 616.78711 L 591.97656 615.60742 L 629.83398 615.50391 C 638.66641 615.47986 645.45487 615.46418 650.68359 615.46289 z M 582.00781 616.46289 C 581.99078 616.45823 580.84127 616.51158 579.45312 616.58008 L 576.92969 616.70508 L 576.08789 623.13477 C 575.46058 627.92321 575.35001 629.63179 575.6582 629.82227 C 576.15161 630.12721 580.79147 629.89523 581.16797 629.54688 C 581.36196 629.36738 582.18712 616.51199 582.00781 616.46289 z M 683.25781 616.4668 C 682.85303 616.44416 682.37147 616.47101 681.79688 616.53906 L 679.91797 616.76172 L 680.15234 621.4375 C 680.28046 624.00973 680.48068 626.95898 680.59766 627.99023 L 680.81055 629.86523 L 683.625 629.86523 C 686.07254 629.86523 686.44141 629.7834 686.44141 629.23828 C 686.44141 628.42911 685.44753 619.68693 685.18359 618.17383 C 684.98635 617.04308 684.47217 616.5347 683.25781 616.4668 z M 593.44531 617.36523 L 592.44336 618.32422 L 591.44141 619.28516 L 591.45117 638.77148 C 591.45586 649.48919 591.60617 658.89727 591.78711 659.67773 C 591.96806 660.45819 592.39725 661.30194 592.74023 661.55273 C 593.23626 661.91542 600.68244 662.00781 629.13867 662.00781 C 648.81478 662.00781 665.66467 661.9053 666.58398 661.7793 C 667.713 661.62455 668.3766 661.3252 668.62695 660.85742 C 669.0622 660.04413 669.55194 621.86182 669.1543 619.74219 C 668.6848 617.23954 670.75814 617.36523 629.95508 617.36523 L 593.44531 617.36523 z M 585.01367 668.43555 L 585.01367 669.29883 C 585.01367 669.77353 585.21344 670.24465 585.45898 670.34375 C 585.70451 670.44283 606.29461 670.53528 631.21484 670.55078 L 676.52539 670.58008 L 676.31055 669.77539 C 676.19211 669.33342 676.09284 668.8524 676.08984 668.70508 C 676.08716 668.55776 655.59348 668.43555 630.54883 668.43555 L 585.01367 668.43555 z "
       transform="scale(0.26458333)"
       id="path1929" />
  </g>
</svg>
