<?xml version="1.0" encoding="UTF-8" standalone="no"?>
<!-- Created with Inkscape (http://www.inkscape.org/) -->

<svg
   xmlns:dc="http://purl.org/dc/elements/1.1/"
   xmlns:cc="http://creativecommons.org/ns#"
   xmlns:rdf="http://www.w3.org/1999/02/22-rdf-syntax-ns#"
   xmlns:svg="http://www.w3.org/2000/svg"
   xmlns="http://www.w3.org/2000/svg"
   xmlns:sodipodi="http://sodipodi.sourceforge.net/DTD/sodipodi-0.dtd"
   xmlns:inkscape="http://www.inkscape.org/namespaces/inkscape"
   width="283.13925"
   height="236.81837"
   viewBox="0 0 74.913929 62.658197"
   version="1.1"
   id="svg2101"
   inkscape:version="0.92.3 (2405546, 2018-03-11)"
   sodipodi:docname="heartlogo.svg"
   inkscape:export-filename="/home/michaelb/projects/pta/static/images/heartlogo.svg.png"
   inkscape:export-xdpi="72.417992"
   inkscape:export-ydpi="72.417992">
  <defs
     id="defs2095" />
  <sodipodi:namedview
     id="base"
     pagecolor="#ffffff"
     bordercolor="#666666"
     borderopacity="1.0"
     inkscape:pageopacity="0.0"
     inkscape:pageshadow="2"
     inkscape:zoom="1.979899"
     inkscape:cx="211.49661"
     inkscape:cy="122.58249"
     inkscape:document-units="mm"
     inkscape:current-layer="layer1"
     showgrid="false"
     inkscape:window-width="1920"
     inkscape:window-height="1008"
     inkscape:window-x="0"
     inkscape:window-y="32"
     inkscape:window-maximized="1"
     fit-margin-top="1"
     fit-margin-left="1"
     fit-margin-right="1"
     fit-margin-bottom="1"
     units="px" />
  <metadata
     id="metadata2098">
    <rdf:RDF>
      <cc:Work
         rdf:about="">
        <dc:format>image/svg+xml</dc:format>
        <dc:type
           rdf:resource="http://purl.org/dc/dcmitype/StillImage" />
        <dc:title></dc:title>
      </cc:Work>
    </rdf:RDF>
  </metadata>
  <g
     inkscape:label="Layer 1"
     inkscape:groupmode="layer"
     id="layer1"
     transform="translate(-21.360665,-20.682877)">
    <g
       transform="matrix(0.45141809,0,0,0.45141809,-1248.4152,-225.12141)"
       id="g2030">
      <g
         id="g1611-1-7"
         transform="translate(805.30687,-728.86344)">
        <path
           inkscape:connector-curvature="0"
           id="path2546-3-4-3-0-0-2-9-0-1-6-3-3-2-4"
           d="m 2120.6742,1311.2661 c -8.5629,-0.019 -16.5073,8.2522 -17.1106,18.3619 -0.6237,5.8794 1.0797,11.874 4.4829,16.2295 9.1222,14.135 17.6104,28.8759 26.9605,42.7789 9.5671,-15.2453 18.9163,-30.7289 28.6062,-45.865 2.8947,-5.5275 3.5965,-12.5672 1.4384,-18.6042 -1.8058,-4.9844 -5.3321,-9.2995 -9.6256,-11.3645 -6.6763,-3.2525 -14.939,-1.1795 -19.6736,5.3141 -1.0953,2.0978 -2.224,-1.1754 -3.3955,-1.9003 -3.2217,-3.2333 -7.4325,-5.0705 -11.6827,-4.9504 z"
           style="opacity:1;vector-effect:none;fill:#ed1b24;fill-opacity:1;stroke:#000000;stroke-width:13.14286232;stroke-linecap:butt;stroke-linejoin:miter;stroke-miterlimit:4;stroke-dasharray:none;stroke-dashoffset:0;stroke-opacity:1;paint-order:markers stroke fill" />
        <path
           inkscape:connector-curvature="0"
           id="path3251-6-7-9-4-0-7-6-7-0-0"
           d="m 2040.4008,1278.702 c -1.6926,0.04 -3.4994,0.091 -5.0928,0.4853 0.5229,2.5408 0.4861,5.2099 0.5764,7.7302 10.655,-0.2211 21.4338,0.3053 31.6951,3.3809 8.2977,2.5393 17.1002,6.1639 22.2481,13.5144 2.6217,3.706 2.6522,8.9392 -0.2122,12.5337 -1.4827,2.2416 -3.4506,4.1408 -5.5375,5.763 1.0227,2.5479 1.6384,5.2529 2.0428,7.9263 1.4492,-0.084 2.6438,-1.7765 3.8917,-2.5226 6.1345,-4.5327 10.7319,-12.0354 9.6302,-19.878 -1.1224,-9.0392 -8.7103,-15.5426 -16.2986,-19.6002 -13.1173,-7.0452 -28.2354,-9.1494 -42.9432,-9.333 z"
           style="opacity:1;vector-effect:none;fill:#000000;fill-opacity:1;stroke:none;stroke-width:8.13126659;stroke-linecap:butt;stroke-linejoin:miter;stroke-miterlimit:4;stroke-dasharray:none;stroke-dashoffset:0;stroke-opacity:1;paint-order:markers stroke fill" />
        <path
           inkscape:connector-curvature="0"
           id="path3257-0-6-1-8-4-5-0-5-7-6"
           d="m 2044.3334,1335.2774 c -6.4384,2.3133 -13.1533,5.2466 -17.6145,10.6323 -2.9197,3.8369 -4.0291,9.1791 -1.7761,13.6108 2.0475,3.7778 3.7174,5.6854 9.0629,8.9943 5.3456,3.3089 80.2706,39.985 80.2706,39.985 0,0 -4.1584,-12.5178 8.6413,-22.358 -37.329,-8.3923 -37.5562,-7.5858 -55.6912,-13.6129 -11.494,-3.8199 -27.8381,-9.0278 -33.4399,-14.2164 -1.9608,-1.7404 -2.8723,-4.8441 -0.9958,-6.9914 3.1379,-4.2997 8.5082,-6.1017 13.2215,-8.1279 1.5183,-0.603 3.2641,-0.8856 4.6542,-1.5982 -1.3422,-2.3188 -2.2323,-4.9178 -3.1059,-7.3709 -1.0757,0.3511 -2.1514,0.7022 -3.2271,1.0533 z"
           style="opacity:1;vector-effect:none;fill:#000000;fill-opacity:1;stroke:none;stroke-width:8.13126659;stroke-linecap:butt;stroke-linejoin:miter;stroke-miterlimit:4;stroke-dasharray:none;stroke-dashoffset:0;stroke-opacity:1;paint-order:markers stroke fill"
           sodipodi:nodetypes="cccsccacccccc" />
        <circle
           style="opacity:1;vector-effect:none;fill:#000000;fill-opacity:1;stroke:none;stroke-width:5.71451998;stroke-linecap:butt;stroke-linejoin:miter;stroke-miterlimit:4;stroke-dasharray:none;stroke-dashoffset:0;stroke-opacity:1;paint-order:markers stroke fill"
           id="path3320-6-3-9-4-2-5-2-9-3-4"
           cx="2067.4468"
           cy="1333.2727"
           r="10.880459" />
        <circle
           style="opacity:1;vector-effect:none;fill:#000000;fill-opacity:1;stroke:none;stroke-width:5.71451998;stroke-linecap:butt;stroke-linejoin:miter;stroke-miterlimit:4;stroke-dasharray:none;stroke-dashoffset:0;stroke-opacity:1;paint-order:markers stroke fill"
           id="path3320-0-2-2-1-2-2-6-6-2-1-7"
           cx="2019.0197"
           cy="1284.8458"
           r="10.880459" />
        <circle
           style="opacity:1;vector-effect:none;fill:#000000;fill-opacity:1;stroke:none;stroke-width:5.71451998;stroke-linecap:butt;stroke-linejoin:miter;stroke-miterlimit:4;stroke-dasharray:none;stroke-dashoffset:0;stroke-opacity:1;paint-order:markers stroke fill"
           id="path3320-0-4-6-1-0-9-0-2-1-2-1-4"
           cx="2134.8896"
           cy="1400.7157"
           r="10.880459" />
      </g>
    </g>
  </g>
</svg>
