<?xml version="1.0" encoding="UTF-8" standalone="no"?>
<!-- Created with Inkscape (http://www.inkscape.org/) -->

<svg
   xmlns:dc="http://purl.org/dc/elements/1.1/"
   xmlns:cc="http://creativecommons.org/ns#"
   xmlns:rdf="http://www.w3.org/1999/02/22-rdf-syntax-ns#"
   xmlns:svg="http://www.w3.org/2000/svg"
   xmlns="http://www.w3.org/2000/svg"
   xmlns:sodipodi="http://sodipodi.sourceforge.net/DTD/sodipodi-0.dtd"
   xmlns:inkscape="http://www.inkscape.org/namespaces/inkscape"
   width="283.13925"
   height="236.81837"
   viewBox="0 0 74.913929 62.658197"
   version="1.1"
   id="svg2101"
   inkscape:version="0.92.3 (2405546, 2018-03-11)"
   sodipodi:docname="heartlogo.svg"
   inkscape:export-filename="/home/michaelb/projects/pta/static/images/heartlogo.svg.png"
   inkscape:export-xdpi="72.417992"
   inkscape:export-ydpi="72.417992">
  <defs
     id="defs2095" />
  <sodipodi:namedview
     id="base"
     pagecolor="#ffffff"
     bordercolor="#666666"
     borderopacity="1.0"
     inkscape:pageopacity="0.0"
     inkscape:pageshadow="2"
     inkscape:zoom="0.9899495"
     inkscape:cx="462.91221"
     inkscape:cy="98.873515"
     inkscape:document-units="mm"
     inkscape:current-layer="layer1"
     showgrid="false"
     inkscape:window-width="1920"
     inkscape:window-height="1008"
     inkscape:window-x="0"
     inkscape:window-y="32"
     inkscape:window-maximized="1"
     fit-margin-top="1"
     fit-margin-left="1"
     fit-margin-right="1"
     fit-margin-bottom="1"
     units="px"
     inkscape:measure-start="0,0"
     inkscape:measure-end="0,0" />
  <metadata
     id="metadata2098">
    <rdf:RDF>
      <cc:Work
         rdf:about="">
        <dc:format>image/svg+xml</dc:format>
        <dc:type
           rdf:resource="http://purl.org/dc/dcmitype/StillImage" />
        <dc:title />
      </cc:Work>
    </rdf:RDF>
  </metadata>
  <g
     inkscape:label="Layer 1"
     inkscape:groupmode="layer"
     id="layer1"
     transform="translate(-21.360665,-20.682877)">
    <path
       inkscape:connector-curvature="0"
       id="path2546-3-4-3-0-0-2-9-0-1-6-3-3-2-4"
       d="m 72.425587,37.785688 c -3.865448,-0.0086 -7.451694,3.725193 -7.724034,8.288894 -0.28155,2.654068 0.487396,5.360139 2.023662,7.32629 4.117926,6.380795 7.949653,13.035104 12.170457,19.311169 4.318762,-6.882004 8.53916,-13.871581 12.913356,-20.70429 1.30672,-2.495214 1.623525,-5.673062 0.64932,-8.398273 -0.815171,-2.250048 -2.407006,-4.197962 -4.34517,-5.130141 -3.013803,-1.468237 -6.743735,-0.532447 -8.881019,2.398881 -0.494438,0.946985 -1.003954,-0.530597 -1.53279,-0.85783 -1.454334,-1.45957 -3.355165,-2.288915 -5.273782,-2.2347 z"
       style="opacity:1;vector-effect:none;fill:#ed1b24;fill-opacity:1;stroke:#000000;stroke-width:5.9329257;stroke-linecap:butt;stroke-linejoin:miter;stroke-miterlimit:4;stroke-dasharray:none;stroke-dashoffset:0;stroke-opacity:1;paint-order:markers stroke fill" />
    <path
       inkscape:connector-curvature="0"
       id="path3251-6-7-9-4-0-7-6-7-0-0"
       d="m 36.188722,23.085665 c -0.76407,0.01806 -1.579692,0.04108 -2.298982,0.219073 0.236046,1.146963 0.219434,2.351843 0.260197,3.489552 4.80986,-0.09981 9.675605,0.137818 14.307742,1.526199 3.745732,1.146286 7.719339,2.782496 10.043195,6.100645 1.183482,1.672955 1.197251,4.035316 -0.09579,5.657939 -0.669318,1.011899 -1.557664,1.869232 -2.499728,2.601522 0.461665,1.150168 0.739603,2.371254 0.922157,3.578075 0.654195,-0.03792 1.193459,-0.801944 1.756784,-1.138747 2.769224,-2.046143 4.844573,-5.432997 4.347246,-8.973289 C 62.424872,32.066176 58.999556,29.130424 55.57406,27.29875 49.652674,24.118419 42.82809,23.168545 36.188722,23.085665 Z"
       style="opacity:1;vector-effect:none;fill:#000000;fill-opacity:1;stroke:none;stroke-width:3.67060089;stroke-linecap:butt;stroke-linejoin:miter;stroke-miterlimit:4;stroke-dasharray:none;stroke-dashoffset:0;stroke-opacity:1;paint-order:markers stroke fill" />
    <path
       inkscape:connector-curvature="0"
       id="path3257-0-6-1-8-4-5-0-5-7-6"
       d="m 37.963969,48.624824 c -2.90641,1.044265 -5.937638,2.36841 -7.951504,4.799612 -1.318006,1.732046 -1.818809,4.143612 -0.801764,6.144161 0.924279,1.705368 1.678102,2.566493 4.091157,4.06019 2.413101,1.493697 36.235601,18.049952 36.235601,18.049952 0,0 -1.877177,-5.650761 3.900839,-10.092805 C 56.587312,67.797498 56.48475,68.161566 48.298283,65.440825 43.109684,63.716453 35.731661,61.365512 33.202907,59.023284 32.317767,58.237636 31.906299,56.83657 32.753385,55.86724 c 1.416505,-1.940962 3.840756,-2.754418 5.968424,-3.669081 0.685389,-0.272205 1.473474,-0.399776 2.100991,-0.721457 -0.605894,-1.046748 -1.007701,-2.219983 -1.40206,-3.327357 -0.48559,0.158493 -0.971181,0.316986 -1.456771,0.475479 z"
       style="opacity:1;vector-effect:none;fill:#000000;fill-opacity:1;stroke:none;stroke-width:3.67060089;stroke-linecap:butt;stroke-linejoin:miter;stroke-miterlimit:4;stroke-dasharray:none;stroke-dashoffset:0;stroke-opacity:1;paint-order:markers stroke fill"
       sodipodi:nodetypes="cccsccacccccc" />
    <circle
       style="opacity:1;vector-effect:none;fill:#000000;fill-opacity:1;stroke:none;stroke-width:2.57963777;stroke-linecap:butt;stroke-linejoin:miter;stroke-miterlimit:4;stroke-dasharray:none;stroke-dashoffset:0;stroke-opacity:1;paint-order:markers stroke fill"
       id="path3320-6-3-9-4-2-5-2-9-3-4"
       cx="48.397766"
       cy="47.719868"
       r="4.9116359" />
    <circle
       style="opacity:1;vector-effect:none;fill:#000000;fill-opacity:1;stroke:none;stroke-width:2.57963777;stroke-linecap:butt;stroke-linejoin:miter;stroke-miterlimit:4;stroke-dasharray:none;stroke-dashoffset:0;stroke-opacity:1;paint-order:markers stroke fill"
       id="path3320-0-2-2-1-2-2-6-6-2-1-7"
       cx="26.536886"
       cy="25.859098"
       r="4.9116359" />
    <circle
       style="opacity:1;vector-effect:none;fill:#000000;fill-opacity:1;stroke:none;stroke-width:2.57963777;stroke-linecap:butt;stroke-linejoin:miter;stroke-miterlimit:4;stroke-dasharray:none;stroke-dashoffset:0;stroke-opacity:1;paint-order:markers stroke fill"
       id="path3320-0-4-6-1-0-9-0-2-1-2-1-4"
       cx="78.842697"
       cy="78.164856"
       r="4.9116359" />
    <g
       id="g2297"
       transform="matrix(1.1517956,0,0,1.1517956,-11.967975,-9.5827538)">
      <g
         id="g2271">
        <path
           style="fill:#000000;fill-opacity:1;stroke:none;stroke-width:1;stroke-miterlimit:4;stroke-dasharray:none"
           d="m 83.200864,56.644061 c 1.130227,-0.09547 2.145314,-0.890558 2.510962,-1.966705 l 0.06155,-0.181506 1.374492,-0.01719 c 1.518737,-0.01895 1.524628,-0.01987 1.762078,-0.249677 0.257849,-0.249592 0.30854,-0.636779 0.341557,-2.60916 0.03649,-2.188904 -0.115714,-3.853017 -0.487342,-5.321668 -0.324498,-1.282796 -0.746156,-2.131825 -1.359763,-2.738252 -0.311045,-0.307427 -0.54634,-0.466511 -0.902978,-0.610541 L 69.87923,42.845593 c -0.90544,0.248749 -1.310525,0.869609 -1.421006,2.178177 -0.0255,0.302754 -0.0343,1.786404 -0.02726,4.581071 0.01011,3.864589 0.0145,4.143488 0.07184,4.290192 0.08142,0.208768 0.240571,0.396164 0.41568,0.489895 0.140773,0.0753 0.16957,0.07677 1.82486,0.09373 l 1.681757,0.01719 0.06291,0.178551 c 0.261058,0.741582 0.78656,1.330765 1.513594,1.697399 0.612815,0.309045 1.509242,0.371066 2.189805,0.151536 0.293856,-0.09483 0.746729,-0.34791 1.001941,-0.559851 0.383982,-0.319017 0.740926,-0.841398 0.891019,-1.304036 l 0.05865,-0.180824 h -2.054967 3.972767 l 0.05817,0.180846 c 0.155588,0.483148 0.527261,1.013292 0.940962,1.342033 0.616288,0.489742 1.348202,0.709448 2.140742,0.642535 z m -0.975035,-1.450277 c -0.58569,-0.279009 -0.953843,-0.854148 -0.953843,-1.490131 0,-0.635804 0.36789,-1.210673 0.953843,-1.490456 0.264664,-0.126396 0.275391,-0.12838 0.682234,-0.127632 0.349206,0.0022 0.443905,0.01302 0.610529,0.07966 0.434803,0.173878 0.778646,0.530717 0.960263,0.996442 0.111229,0.285185 0.109777,0.802031 -0.0044,1.093082 -0.196036,0.505507 -0.543044,0.844021 -1.05061,1.024846 -0.134353,0.0479 -0.256618,0.05939 -0.551484,0.05194 -0.356505,-0.0091 -0.394797,-0.01719 -0.647898,-0.137752 z m -7.6457,-0.0026 c -0.4148,-0.204973 -0.681882,-0.498825 -0.851847,-0.937049 -0.112855,-0.291051 -0.114306,-0.80787 -0.0044,-1.0931 0.181616,-0.465698 0.525503,-0.822524 0.960219,-0.996424 0.166624,-0.06662 0.261322,-0.079 0.610528,-0.07965 0.406888,-0.0022 0.417571,0.0022 0.682278,0.127623 1.041904,0.497511 1.278167,1.82959 0.469889,2.648935 -0.346921,0.351681 -0.682015,0.480017 -1.222904,0.468464 -0.363671,-0.0079 -0.392599,-0.0139 -0.645085,-0.138795 z m 12.702356,-3.978973 c -0.324629,-0.113648 -0.595449,-0.316634 -1.781159,-1.335154 -1.640298,-1.408968 -2.71135,-2.056132 -3.820388,-2.308389 l -0.236746,-0.05383 v -1.771136 -1.7711 h 2.058045 c 2.209193,0 2.224845,0.0018 2.57471,0.180794 1.097739,0.562401 1.709542,2.66291 1.702904,5.846531 -0.0044,1.053828 -0.01495,1.16871 -0.136156,1.230067 -0.11145,0.05635 -0.154447,0.0542 -0.36121,-0.01829 z M 75.657645,45.712008 V 43.97257 l 2.256059,9e-6 h 2.256058 v 1.739424 1.739446 h -2.256058 -2.256059 z m -5.944863,1.666883 c -0.06168,-0.06823 -0.06551,-0.138412 -0.06449,-1.179713 0.0044,-1.22312 0.03033,-1.513388 0.18078,-1.812326 0.101249,-0.201105 0.2451,-0.322024 0.451292,-0.379278 0.07715,-0.0215 0.927245,-0.03468 2.234296,-0.03482 h 2.109659 v 1.739425 1.739455 l -2.422947,-2.2e-5 c -2.419913,2.2e-5 -2.423078,-1.15e-4 -2.488584,-0.07254 z"
           id="path1424-9-3"
           inkscape:connector-curvature="0"
           sodipodi:nodetypes="ccccccccccccccccccccccccccccscccscccccccccccccccccccccsccccccccccccccccccccccscc"
           inkscape:transform-center-x="2.7479584"
           inkscape:transform-center-y="4.9215343" />
        <path
           style="opacity:1;vector-effect:none;fill:#ffffff;fill-opacity:1;stroke:none;stroke-width:1.34983134;stroke-linecap:butt;stroke-linejoin:miter;stroke-miterlimit:4;stroke-dasharray:none;stroke-dashoffset:0;stroke-opacity:1;paint-order:markers stroke fill"
           d="m 226.84924,88.052838 c 0.073,4.498214 -0.40766,9.179365 0.006,13.565152 8.53707,1.74429 14.40863,8.8337 21.35394,13.52399 0.83427,0.65738 2.65418,1.1631 2.73647,-0.43317 0.32063,-7.17586 0.52307,-14.764156 -2.40723,-21.488561 -1.22211,-2.897586 -3.80908,-6.089646 -7.31165,-5.387998 -4.70401,-0.01361 -9.40803,-0.02659 -14.11204,-0.0396 l -0.25487,0.25018 z"
           id="path2223"
           inkscape:connector-curvature="0"
           transform="matrix(0.26458333,0,0,0.26458333,21.360665,20.682877)" />
        <path
           style="opacity:1;vector-effect:none;fill:#ffffff;fill-opacity:1;stroke:none;stroke-width:1.34983134;stroke-linecap:butt;stroke-linejoin:miter;stroke-miterlimit:4;stroke-dasharray:none;stroke-dashoffset:0;stroke-opacity:1;paint-order:markers stroke fill"
           d="m 193.08878,87.684534 c -3.0579,0.263867 -6.337,-0.207909 -9.26409,0.765207 -2.01884,2.077863 -1.17776,5.429565 -1.43973,8.053153 0.42886,1.637322 -1.23077,5.545616 1.69294,4.854216 5.71428,0 11.42857,0 17.14286,0 0.6335,-2.438023 0.0785,-5.368319 0.26437,-7.991772 -0.40274,-1.772288 0.81714,-4.872746 -0.62702,-5.840858 -2.58978,0.05335 -5.17955,0.106703 -7.76933,0.160054 z"
           id="path2227"
           inkscape:connector-curvature="0"
           transform="matrix(0.26458333,0,0,0.26458333,21.360665,20.682877)" />
        <rect
           style="opacity:1;vector-effect:none;fill:#ffffff;fill-opacity:1;stroke:none;stroke-width:1;stroke-linecap:butt;stroke-linejoin:miter;stroke-miterlimit:4;stroke-dasharray:none;stroke-dashoffset:0;stroke-opacity:1;paint-order:markers stroke fill"
           id="rect2265"
           width="4.5121169"
           height="3.4788792"
           x="75.657646"
           y="43.972572" />
      </g>
      <circle
         r="1.7008928"
         cy="53.665195"
         cx="75.273926"
         id="path2273"
         style="opacity:1;vector-effect:none;fill:#ffffff;fill-opacity:1;stroke:none;stroke-width:1.07063198;stroke-linecap:butt;stroke-linejoin:miter;stroke-miterlimit:4;stroke-dasharray:none;stroke-dashoffset:0;stroke-opacity:1;paint-order:markers stroke fill" />
      <circle
         r="1.7008928"
         cy="53.665195"
         cx="82.96965"
         id="path2273-1"
         style="opacity:1;vector-effect:none;fill:#ffffff;fill-opacity:1;stroke:none;stroke-width:1.07063198;stroke-linecap:butt;stroke-linejoin:miter;stroke-miterlimit:4;stroke-dasharray:none;stroke-dashoffset:0;stroke-opacity:1;paint-order:markers stroke fill" />
    </g>
  </g>
</svg>
