<?xml version="1.0" encoding="UTF-8" standalone="no"?>
<!-- Generator: Adobe Illustrator 25.2.1, SVG Export Plug-In . SVG Version: 6.00 Build 0)  -->

<svg
   xmlns:dc="http://purl.org/dc/elements/1.1/"
   xmlns:cc="http://creativecommons.org/ns#"
   xmlns:rdf="http://www.w3.org/1999/02/22-rdf-syntax-ns#"
   xmlns:svg="http://www.w3.org/2000/svg"
   xmlns="http://www.w3.org/2000/svg"
   xmlns:sodipodi="http://sodipodi.sourceforge.net/DTD/sodipodi-0.dtd"
   xmlns:inkscape="http://www.inkscape.org/namespaces/inkscape"
   version="1.1"
   id="Layer_1"
   x="0px"
   y="0px"
   viewBox="0 0 467.42999 467.42999"
   enable-background="new 0 0 792 612"
   xml:space="preserve"
   sodipodi:docname="bus_and_transit_map.svg"
   width="467.42999"
   height="467.42999"
   inkscape:export-filename="/home/michaelb/projects/pta/static/images/logos/bus_and_transit_map.svg.png"
   inkscape:export-xdpi="52.799999"
   inkscape:export-ydpi="52.799999"
   inkscape:version="0.92.3 (2405546, 2018-03-11)"><metadata
   id="metadata203"><rdf:RDF><cc:Work
       rdf:about=""><dc:format>image/svg+xml</dc:format><dc:type
         rdf:resource="http://purl.org/dc/dcmitype/StillImage" /><dc:title></dc:title></cc:Work></rdf:RDF></metadata><defs
   id="defs201" /><sodipodi:namedview
   pagecolor="#ffffff"
   bordercolor="#666666"
   borderopacity="1"
   objecttolerance="10"
   gridtolerance="10"
   guidetolerance="10"
   inkscape:pageopacity="0"
   inkscape:pageshadow="2"
   inkscape:window-width="1920"
   inkscape:window-height="1008"
   id="namedview199"
   showgrid="false"
   fit-margin-top="1"
   fit-margin-left="1"
   fit-margin-right="1"
   fit-margin-bottom="1"
   inkscape:zoom="1.5424837"
   inkscape:cx="163.32695"
   inkscape:cy="224.5582"
   inkscape:window-x="0"
   inkscape:window-y="32"
   inkscape:window-maximized="1"
   inkscape:current-layer="g156" />
<circle
   cx="233.715"
   cy="233.715"
   r="232.715"
   id="circle2"
   style="fill:#ed1c24" />
<g
   id="g8"
   transform="translate(-167.73901,-78.291016)">
	<g
   id="g6">
		<path
   d="m 312.583,421.177 c 2.341,-37.284 3.056,-74.702 3.868,-112.046 0.099,-4.566 0.335,-8.921 0.762,-13.476 0.738,-7.88 0.635,-15.957 2.116,-23.75 0.944,-4.972 3.617,-9.32 4.741,-14.158 1.513,-6.514 11.093,-7.257 16.396,-7.988 7.091,-0.977 14.382,-1.519 21.396,-2.877 5.288,-1.023 10.062,-4.531 14.863,-6.782 7.023,-3.292 16,-1.742 23.534,-1.72 9.829,0.029 19.658,-0.008 29.487,-0.086 1.621,-0.013 1.6,-2.414 0,-2.5 -0.477,-0.025 -0.952,-0.051 -1.428,-0.077 0,0.833 0,1.667 0,2.5 9.203,0.46 16.461,7.774 25.576,9.22 5.546,0.88 11.111,1.628 16.667,2.444 4.357,0.639 9.216,1.538 11.972,5.325 2.391,3.286 2.436,10.112 3.09,13.879 1.281,7.397 2.513,14.84 3.091,22.33 3.382,43.817 4.926,87.478 5.396,131.426 0.018,1.611 2.518,1.613 2.5,0 -0.491,-45.929 -0.48,-92.374 -6.075,-138.032 -0.885,-7.219 -2.123,-14.398 -3.414,-21.554 -0.791,-4.383 -1.127,-9.542 -5.222,-12.246 -7.552,-4.984 -18.692,-4.65 -27.34,-5.982 -9.391,-1.447 -16.666,-8.831 -26.24,-9.31 -1.613,-0.081 -1.604,2.414 0,2.5 0.476,0.025 0.952,0.051 1.428,0.077 0,-0.833 0,-1.667 0,-2.5 -15.566,0.124 -31.369,-0.784 -46.898,-0.007 -4.972,0.249 -9.72,3.268 -13.982,5.525 -6.307,3.338 -12.657,3.809 -19.63,4.763 -9.018,1.234 -23.681,0.671 -27.576,11.008 -1.545,4.099 -3.205,8.231 -4.355,12.493 -1.929,7.156 -1.769,15.003 -2.293,22.354 -2.349,33.005 -2.165,66.232 -3.467,99.312 -0.393,9.981 -0.835,19.964 -1.461,29.935 -0.103,1.61 2.398,1.6 2.498,0 z"
   id="path4"
   inkscape:connector-curvature="0"
   style="fill:#ffffff" />
	</g>
</g>

<path
   d="m 239.74499,344.48298 c 5.22,-3.972 10.509,-7.671 17.114,-8.992 12.637,-2.532 25.207,-4.027 37.401,1.894 1.659,0.806 3.458,1.49 4.851,2.646 7.33,6.07 16.193,7.134 25.147,7.911 3.483,0.302 6.999,0.601 10.477,0.432 1.483,-0.073 2.908,-1.348 4.359,-2.076 v -1.166 c -1.317,-0.6 -2.593,-1.58 -3.96,-1.728 -6.563,-0.72 -13.167,-1.078 -19.727,-1.825 -4.6,-0.524 -19.023,-9.118 -19.843,-9.33 -5.143,-1.327 -10.284,-2.659 -15.419,-4.017 -0.706,-0.189 -23.653,1.542 -23.565,1.819 -2.357,0.747 -4.277,1.408 -6.232,1.94 -0.234,0.063 -0.501,0.093 -0.771,0.101 -2.266,0.793 -7.795,4.371 -9.144,5.397 0,0 -6.11,4.177 -6.563,5.371 -0.391,-0.104 -0.779,-0.203 -1.168,-0.308 -0.045,-0.857 -5.37,-3.812 -5.37,-3.812 -1.6,-1.126 -11.126,-6.301 -11.893,-6.433 -3.084,-0.524 -12.403,-2.085 -13.419,-2.085 -1.111,0 -11.941,0.985 -16.657,1.649 0.025,-0.039 0.052,-0.078 0.076,-0.116 -1.348,0.372 -2.656,0.856 -3.952,1.391 -1.483,0.627 -3.522,1.484 -3.574,1.507 0.02,-0.009 0.039,-0.018 0.061,-0.024 -0.053,0.022 -0.066,0.027 -0.061,0.024 -1.011,0.425 -2.021,0.853 -3.05,1.226 -2.739,0.993 -5.638,1.691 -8.559,1.923 -11.121,3.228 -21.885,4.943 -32.906,5.058 -1.773,0.02 -3.808,-0.182 -3.863,2.358 -0.061,2.754 2.11,2.677 3.966,2.55 5.521,-0.377 11.154,-0.294 16.521,-1.439 10.71,-2.286 21.315,-5.109 31.878,-8.023 8.695,-2.399 17.369,-4.335 26.425,-2.594 7.714,1.483 14.51,4.62 19.529,10.959 -3.183,3.015 -6.285,5.807 -9.218,8.766 -6.422,6.479 -10.459,13.955 -9.616,23.46 0.441,4.971 0.916,9.906 3.921,14.135 2.852,4.01 6.876,5.359 11.537,4.411 4.474,-0.912 6.793,-4.186 7.199,-8.493 0.397,-4.233 0.121,-8.524 0.301,-12.784 0.06,-1.377 0.181,-3.196 1.037,-4.015 2.858,-2.727 6.004,-5.167 9.156,-7.565 1.591,-1.209 3.043,-0.892 4.58,0.666 10.595,10.736 21.384,21.277 31.901,32.085 3.217,3.303 5.955,7.122 8.563,10.942 1.432,2.097 1.499,4.656 -0.61,6.673 -2.09,1.999 -4.601,2.731 -7.212,1.338 -2.027,-1.083 -3.972,-2.461 -5.65,-4.03 -5.244,-4.902 -10.345,-9.957 -15.264,-14.726 -1.305,1.01 -2.517,1.946 -3.175,2.455 4.918,5.265 9.592,10.196 14.181,15.21 1.762,1.925 3.445,3.942 4.936,6.08 1.138,1.628 1.252,3.463 -0.33,5.049 -1.581,1.584 -3.449,2.43 -5.504,1.193 -1.716,-1.031 -3.291,-2.355 -4.758,-3.73 -5.308,-4.967 -10.541,-10.012 -15.43,-14.672 -0.925,0.708 -2.134,1.632 -3.295,2.521 0.333,0.439 0.435,0.61 0.571,0.747 3.845,3.86 7.731,7.679 11.522,11.592 1.479,1.528 2.92,3.154 4.062,4.939 1.765,2.754 1.174,5.471 -1.262,7.2 -2.05,1.459 -5.651,0.944 -7.449,-1.056 -3.961,-4.414 -7.938,-8.812 -11.882,-13.241 -1.294,-1.455 -2.698,-2.977 -4.61,-1.283 -1.842,1.628 -0.455,3.156 0.758,4.483 3.216,3.52 6.499,6.975 9.644,10.554 1.134,1.287 2.466,2.756 2.765,4.321 0.302,1.577 -0.092,3.792 -1.087,4.941 -0.713,0.824 -3.204,0.93 -4.404,0.342 -2.579,-1.266 -4.824,-3.203 -7.23,-4.829 -2.335,-1.577 -2.77,-3.213 -1.561,-6.058 2.806,-6.594 -0.171,-10.718 -7.392,-10.978 -0.154,-0.006 -0.306,-0.179 -0.454,-0.275 3.174,-8.127 -1.182,-16.547 -11.352,-14.306 -0.86,-3.439 -2.517,-6.741 -6.124,-7.424 -3.129,-0.592 -6.515,0.17 -9.899,0.341 -1.287,-6.519 -6.722,-8.647 -12.778,-4.314 -1.652,1.183 -3.193,2.562 -4.616,4.016 -2.69,2.745 -5.256,5.609 -8.194,8.769 -0.328,-0.526 -0.541,-0.976 -0.85,-1.343 -10.656,-12.845 -24.752,-15.82 -40.485,-14.1 -1.886,0.206 -3.675,0.613 -3.237,3.068 0.407,2.276 2.163,1.921 3.901,1.763 14.374,-1.315 27.333,1.258 36.834,13.427 1.076,1.378 1.358,2.493 0.919,4.21 -0.801,3.139 -0.213,6.2 2.756,7.939 1.726,1.011 3.93,1.204 6.041,1.8 0.439,8.407 2.961,10.889 11.646,10.85 -0.121,3.87 1.342,6.989 4.953,8.766 3.709,1.825 7.091,0.19 10.444,-1.477 0.899,8.108 5.566,10.803 12.246,7.303 1.453,-0.762 2.862,-1.698 4.088,-2.783 2.606,-2.307 5.08,-4.768 7.742,-7.289 0.526,0.475 1.176,1.219 1.971,1.743 3.224,2.13 6.281,4.686 9.788,6.161 5.343,2.251 10.151,-0.697 11.474,-6.356 0.13,-0.552 0.244,-1.106 0.414,-1.87 6.972,0.66 11.142,-2.583 12.69,-9.156 8.675,0.523 11.781,-2.109 12.913,-10.866 5.191,0.297 9.446,-1.529 11.77,-6.319 2.397,-4.943 -0.19,-9.36 -2.416,-13.527 3.911,-0.342 7.563,-0.755 11.228,-0.963 11.352,-0.646 22.713,-1.147 34.058,-1.901 1.396,-0.094 2.715,-1.37 4.068,-2.1 v -1.168 c -1.324,-0.598 -2.679,-1.771 -3.97,-1.704 -12.803,0.651 -25.586,1.679 -38.392,2.207 -4.104,0.17 -8.275,-0.713 -12.378,-1.369 -1.001,-0.157 -1.936,-1.222 -2.744,-2.026 -11.138,-11.15 -22.223,-22.354 -33.42,-33.443 -0.794,-0.786 -2.458,-1.264 -3.568,-1.062 -7.464,1.339 -12.682,6.143 -16.864,12.018 -1.081,1.518 -0.793,4.101 -0.895,6.204 -0.189,3.87 0.055,7.781 -0.421,11.608 -0.177,1.424 -1.728,3.61 -2.882,3.767 -1.851,0.25 -3.98,-0.705 -5.812,-1.548 -0.81,-0.373 -1.39,-1.646 -1.705,-2.629 -2.712,-8.383 -3.295,-16.585 2.367,-24.165 5.857,-7.844 13.677,-13.474 21.341,-19.308 z m -58.853,75.436 c -0.8,0.802 -2.736,0.472 -4.147,0.666 0.047,-1.354 -0.332,-2.918 0.211,-4.026 3.106,-6.322 8.091,-11.089 13.592,-15.3 2.166,-1.658 3.822,-0.906 3.905,2.028 -0.312,0.781 -0.538,2.378 -1.428,3.405 -3.911,4.528 -7.912,8.991 -12.133,13.227 z m 13.896,9.508 c -1.309,1.406 -3.279,2.469 -5.143,3.016 -2.578,0.756 -4.805,-1.605 -4.29,-4.277 0.251,-1.312 0.729,-2.646 1.398,-3.799 3.958,-6.835 9.274,-12.453 15.713,-16.993 1.003,-0.709 2.25,-1.21 3.456,-1.457 2.162,-0.445 4.381,1.428 4.494,4.437 -0.611,0.977 -1.441,2.729 -2.648,4.166 -4.234,5.046 -8.495,10.082 -12.98,14.907 z m 9.717,10.791 c -0.71,0.729 -1.797,1.165 -2.785,1.533 -2.821,1.053 -5.182,-0.811 -4.688,-3.803 0.246,-1.498 0.781,-3.033 1.543,-4.347 4.295,-7.415 10.119,-13.459 17.026,-18.482 0.619,-0.449 1.328,-0.808 2.041,-1.094 2.859,-1.153 5.261,0.506 5.301,4.539 -0.432,0.984 -0.815,3.084 -2.033,4.429 -5.325,5.872 -10.868,11.549 -16.405,17.225 z m 26.082,-9.089 c -0.105,0.328 -0.25,0.998 -0.523,1.609 -2.808,6.306 -7.145,11.314 -13.057,14.852 -1.013,0.606 -2.513,0.399 -3.788,0.567 -0.08,-1.274 -0.627,-2.752 -0.168,-3.786 2.873,-6.457 7.292,-11.685 13.469,-15.209 2.612,-1.487 4.207,-0.678 4.067,1.967 z"
   id="path12"
   inkscape:connector-curvature="0" />
<g
   id="g18"
   transform="translate(-167.73901,-78.291016)">
	<g
   id="g16">
		<path
   d="m 503.324,426.669 c 17.468,0.479 34.939,0.427 52.407,-0.073 8.395,-0.239 16.784,-0.613 25.171,-1.067 8.217,-0.446 16.47,-0.47 24.586,-1.947 3.17,-0.578 1.822,-5.397 -1.328,-4.822 -8.275,1.509 -16.803,1.419 -25.184,1.873 -8.393,0.455 -16.791,0.78 -25.191,1.022 -16.816,0.48 -33.646,0.478 -50.461,0.018 -3.226,-0.093 -3.218,4.908 0,4.996 z"
   id="path14"
   inkscape:connector-curvature="0" />
	</g>
</g>
<g
   id="g24"
   transform="translate(-167.73901,-78.291016)">
	<g
   id="g22">
		<path
   d="m 500.574,477.419 c 19.136,0.095 38.667,-4.331 55.317,7.759 2.614,1.898 5.105,-2.441 2.523,-4.315 -17.45,-12.671 -37.759,-8.344 -57.842,-8.442 -3.222,-0.018 -3.221,4.982 0.002,4.998 z"
   id="path20"
   inkscape:connector-curvature="0" />
	</g>
</g>
<path
   d="m 133.50399,347.76498 c 5.521,-0.377 11.155,-0.294 16.521,-1.439 10.71,-2.286 21.315,-5.109 31.878,-8.023 8.695,-2.399 17.369,-4.335 26.425,-2.594 7.56,1.454 14.231,4.503 19.223,10.591 1.655,-1.359 3.37,-2.608 5.176,-3.673 -0.047,-0.111 -0.102,-0.219 -0.145,-0.331 -0.777,-1.074 -5.245,-3.556 -5.245,-3.556 -1.6,-1.126 -11.126,-6.302 -11.893,-6.433 -3.084,-0.525 -12.403,-2.085 -13.419,-2.085 -1.111,0 -11.941,0.985 -16.656,1.649 0.025,-0.039 0.051,-0.078 0.075,-0.116 -1.348,0.372 -2.656,0.856 -3.951,1.391 -1.484,0.626 -3.523,1.484 -3.575,1.507 -1.011,0.425 -2.021,0.853 -3.05,1.225 -2.739,0.993 -5.638,1.691 -8.559,1.923 -11.121,3.228 -21.885,4.943 -32.906,5.058 -1.773,0.02 -3.808,-0.182 -3.863,2.357 -0.062,2.753 2.109,2.676 3.964,2.549 z"
   id="path26"
   inkscape:connector-curvature="0"
   style="fill:#ffffff" />
<path
   d="m 289.84499,402.25498 c -1.867,-1.452 -3.577,-3.026 -5.005,-5.012 -1.074,-0.963 -1.918,-2.192 -2.74,-3.37 -0.15,-0.217 -0.258,-0.45 -0.339,-0.691 -0.049,-0.049 -0.1,-0.102 -0.148,-0.148 -10.909,-10.922 -21.771,-21.894 -32.734,-32.762 -0.242,0.643 -0.706,1.232 -1.464,1.677 -1.059,0.62 -2.086,1.248 -3.082,1.921 0.807,0.081 1.604,0.546 2.424,1.378 10.595,10.736 21.384,21.277 31.902,32.085 3.216,3.303 5.954,7.122 8.562,10.942 1.432,2.098 1.499,4.657 -0.61,6.674 -2.09,1.999 -4.601,2.731 -7.212,1.338 -2.027,-1.083 -3.972,-2.461 -5.65,-4.03 -5.244,-4.902 -10.345,-9.957 -15.264,-14.726 -1.305,1.01 -2.517,1.946 -3.175,2.455 4.918,5.265 9.592,10.196 14.182,15.21 1.761,1.925 3.444,3.942 4.935,6.079 1.138,1.629 1.252,3.464 -0.33,5.05 -1.581,1.584 -3.449,2.43 -5.504,1.193 -1.716,-1.031 -3.291,-2.355 -4.758,-3.73 -5.308,-4.967 -10.541,-10.013 -15.429,-14.672 -0.926,0.708 -2.135,1.632 -3.296,2.521 0.333,0.439 0.435,0.61 0.571,0.747 3.845,3.86 7.731,7.679 11.522,11.592 1.479,1.528 2.92,3.154 4.061,4.938 1.766,2.754 1.174,5.471 -1.262,7.2 -2.05,1.459 -5.651,0.944 -7.449,-1.056 -3.961,-4.414 -7.938,-8.812 -11.882,-13.242 -1.294,-1.454 -2.698,-2.977 -4.61,-1.282 -1.842,1.628 -0.455,3.155 0.759,4.483 3.215,3.52 6.499,6.975 9.643,10.554 1.134,1.286 2.466,2.756 2.765,4.321 0.303,1.577 -0.092,3.792 -1.087,4.941 -0.713,0.824 -3.204,0.93 -4.403,0.342 -2.58,-1.266 -4.825,-3.203 -7.231,-4.829 -1.457,-0.983 -2.173,-1.991 -2.212,-3.301 -1.527,1.854 -2.646,3.991 -3.984,5.994 0.275,-0.264 0.547,-0.524 0.826,-0.79 0.526,0.475 1.176,1.219 1.971,1.743 3.224,2.13 6.281,4.686 9.788,6.161 5.344,2.251 10.151,-0.697 11.474,-6.356 0.13,-0.552 0.245,-1.107 0.414,-1.87 6.972,0.66 11.142,-2.583 12.69,-9.157 8.675,0.524 11.781,-2.108 12.913,-10.865 5.191,0.297 9.446,-1.529 11.77,-6.319 2.358,-4.866 -0.111,-9.222 -2.312,-13.331 z"
   id="path28"
   inkscape:connector-curvature="0"
   style="fill:#ffffff" />
<path
   d="m 172.81999,411.91798 c 0.42,-0.596 0.865,-1.203 1.312,-1.81 -0.326,-0.522 -0.539,-0.97 -0.846,-1.335 -10.656,-12.845 -24.752,-15.82 -40.485,-14.1 -1.886,0.206 -3.675,0.613 -3.237,3.068 0.407,2.275 2.163,1.921 3.901,1.763 14.374,-1.315 27.333,1.258 36.834,13.427 0.622,0.796 0.97,1.508 1.075,2.294 0.297,-1.189 0.744,-2.315 1.446,-3.307 z"
   id="path30"
   inkscape:connector-curvature="0"
   style="fill:#ffffff" />
<g
   id="g36"
   transform="translate(-167.73901,-78.291016)">
	<g
   id="g34">
		<path
   d="m 302.074,420.669 c -18.998,0.263 -38.105,-2.157 -57.057,-0.941 -9.242,0.594 -18.416,1.772 -27.693,1.691 -7.834,-0.068 -14.969,-4.082 -22.586,-5.411 -3.152,-0.55 -4.501,4.27 -1.328,4.822 7.008,1.223 13.492,4.598 20.598,5.332 9.648,0.997 19.533,-0.537 29.153,-1.3 19.546,-1.55 39.31,1.078 58.913,0.807 3.222,-0.044 3.226,-5.044 0,-5 z"
   id="path32"
   inkscape:connector-curvature="0"
   style="fill:#ffffff" />
	</g>
</g>
<g
   id="g42"
   transform="translate(-167.73901,-78.291016)">
	<g
   id="g40">
		<path
   d="m 299.824,472.919 c -19.006,0.438 -37.363,5.513 -56.25,6.75 -3.2,0.21 -3.221,5.211 0,5 18.89,-1.237 37.248,-6.312 56.25,-6.75 3.219,-0.074 3.227,-5.074 0,-5 z"
   id="path38"
   inkscape:connector-curvature="0"
   style="fill:#ffffff" />
	</g>
</g>
<g
   id="g48"
   transform="translate(-167.73901,-78.291016)">
	<g
   id="g46">
		<path
   d="m 494.204,358.82 c -49.323,0.009 -98.648,0.017 -147.971,0.025 -10.469,0.002 -20.936,-0.011 -31.404,-0.025 -1.612,-0.002 -1.612,2.498 0,2.5 48.701,0.074 97.402,0.014 146.103,0.006 11.092,-0.002 22.182,-0.004 33.272,-0.006 1.612,0 1.612,-2.5 0,-2.5 z"
   id="path44"
   inkscape:connector-curvature="0"
   style="fill:#ffffff" />
	</g>
</g>
<g
   id="g54"
   transform="translate(-167.73901,-78.291016)">
	<g
   id="g52">
		<path
   d="m 494.204,368.107 c -49.858,-0.072 -99.716,-0.146 -149.574,-0.217 -9.98,-0.015 -19.961,-0.029 -29.941,-0.043 -1.612,-0.003 -1.612,2.497 0,2.5 49.857,0.071 99.716,0.145 149.573,0.217 9.98,0.014 19.962,0.027 29.942,0.043 1.612,0.002 1.612,-2.498 0,-2.5 z"
   id="path50"
   inkscape:connector-curvature="0"
   style="fill:#ffffff" />
	</g>
</g>
<g
   id="g60"
   transform="translate(-167.73901,-78.291016)">
	<g
   id="g58">
		<path
   d="m 494.382,373.065 c -5.66,0 -11.321,0 -16.98,0 -3.573,0 -7.147,0 -10.72,0 -1.246,0 -3.732,-0.513 -4.896,0.17 -1.163,0.683 -2.064,2.776 -2.792,3.826 -2.277,3.28 -4.555,6.562 -6.832,9.842 -1.728,2.488 -3.454,4.978 -5.181,7.466 -1.056,1.521 1.392,0.31 -0.729,0.31 -26.421,0 -52.841,0 -79.262,0 -1.959,0 -3.917,0 -5.876,0 -0.369,0 -0.737,0 -1.105,0 0.155,0 1.303,1.081 0.786,0.236 -0.496,-0.811 -0.992,-1.621 -1.488,-2.432 -3.625,-5.928 -7.251,-11.854 -10.876,-17.778 -2.103,-3.436 -9.952,-1.64 -13.414,-1.64 -6.826,0 -13.652,0 -20.478,0 -1.612,0 -1.612,2.5 0,2.5 5.529,0 11.058,0 16.587,0 3.585,0 7.171,0 10.756,0 1.172,0 2.344,0 3.518,0 1.866,0 0.635,0.01 0.417,-0.349 2.82,4.612 5.643,9.224 8.464,13.835 1.651,2.7 3.216,8.126 6.836,8.126 26.42,0 52.84,0 79.261,0 1.602,0 7.011,0.979 8.148,-0.659 4.209,-6.065 8.419,-12.131 12.629,-18.195 0.7,-1.01 1.401,-2.021 2.104,-3.03 0.321,-0.464 -1.626,0.273 0.13,0.273 3.363,0 6.729,0 10.093,0 6.969,0 13.938,0 20.905,0 1.607,-10e-4 1.607,-2.501 -0.005,-2.501 z"
   id="path56"
   inkscape:connector-curvature="0"
   style="fill:#ffffff" />
	</g>
</g>
<g
   id="g66"
   transform="translate(-167.73901,-78.291016)">
	<g
   id="g64">
		<path
   d="m 354.505,388.281 c 32.919,0 65.838,0 98.757,0 1.612,0 1.612,-2.5 0,-2.5 -32.919,0 -65.838,0 -98.757,0 -1.612,0 -1.612,2.5 0,2.5 z"
   id="path62"
   inkscape:connector-curvature="0"
   style="fill:#ffffff" />
	</g>
</g>
<g
   id="g72"
   transform="translate(-167.73901,-78.291016)">
	<g
   id="g70">
		<path
   d="m 489.332,401.256 c -10.067,0 -20.136,0 -30.203,0 0.417,0.417 0.833,0.833 1.25,1.25 0,-5.339 0,-10.679 0,-16.018 -0.417,0.416 -0.833,0.832 -1.25,1.25 10.067,0 20.136,0 30.203,0 -0.417,-0.418 -0.833,-0.834 -1.25,-1.25 0,5.339 0,10.679 0,16.018 0,1.612 2.5,1.612 2.5,0 0,-5.339 0,-10.679 0,-16.018 0,-0.682 -0.568,-1.25 -1.25,-1.25 -10.067,0 -20.136,0 -30.203,0 -0.682,0 -1.25,0.568 -1.25,1.25 0,5.339 0,10.679 0,16.018 0,0.683 0.568,1.25 1.25,1.25 10.067,0 20.136,0 30.203,0 1.612,0 1.612,-2.5 0,-2.5 z"
   id="path68"
   inkscape:connector-curvature="0"
   style="fill:#ffffff" />
	</g>
</g>
<g
   id="g78"
   transform="translate(-167.73901,-78.291016)">
	<g
   id="g76">
		<path
   d="m 348.973,401.463 c -10.107,0 -20.214,0 -30.32,0 0.417,0.417 0.833,0.833 1.25,1.25 0,-5.339 0,-10.679 0,-16.018 -0.417,0.416 -0.833,0.832 -1.25,1.25 10.107,0 20.214,0 30.32,0 -0.417,-0.418 -0.833,-0.834 -1.25,-1.25 0,5.339 0,10.679 0,16.018 0,1.612 2.5,1.612 2.5,0 0,-5.339 0,-10.679 0,-16.018 0,-0.682 -0.567,-1.25 -1.25,-1.25 -10.107,0 -20.214,0 -30.32,0 -0.682,0 -1.25,0.568 -1.25,1.25 0,5.339 0,10.679 0,16.018 0,0.682 0.568,1.25 1.25,1.25 10.107,0 20.214,0 30.32,0 1.612,0 1.612,-2.5 0,-2.5 z"
   id="path74"
   inkscape:connector-curvature="0"
   style="fill:#ffffff" />
	</g>
</g>
<g
   id="g84"
   transform="translate(-167.73901,-78.291016)">
	<g
   id="g82">
		<path
   d="m 299.136,262.053 c 4.32,-0.006 8.642,-0.012 12.961,-0.017 0.742,-10e-4 1.17,-0.573 1.25,-1.25 0.3,-2.542 0.599,-5.085 0.897,-7.628 -0.833,0 -1.667,0 -2.5,0 -0.598,12.586 -1.196,25.172 -1.794,37.758 0.417,-0.417 0.833,-0.833 1.25,-1.25 -5.339,0 -10.679,0 -16.019,0 0.417,0.417 0.833,0.833 1.25,1.25 1.653,-12.586 3.305,-25.172 4.958,-37.758 -0.417,0.417 -0.833,0.833 -1.25,1.25 8.502,0 17.005,0 25.509,0 1.611,0 1.611,-2.5 0,-2.5 -8.504,0 -17.007,0 -25.509,0 -0.749,0 -1.161,0.575 -1.25,1.25 -1.653,12.586 -3.305,25.172 -4.958,37.758 -0.089,0.677 0.636,1.25 1.25,1.25 5.339,0 10.679,0 16.019,0 0.706,0 1.218,-0.57 1.25,-1.25 0.598,-12.586 1.196,-25.172 1.794,-37.758 0.078,-1.643 -2.317,-1.558 -2.5,0 -0.299,2.542 -0.598,5.085 -0.897,7.628 0.417,-0.417 0.833,-0.833 1.25,-1.25 -4.319,0.006 -8.641,0.012 -12.961,0.017 -1.612,0.002 -1.612,2.502 0,2.5 z"
   id="path80"
   inkscape:connector-curvature="0"
   style="fill:#ffffff" />
	</g>
</g>
<g
   id="g90"
   transform="translate(-167.73901,-78.291016)">
	<g
   id="g88">
		<path
   d="m 510.204,259.553 c -4.32,-0.006 -8.642,-0.012 -12.962,-0.017 0.417,0.417 0.833,0.833 1.25,1.25 -0.299,-2.542 -0.599,-5.085 -0.896,-7.628 -0.184,-1.558 -2.578,-1.643 -2.5,0 0.599,12.586 1.195,25.172 1.793,37.758 0.032,0.68 0.544,1.25 1.25,1.25 5.34,0 10.681,0 16.02,0 0.614,0 1.339,-0.573 1.25,-1.25 -1.653,-12.586 -3.307,-25.172 -4.959,-37.758 -0.089,-0.675 -0.502,-1.25 -1.25,-1.25 -8.902,0 -17.806,0 -26.707,0 -1.612,0 -1.612,2.5 0,2.5 8.901,0 17.805,0 26.707,0 -0.417,-0.417 -0.833,-0.833 -1.25,-1.25 1.652,12.586 3.306,25.172 4.959,37.758 0.417,-0.417 0.833,-0.833 1.25,-1.25 -5.34,0 -10.681,0 -16.02,0 0.417,0.417 0.833,0.833 1.25,1.25 -0.598,-12.586 -1.194,-25.172 -1.793,-37.758 -0.833,0 -1.667,0 -2.5,0 0.299,2.542 0.599,5.085 0.896,7.628 0.08,0.677 0.509,1.249 1.25,1.25 4.32,0.006 8.642,0.012 12.962,0.017 1.612,0.002 1.612,-2.498 0,-2.5 z"
   id="path86"
   inkscape:connector-curvature="0"
   style="fill:#ffffff" />
	</g>
</g>
<g
   id="g96"
   transform="translate(-167.73901,-78.291016)">
	<g
   id="g94">
		<path
   d="m 481.821,269.348 c -0.956,-9.71 -11.949,-7.931 -18.913,-7.931 -13.23,0 -26.457,0 -39.687,0 -27.961,0 -55.923,0 -83.884,0 -6.904,0 -14.045,0.693 -14.045,9.544 0,12.919 0,25.837 0,38.756 0,11.936 0,23.87 0,35.807 0,9.221 9.356,8.526 15.829,8.526 28.636,0 57.27,0 85.907,0 12.662,0 25.324,0 37.987,0 6.351,0 16.805,1.14 16.805,-8.2 0.001,-25.5 0.001,-51.001 0.001,-76.502 0,-1.612 -2.5,-1.612 -2.5,0 0,24.264 0,48.528 0,72.792 0,4.42 -0.108,9.41 -6.427,9.41 -2.626,0 -5.252,0 -7.878,0 -12.662,0 -25.325,0 -37.987,0 -28.637,0 -57.272,0 -85.907,0 -2.363,0 -4.726,0 -7.088,0 -6.74,0 -6.241,-5.894 -6.241,-10.404 0,-14.414 0,-28.828 0,-43.242 0,-6.899 0,-13.799 0,-20.699 0,-4.194 -1.112,-9.891 3.017,-12.547 1.976,-1.271 5.901,-0.742 8.118,-0.742 4.726,0 9.45,0 14.176,0 30.562,0 61.123,0 91.686,0 7.068,0 14.136,0 21.204,0 4.685,0 12.669,-1.269 13.329,5.431 0.154,1.59 2.655,1.606 2.498,0.001 z"
   id="path92"
   inkscape:connector-curvature="0"
   style="fill:#ffffff" />
	</g>
</g>
<g
   id="g102"
   transform="translate(-167.73901,-78.291016)">
	<g
   id="g100">
		<path
   d="m 313,331.202 c -19,0 -38,0 -57,0 -3.224,0 -3.224,5 0,5 19,0 38,0 57,0 3.224,0 3.224,-5 0,-5 z"
   id="path98"
   inkscape:connector-curvature="0"
   style="fill:#ffffff" />
	</g>
</g>
<g
   id="g110"
   transform="translate(-167.73901,-78.291016)">
	<circle
   cx="248.07401"
   cy="333.702"
   r="11.5"
   id="circle104"
   style="fill:#ed1c24" />
	<g
   id="g108">
		<path
   d="m 257.074,333.702 c -0.625,11.601 -17.375,11.601 -18,0 -0.625,-11.606 17.379,-11.546 18,0 0.173,3.207 5.174,3.224 5,0 -0.426,-7.92 -6.081,-13.573 -14,-14 -7.903,-0.427 -13.608,6.722 -14,14 -0.426,7.901 6.722,13.608 14,14 7.903,0.426 13.608,-6.722 14,-14 0.174,-3.223 -4.827,-3.207 -5,0 z"
   id="path106"
   inkscape:connector-curvature="0"
   style="fill:#ffffff" />
	</g>
</g>
<g
   id="g116"
   transform="translate(-167.73901,-78.291016)">
	<g
   id="g114">
		<path
   d="m 405.776,234 c 0,-19.952 0,-39.903 0,-59.854 0,-3.224 -5,-3.224 -5,0 0,19.952 0,39.903 0,59.854 0,3.224 5,3.224 5,0 z"
   id="path112"
   inkscape:connector-curvature="0"
   style="fill:#ffffff" />
	</g>
</g>
<g
   id="g124"
   transform="translate(-167.73901,-78.291016)">
	<circle
   cx="403.276"
   cy="166.22"
   r="11.5"
   id="circle118"
   style="fill:#ed1c24" />
	<g
   id="g122">
		<path
   d="m 403.276,175.22 c -11.602,-0.625 -11.602,-17.375 0,-18 11.608,-0.625 11.546,17.378 0,18 -3.206,0.173 -3.225,5.174 0,5 7.919,-0.427 13.572,-6.081 14,-14 0.426,-7.902 -6.723,-13.608 -14,-14 -7.903,-0.426 -13.608,6.722 -14,14 -0.426,7.902 6.722,13.608 14,14 3.224,0.174 3.206,-4.827 0,-5 z"
   id="path120"
   inkscape:connector-curvature="0"
   style="fill:#ffffff" />
	</g>
</g>
<g
   id="g130"
   transform="translate(-167.73901,-78.291016)">
	<g
   id="g128">
		<path
   d="m 494.204,336.202 c 18.459,0 36.918,0 55.377,0 3.225,0 3.225,-5 0,-5 -18.459,0 -36.918,0 -55.377,0 -3.226,0 -3.226,5 0,5 z"
   id="path126"
   inkscape:connector-curvature="0"
   style="fill:#ffffff" />
	</g>
</g>
<g
   id="g138"
   transform="translate(-167.73901,-78.291016)">
	<circle
   cx="560.737"
   cy="331.535"
   r="11.5"
   id="circle132"
   style="fill:#ed1c24" />
	<g
   id="g136">
		<path
   d="m 551.737,331.535 c 0.625,-11.602 17.376,-11.602 18,0 0.625,11.608 -17.378,11.546 -18,0 -0.172,-3.207 -5.173,-3.225 -5,0 0.427,7.92 6.081,13.572 14,14 7.902,0.426 13.607,-6.723 14,-14 0.426,-7.902 -6.722,-13.608 -14,-14 -7.902,-0.426 -13.607,6.722 -14,14 -0.172,3.224 4.828,3.207 5,0 z"
   id="path134"
   inkscape:connector-curvature="0"
   style="fill:#ffffff" />
	</g>
</g>
<g
   id="g144"
   transform="translate(-167.73901,-78.291016)">
	<g
   id="g142">
		<path
   d="M 563.164,317.673 C 562.987,277.631 548.387,238.728 521.117,209.262 494.614,180.625 457.011,163.914 418,163.72 c -3.225,-0.016 -3.224,4.984 0,5 37.542,0.188 72.792,16.119 98.688,43.128 27.091,28.256 41.307,66.924 41.477,105.825 0.014,3.224 5.014,3.224 4.999,0 z"
   id="path140"
   inkscape:connector-curvature="0"
   style="fill:#ffffff" />
	</g>
</g>
<g
   id="g150"
   transform="translate(-167.73901,-78.291016)">
	<g
   id="g148">
		<path
   d="m 250.574,320.333 c 0.168,-39.253 14.101,-77.621 40.63,-106.754 25.523,-28.029 61.717,-44.67 99.681,-44.859 3.225,-0.016 3.226,-5.016 0,-5 -39.019,0.195 -75.667,17.091 -102.331,45.368 -28.149,29.851 -42.806,70.477 -42.98,111.245 -0.013,3.226 4.987,3.224 5,0 z"
   id="path146"
   inkscape:connector-curvature="0"
   style="fill:#ffffff" />
	</g>
</g>
<g
   id="g156"
   transform="translate(-167.73901,-78.291016)">
	
</g>
<g
   id="g164"
   transform="translate(-167.73901,-78.291016)">
	<circle
   cx="523.61102"
   cy="213.90601"
   r="11.5"
   id="circle158"
   style="fill:#ed1c24" />
	<g
   id="g162">
		<path
   d="m 514.611,213.906 c 0.625,-11.601 17.375,-11.602 18,0 0.625,11.608 -17.378,11.546 -18,0 -0.173,-3.207 -5.174,-3.224 -5,0 0.427,7.919 6.08,13.573 14,14 7.901,0.426 13.607,-6.722 14,-14 0.426,-7.902 -6.723,-13.608 -14,-14 -7.902,-0.426 -13.607,6.722 -14,14 -0.173,3.224 4.827,3.207 5,0 z"
   id="path160"
   inkscape:connector-curvature="0"
   style="fill:#ffffff" />
	</g>
</g>
<g
   id="g172"
   transform="translate(-167.73901,-78.291016)">
	<circle
   cx="285.12701"
   cy="213.90601"
   r="11.5"
   id="circle166"
   style="fill:#ed1c24" />
	<g
   id="g170">
		<path
   d="m 276.127,213.906 c 0.625,-11.601 17.375,-11.602 18,0 0.625,11.608 -17.377,11.546 -18,0 -0.173,-3.207 -5.174,-3.224 -5,0 0.427,7.919 6.081,13.573 14,14 7.903,0.426 13.608,-6.722 14,-14 0.426,-7.902 -6.722,-13.608 -14,-14 -7.902,-0.426 -13.608,6.722 -14,14 -0.173,3.224 4.828,3.207 5,0 z"
   id="path168"
   inkscape:connector-curvature="0"
   style="fill:#ffffff" />
	</g>
</g>
<g
   id="g178"
   transform="translate(-167.73901,-78.291016)">
	<g
   id="g176">
		<path
   d="m 245.722,344.545 c 0.475,34.594 33.647,56.005 65.612,56.324 3.226,0.032 3.223,-4.969 0,-5 -29.191,-0.292 -60.174,-19.492 -60.612,-51.324 -0.045,-3.222 -5.045,-3.227 -5,0 z"
   id="path174"
   inkscape:connector-curvature="0"
   style="fill:#ffffff" />
	</g>
</g>
<g
   id="g184"
   transform="translate(-167.73901,-78.291016)">
	<g
   id="g182">
		<path
   d="m 245.574,344.545 c -0.451,32.603 -33.494,51.049 -62.836,51.324 -3.223,0.029 -3.226,5.03 0,5 32.134,-0.302 67.347,-20.939 67.836,-56.324 0.045,-3.227 -4.955,-3.222 -5,0 z"
   id="path180"
   inkscape:connector-curvature="0"
   style="fill:#ffffff" />
	</g>
</g>
<g
   id="g190"
   transform="translate(-167.73901,-78.291016)">
	<g
   id="g188">
		<path
   d="m 558.237,344.457 c 0.488,35.385 35.702,56.022 67.836,56.324 3.226,0.029 3.223,-4.971 0,-5 -29.342,-0.275 -62.386,-18.721 -62.836,-51.324 -0.044,-3.223 -5.044,-3.227 -5,0 z"
   id="path186"
   inkscape:connector-curvature="0"
   style="fill:#ffffff" />
	</g>
</g>
<g
   id="g196"
   transform="translate(-167.73901,-78.291016)">
	<g
   id="g194">
		<path
   d="m 558.09,344.457 c -0.438,31.867 -31.542,51.003 -60.728,51.294 -3.224,0.032 -3.227,5.032 0,5 31.961,-0.318 65.252,-21.664 65.728,-56.294 0.045,-3.227 -4.956,-3.223 -5,0 z"
   id="path192"
   inkscape:connector-curvature="0"
   style="fill:#ffffff" />
	</g>
</g>
</svg>