<?xml version="1.0" encoding="UTF-8" standalone="no"?>
<!-- Created with Inkscape (http://www.inkscape.org/) -->

<svg
   xmlns:dc="http://purl.org/dc/elements/1.1/"
   xmlns:cc="http://creativecommons.org/ns#"
   xmlns:rdf="http://www.w3.org/1999/02/22-rdf-syntax-ns#"
   xmlns:svg="http://www.w3.org/2000/svg"
   xmlns="http://www.w3.org/2000/svg"
   xmlns:sodipodi="http://sodipodi.sourceforge.net/DTD/sodipodi-0.dtd"
   xmlns:inkscape="http://www.inkscape.org/namespaces/inkscape"
   width="250"
   height="240"
   viewBox="0 0 66.145835 63.500002"
   version="1.1"
   id="svg2101"
   inkscape:version="0.92.3 (2405546, 2018-03-11)"
   sodipodi:docname="heartlogo.svg"
   inkscape:export-filename="/home/michaelb/projects/pta/static/images/heartlogo.svg.png"
   inkscape:export-xdpi="72.417992"
   inkscape:export-ydpi="72.417992">
  <defs
     id="defs2095" />
  <sodipodi:namedview
     id="base"
     pagecolor="#ffffff"
     bordercolor="#666666"
     borderopacity="1.0"
     inkscape:pageopacity="0.0"
     inkscape:pageshadow="2"
     inkscape:zoom="1.979899"
     inkscape:cx="134.40904"
     inkscape:cy="112.0215"
     inkscape:document-units="mm"
     inkscape:current-layer="layer1"
     showgrid="false"
     inkscape:window-width="1920"
     inkscape:window-height="1008"
     inkscape:window-x="0"
     inkscape:window-y="32"
     inkscape:window-maximized="1"
     fit-margin-top="1"
     fit-margin-left="1"
     fit-margin-right="1"
     fit-margin-bottom="1"
     units="px"
     inkscape:measure-start="0,0"
     inkscape:measure-end="0,0" />
  <metadata
     id="metadata2098">
    <rdf:RDF>
      <cc:Work
         rdf:about="">
        <dc:format>image/svg+xml</dc:format>
        <dc:type
           rdf:resource="http://purl.org/dc/dcmitype/StillImage" />
        <dc:title></dc:title>
      </cc:Work>
    </rdf:RDF>
  </metadata>
  <g
     inkscape:label="Layer 1"
     inkscape:groupmode="layer"
     id="layer1"
     transform="translate(-26.730222,-19.306927)">
    <g
       transform="matrix(0.39367426,0,0,0.39367426,-1731.351,-79.549487)"
       id="g16782-6-0">
      <path
         style="opacity:1;vector-effect:none;fill:#000000;fill-opacity:1;stroke:none;stroke-width:8.13126659;stroke-linecap:butt;stroke-linejoin:miter;stroke-miterlimit:4;stroke-dasharray:none;stroke-dashoffset:0;stroke-opacity:1;paint-order:markers stroke fill"
         d="m 4502.1615,276.10156 c -1.6926,0.04 -3.4994,0.091 -5.0928,0.4853 0.5229,2.5408 0.4861,5.2099 0.5764,7.7302 10.655,-0.2211 21.4338,0.3053 31.6951,3.3809 8.2977,2.5393 17.1002,6.1639 22.2481,13.5144 2.6217,3.706 2.6522,8.9392 -0.2122,12.5337 -1.4827,2.2416 -3.4506,4.1408 -5.5375,5.763 1.0227,2.5479 1.6384,5.2529 2.0428,7.9263 1.4492,-0.084 2.6438,-1.7765 3.8917,-2.5226 6.1345,-4.5327 10.7319,-12.0354 9.6302,-19.878 -1.1224,-9.0392 -8.7103,-15.5426 -16.2986,-19.6002 -13.1173,-7.0452 -28.2354,-9.1494 -42.9432,-9.333 z"
         id="path3251-6-7-9-4-0-7-6-7-0-0-62-3-6-2-7-8"
         inkscape:connector-curvature="0" />
      <path
         sodipodi:nodetypes="cccsccacccccc"
         style="opacity:1;vector-effect:none;fill:#000000;fill-opacity:1;stroke:none;stroke-width:8.13126659;stroke-linecap:butt;stroke-linejoin:miter;stroke-miterlimit:4;stroke-dasharray:none;stroke-dashoffset:0;stroke-opacity:1;paint-order:markers stroke fill"
         d="m 4506.0941,332.67696 c -6.4384,2.3133 -13.1533,5.2466 -17.6145,10.6323 -2.9197,3.8369 -4.0291,9.1791 -1.7761,13.6108 2.0475,3.7778 3.7174,5.6854 9.0629,8.9943 5.3456,3.3089 80.2706,39.985 80.2706,39.985 0,0 -4.1584,-12.5178 8.6413,-22.358 -37.329,-8.3923 -37.5562,-7.5858 -55.6912,-13.6129 -11.494,-3.8199 -27.8381,-9.0278 -33.4399,-14.2164 -1.9608,-1.7404 -2.8723,-4.8441 -0.9958,-6.9914 3.1379,-4.2997 8.5082,-6.1017 13.2215,-8.1279 1.5183,-0.603 3.2641,-0.8856 4.6542,-1.5982 -1.3422,-2.3188 -2.2323,-4.9178 -3.1059,-7.3709 -1.0757,0.3511 -2.1514,0.7022 -3.2271,1.0533 z"
         id="path3257-0-6-1-8-4-5-0-5-7-6-99-8-0-5-0-9"
         inkscape:connector-curvature="0" />
      <circle
         r="10.880459"
         cy="330.67224"
         cx="4529.2075"
         id="path3320-6-3-9-4-2-5-2-9-3-4-08-0-2-3-4-3"
         style="opacity:1;vector-effect:none;fill:#000000;fill-opacity:1;stroke:none;stroke-width:5.71451998;stroke-linecap:butt;stroke-linejoin:miter;stroke-miterlimit:4;stroke-dasharray:none;stroke-dashoffset:0;stroke-opacity:1;paint-order:markers stroke fill" />
      <circle
         r="10.880459"
         cy="282.24536"
         cx="4480.7803"
         id="path3320-0-2-2-1-2-2-6-6-2-1-7-1-5-7-49-8-1"
         style="opacity:1;vector-effect:none;fill:#000000;fill-opacity:1;stroke:none;stroke-width:5.71451998;stroke-linecap:butt;stroke-linejoin:miter;stroke-miterlimit:4;stroke-dasharray:none;stroke-dashoffset:0;stroke-opacity:1;paint-order:markers stroke fill" />
      <circle
         r="10.880459"
         cy="398.11523"
         cx="4596.6504"
         id="path3320-0-4-6-1-0-9-0-2-1-2-1-4-3-6-6-0-4-4"
         style="opacity:1;vector-effect:none;fill:#000000;fill-opacity:1;stroke:none;stroke-width:5.71451998;stroke-linecap:butt;stroke-linejoin:miter;stroke-miterlimit:4;stroke-dasharray:none;stroke-dashoffset:0;stroke-opacity:1;paint-order:markers stroke fill" />
      <g
         transform="translate(1693.0571,-1169.8331)"
         id="g16574-8-8">
        <g
           id="g11168-2-0-1-9"
           transform="translate(-777.11937,275.82096)">
          <g
             id="g11130-4-7-6-6"
             transform="matrix(0.92140515,0,0,0.92140515,265.07896,94.701577)">
            <path
               inkscape:connector-curvature="0"
               id="path11072-7-3-8-7"
               d="m 3708.3637,1296.7633 c 8.5155,-24.5386 15.4242,-45.1661 -0.2842,-63.2633"
               style="fill:none;stroke:#000000;stroke-width:5;stroke-linecap:butt;stroke-linejoin:miter;stroke-miterlimit:4;stroke-dasharray:none;stroke-opacity:1"
               sodipodi:nodetypes="cc" />
            <path
               inkscape:connector-curvature="0"
               id="path11074-9-1-5-7"
               d="m 3708.3637,1296.7633 c -3.5049,-20.7455 18.113,-37.8141 37.4746,-36.4714"
               style="fill:none;stroke:#000000;stroke-width:5;stroke-linecap:butt;stroke-linejoin:miter;stroke-miterlimit:4;stroke-dasharray:none;stroke-opacity:1" />
          </g>
          <g
             transform="matrix(0.20388447,0,0,0.20388447,3613.7168,1190.6125)"
             id="g8846-4-6-0-3-1-2-3">
            <path
               style="opacity:1;fill:#000000"
               inkscape:connector-curvature="0"
               id="path8242-7-7-4-9-9-19-7"
               d="M 462.32,110 C 457.5,98.74 464.24,83.46 456.11,63.93 453,50.87 438.93,40.47 434.44,37 425.76,30.42 414.54,26.46 401.03,25.2 a 138.47,138.47 0 0 0 -14.76,0.65 c -3.41,0.39 -7.12,0.42 -10.24,-1 -6.17,-2.91 -7.78,-9.23 -12.53,-12.71 A 54.52,54.52 0 0 0 352.26,5.82 C 345.54,2.41 336.12,0.3 326.21,0 a 66.34,66.34 0 0 0 -19.15,2.09 l -0.66,0.2 C 288.63,8 277.91,18 271.47,28.77 c -2.16,3.6 -2.22,7.74 -5.11,10.89 -1.43,1.57 -4.77,1.42 -8.06,0.89 -3.29,-0.53 -11,-1.26 -17.2,0 -15.57,3.36 -29.29,12 -40.28,25.63 -10,12 -14.22,28.63 -13.62,48 -0.35,7.21 4,12.11 2.07,17.33 -1.93,5.22 -10,8.74 -14,14.68 -16.47,24.37 -10.45,46.9 -8.12,55.68 l 0.37,1.36 c 5.62,22.32 31.94,37.72 37.17,40.57 19.44,10.68 42.41,12.82 54.4,13.17 1.37,0 2.49,0 3.24,0 l 8.55,1.07 c 10.9,8.92 26.53,14.12 47.44,15.84 1.09,0.1 2.23,0.17 3.35,0.21 13.15,0.36 25.4,-4.24 28.82,-5.65 a 122.07,122.07 0 0 0 13.34,-6.78 101.69,101.69 0 0 1 9.18,-4.81 l 0.36,-0.16 a 114.4,114.4 0 0 1 11.74,-4.34 c 4.31,-1.42 8.75,-2.89 13.33,-4.87 a 41.09,41.09 0 0 0 4.17,-2.06 l 8.58,-1 a 127.48,127.48 0 0 0 25.47,3.58 v 0 c 11.75,0.32 21.8,-1.5 29.67,-5.35 6.92,-3.25 12.07,-8.15 16.22,-12.1 l 0.43,-0.41 c 4.18,-3.95 17.88,-19.07 18.84,-47.89 0.43,-12.08 -2.68,-24.79 -8.7,-36.83 -8.93,-16.65 -26.69,-26.25 -30.8,-35.42 z" />
            <path
               inkscape:connector-curvature="0"
               id="path8266-7-5-8-2-0-9-1"
               style="opacity:1;fill:#ed1b24;fill-opacity:1"
               d="m 464.6,140 c -10.25,-11.81 -24.57,-19 -35.19,-23.13 a 99.74,99.74 0 0 1 10.06,22.22 l 0.2,0.64 a 4.25,4.25 0 0 1 0.14,0.51 l 0.15,0.45 c 0.09,0.44 0.22,0.88 0.34,1.32 l 0.18,0.58 a 94,94 0 0 1 0.5,46.68 37.19,37.19 0 0 1 -1,3.9 l -0.1,0.37 c -0.19,0.67 -0.42,1.34 -0.62,2 l -0.26,0.85 c -5.84,15.1 -12.27,23.57 -17.16,28.25 a 100.37,100.37 0 0 0 18,1.83 c 7.63,0 13.95,-1.18 18.72,-3.51 4,-1.9 7.4,-5.11 11,-8.5 l 0.34,-0.34 c 1.86,-1.76 11.16,-11.55 11.87,-32.17 0.39,-13.59 -5.86,-28.89 -17.17,-41.95 z m -64.36,-28.35 c 1.05,34.34 -9.13,46 -21.76,60.43 -2.39,2.73 -4.86,5.56 -7.39,8.68 -6.45,8 -11,14.83 -15.46,21.49 -6,9 -11.14,16.76 -19.17,24.44 -13.92,13.32 -34.15,16.6 -48.28,17.5 7.74,4.39 18.56,7.16 32.34,8.3 1.06,0.1 2.08,0.15 3.12,0.15 9.46,0 18.92,-3.78 20,-4.21 a 99.79,99.79 0 0 0 11.15,-5.72 118.8,118.8 0 0 1 11.02,-5.71 124.93,124.93 0 0 1 13.78,-5.13 c 4.08,-1.36 7.94,-2.63 11.73,-4.27 5.65,-2.36 16.74,-10.52 22.66,-22.45 16.4,-31.76 9.85,-72.5 -13.74,-93.5 z m -92.97,21.14 a 56.52,56.52 0 0 0 6.21,0.37 38.08,38.08 0 0 0 16,-3.33 c -28.1,-11.45 -41.52,-31.24 -47.72,-44.81 -1.25,11 -0.1,23.33 4.87,32 8.2,14.23 20.51,15.76 20.64,15.77 z m 26.28,66.55 c 5.58,-5.54 10.16,-10.63 13.56,-16.22 -2.06,0.15 -4.38,0.26 -6.89,0.26 a 73.82,73.82 0 0 1 -39.53,-11.06 c -10.9,-6.8 -19,-13.73 -25.62,-27.3 -8.56,-17.52 -9.59,-38.28 -10.34,-53.44 -0.07,-1.62 -0.15,-3.18 -0.24,-4.65 -16.19,20.17 -26.21,39.91 -31.31,61.53 -4,21.76 0.53,37.63 3,46.15 0.28,1 0.54,1.91 0.74,2.7 a 48.11,48.11 0 0 0 16.82,22.61 36.6,36.6 0 0 0 10.26,5 49.53,49.53 0 0 0 14.55,2.17 c 17.79,0 37.11,-9.64 54.39,-27.12 z M 218.87,212 c -14.34,-25.25 -9.33,-56.54 -6.32,-69.42 -7.65,2.91 -14.76,7.71 -18.86,12.95 -13.32,17.05 -9.31,32 -7.17,40 l 0.45,1.65 c 3,11.87 20.66,23.82 27.22,27.42 a 94.15,94.15 0 0 0 26.58,9.73 61.14,61.14 0 0 1 -21.9,-22.33 z m -0.26,-88.88 c 11,-34.33 34.69,-54.09 47.73,-62.76 a 39.94,39.94 0 0 0 -11.24,-1.6 c -10.06,0 -25,3.71 -39.27,21.41 -7.58,9 -10.61,30.47 -7,45.89 a 45.28,45.28 0 0 1 9.78,-2.94 z M 318.31,35 c 13.12,0.37 26.77,2.5 37.76,15.46 a 51.09,51.09 0 0 0 12.25,10.33 C 366.69,47.26 359.74,32 344.08,25.7 l -0.4,-0.18 c -4.41,-2.39 -12.47,-4 -20.1,-4 a 47,47 0 0 0 -12,1.45 C 299.69,26.76 291.48,33.32 286.82,42.83 292.9,38.77 302.09,35 316.07,35 Z m 26.04,43.28 c 5,0.37 11.08,-1.46 15.62,-3.9 -7,-3.74 -11.29,-8.59 -14.86,-12.66 -2.5,-2.81 -4.63,-5.24 -7.16,-6.79 -5.35,-3.13 -11.59,-3.7 -19.88,-1.94 5.12,4.18 8.9,9 12.67,15.89 3.2,5.45 8.31,9 13.61,9.4 z M 304.7,64.46 a 15.37,15.37 0 0 0 -5.28,-0.82 28.27,28.27 0 0 0 -3.82,0.28 45.38,45.38 0 0 1 3.4,5.25 26.29,26.29 0 0 0 3.34,5 c 2.92,3 6.63,4.44 11.64,4.44 a 35.21,35.21 0 0 0 3.6,-0.2 C 315.21,72.64 313.06,67.7 304.7,64.46 Z m 27.66,35.84 c -6.85,0 -13,-2.6 -18.9,-5.13 7.83,10 20.8,20.18 32.48,20.5 0.35,0 0.66,0 1,0 18.74,0 29.3,-14.8 33.08,-20.34 -0.1,-0.18 -0.17,-0.35 -0.26,-0.54 -1.34,-3 -2.08,-4.63 -6.23,-5.07 -8,-0.85 -20.5,3.38 -28.71,7.49 a 27.26,27.26 0 0 1 -12.46,3.09 z m 64.51,-15.05 c 8.12,8.2 27.43,13.65 40.21,17.27 q 3.24,0.9 5.77,1.65 c 1.43,-11.52 -0.13,-19.22 -1.82,-23.78 -4.52,-12.2 -15.29,-23.25 -18.5,-25.68 -7.32,-5.56 -18,-8.37 -31.87,-8.37 -2.76,0 -5.37,0.1 -7.74,0.25 0.12,0.61 0.21,1.24 0.35,1.87 2.3,12.59 5.18,28.27 13.6,36.79 z m -54.31,57.08 c -10.78,5 -19.92,7.28 -29.62,7.28 a 72.92,72.92 0 0 1 -8.74,-0.56 c 7.64,8.83 21.83,14.74 36.91,14.74 a 50.42,50.42 0 0 0 14.08,-1.94 c 17.42,-5.12 24.7,-22.9 27.74,-35.8 -7.6,5.87 -16,8.28 -24.14,10.64 a 107.68,107.68 0 0 0 -16.23,5.64 z" />
          </g>
        </g>
        <path
           style="opacity:1;vector-effect:none;fill:#000000;fill-opacity:1;stroke:none;stroke-width:9.27820301;stroke-linecap:square;stroke-linejoin:miter;stroke-miterlimit:4;stroke-dasharray:none;stroke-dashoffset:0;stroke-opacity:1;paint-order:markers stroke fill"
           d="m 2781.4006,1424.3627 h 64.5211 c 4.0953,0 8.82,7.6958 11.4987,14.5761 2.6787,6.8803 3.0797,24.0482 3.0797,24.0482 0,4.0953 -3.2969,7.3923 -7.3922,7.3923 h -71.7073 c -4.0952,0 -7.3922,-3.297 -7.3922,-7.3923 v -31.2321 c 0,-4.0953 3.297,-7.3922 7.3922,-7.3922 z"
           id="rect10398-5-4-6-2"
           inkscape:connector-curvature="0"
           sodipodi:nodetypes="sszssssss" />
        <rect
           style="opacity:1;vector-effect:none;fill:#ffffff;fill-opacity:1;stroke:none;stroke-width:7.29054451;stroke-linecap:square;stroke-linejoin:miter;stroke-miterlimit:4;stroke-dasharray:none;stroke-dashoffset:0;stroke-opacity:1;paint-order:markers stroke fill"
           id="rect10400-26-0-0-2"
           width="20"
           height="15"
           x="2804.012"
           y="1431.42"
           rx="0"
           ry="0" />
        <rect
           style="opacity:1;vector-effect:none;fill:#ffffff;fill-opacity:1;stroke:none;stroke-width:7.29054451;stroke-linecap:square;stroke-linejoin:miter;stroke-miterlimit:4;stroke-dasharray:none;stroke-dashoffset:0;stroke-opacity:1;paint-order:markers stroke fill"
           id="rect10400-2-5-6-6-1"
           width="20"
           height="15"
           x="2780.2551"
           y="1431.2499"
           rx="0"
           ry="0" />
        <path
           sodipodi:nodetypes="cccccaccc"
           inkscape:connector-curvature="0"
           id="path10564-8-4-4-5"
           d="m 2833.4419,1430.9935 c -1.6944,0.06 -5.7028,0.02 -5.7028,0.02 0.04,18.5618 0.011,7.0436 0.011,15.4206 16.275,-0.1764 19.3901,8.6139 25.5111,9.7542 0.4625,0.08 1.4005,0.3433 1.2224,-0.47 -0.019,-7.565 0.4143,-15.7564 -3.8385,-21.7764 -1.0464,-1.4813 -4.2078,-2.4774 -4.7346,-2.6808 -6.3865,-0.9977 -6.0031,-0.2748 -12.4684,-0.2679 z"
           style="opacity:1;vector-effect:none;fill:#ffffff;fill-opacity:1;stroke:none;stroke-width:4.05690765;stroke-linecap:square;stroke-linejoin:miter;stroke-miterlimit:4;stroke-dasharray:none;stroke-dashoffset:0;stroke-opacity:1;paint-order:markers stroke fill" />
        <circle
           inkscape:transform-center-y="6.4403405"
           inkscape:transform-center-x="16.744885"
           r="10.880459"
           cy="1469.6389"
           cx="2794.3567"
           id="path3320-0-2-2-1-2-2-6-6-2-1-7-1-5-7-4-7-7-7-9-0"
           style="opacity:1;vector-effect:none;fill:#000000;fill-opacity:1;stroke:none;stroke-width:5.71451998;stroke-linecap:butt;stroke-linejoin:miter;stroke-miterlimit:4;stroke-dasharray:none;stroke-dashoffset:0;stroke-opacity:1;paint-order:markers stroke fill" />
        <circle
           r="10.880459"
           cy="1469.6389"
           cx="2836.2188"
           id="path3320-0-2-2-1-2-2-6-6-2-1-7-1-5-7-4-6-8-9-4-9-9"
           style="opacity:1;vector-effect:none;fill:#000000;fill-opacity:1;stroke:none;stroke-width:5.71451998;stroke-linecap:butt;stroke-linejoin:miter;stroke-miterlimit:4;stroke-dasharray:none;stroke-dashoffset:0;stroke-opacity:1;paint-order:markers stroke fill" />
      </g>
    </g>
  </g>
</svg>
