<?xml version="1.0" encoding="UTF-8" standalone="no"?>
<!-- Created with Inkscape (http://www.inkscape.org/) -->

<svg
   xmlns:dc="http://purl.org/dc/elements/1.1/"
   xmlns:cc="http://creativecommons.org/ns#"
   xmlns:rdf="http://www.w3.org/1999/02/22-rdf-syntax-ns#"
   xmlns:svg="http://www.w3.org/2000/svg"
   xmlns="http://www.w3.org/2000/svg"
   xmlns:sodipodi="http://sodipodi.sourceforge.net/DTD/sodipodi-0.dtd"
   xmlns:inkscape="http://www.inkscape.org/namespaces/inkscape"
   width="245"
   height="207"
   viewBox="0 0 64.822918 54.768752"
   version="1.1"
   id="svg2101"
   inkscape:version="0.92.3 (2405546, 2018-03-11)"
   sodipodi:docname="route_and_flower.svg"
   inkscape:export-filename="/home/michaelb/projects/pta/static/images/logos/route_and_flower.svg.png"
   inkscape:export-xdpi="78.370003"
   inkscape:export-ydpi="78.370003">
  <defs
     id="defs2095" />
  <sodipodi:namedview
     id="base"
     pagecolor="#ffffff"
     bordercolor="#666666"
     borderopacity="1.0"
     inkscape:pageopacity="0.0"
     inkscape:pageshadow="2"
     inkscape:zoom="0.35"
     inkscape:cx="24.752665"
     inkscape:cy="15.282074"
     inkscape:document-units="mm"
     inkscape:current-layer="layer1"
     showgrid="false"
     inkscape:window-width="1920"
     inkscape:window-height="1008"
     inkscape:window-x="0"
     inkscape:window-y="32"
     inkscape:window-maximized="1"
     fit-margin-top="1"
     fit-margin-left="1"
     fit-margin-right="1"
     fit-margin-bottom="1"
     units="px"
     inkscape:measure-start="0,0"
     inkscape:measure-end="0,0" />
  <metadata
     id="metadata2098">
    <rdf:RDF>
      <cc:Work
         rdf:about="">
        <dc:format>image/svg+xml</dc:format>
        <dc:type
           rdf:resource="http://purl.org/dc/dcmitype/StillImage" />
        <dc:title></dc:title>
      </cc:Work>
    </rdf:RDF>
  </metadata>
  <g
     inkscape:label="Layer 1"
     inkscape:groupmode="layer"
     id="layer1"
     transform="translate(-28.068919,-26.957422)">
    <path
       inkscape:connector-curvature="0"
       id="path3251-6-7-9-4-0-7-6-7-0-0-62-3-6-2-7-8"
       d="m 41.034097,29.14459 c -0.666333,0.01575 -1.377624,0.03582 -2.004904,0.19105 0.205852,1.000248 0.191365,2.051004 0.226913,3.043181 4.1946,-0.08704 8.437936,0.120189 12.477546,1.330974 3.26659,0.999657 6.731908,2.426568 8.758504,5.320271 1.032096,1.458957 1.044103,3.519133 -0.08354,4.934195 -0.583701,0.88246 -1.358412,1.630126 -2.179971,2.268745 0.402611,1.003042 0.644996,2.067931 0.804198,3.12038 0.570512,-0.03307 1.040796,-0.699362 1.532062,-0.993083 2.414995,-1.784407 4.224873,-4.738027 3.791162,-7.825457 -0.44186,-3.5585 -3.429021,-6.118721 -6.41634,-7.716094 -5.163943,-2.773514 -11.11555,-3.601883 -16.905632,-3.674162 z"
       style="opacity:1;vector-effect:none;fill:#000000;fill-opacity:1;stroke:none;stroke-width:3.20107031;stroke-linecap:butt;stroke-linejoin:miter;stroke-miterlimit:4;stroke-dasharray:none;stroke-dashoffset:0;stroke-opacity:1;paint-order:markers stroke fill" />
    <path
       inkscape:connector-curvature="0"
       id="path3257-0-6-1-8-4-5-0-5-7-6-99-8-0-5-0-9"
       d="m 42.58226,51.416869 c -2.534632,0.910687 -5.178115,2.065451 -6.934375,4.185663 -1.149411,1.510489 -1.586153,3.613575 -0.699205,5.358221 0.806048,1.487223 1.463445,2.238196 3.567831,3.540825 2.104425,1.302629 31.600469,15.741065 31.600469,15.741065 0,0 -1.637055,-4.927935 3.401857,-8.801769 C 58.823371,68.137042 58.733928,68.45454 51.594645,66.081826 47.069753,64.578029 40.635502,62.527813 38.430217,60.485195 c -0.771916,-0.685151 -1.13075,-1.906997 -0.392021,-2.752334 1.235311,-1.692681 3.34946,-2.402082 5.204965,-3.199745 0.597715,-0.237386 1.284992,-0.348638 1.832238,-0.62917 -0.528389,-0.912852 -0.878799,-1.936012 -1.222712,-2.901734 -0.423476,0.138219 -0.846951,0.276438 -1.270427,0.414657 z"
       style="opacity:1;vector-effect:none;fill:#000000;fill-opacity:1;stroke:none;stroke-width:3.20107031;stroke-linecap:butt;stroke-linejoin:miter;stroke-miterlimit:4;stroke-dasharray:none;stroke-dashoffset:0;stroke-opacity:1;paint-order:markers stroke fill"
       sodipodi:nodetypes="cccsccacccccc" />
    <circle
       style="opacity:1;vector-effect:none;fill:#000000;fill-opacity:1;stroke:none;stroke-width:2.24965954;stroke-linecap:butt;stroke-linejoin:miter;stroke-miterlimit:4;stroke-dasharray:none;stroke-dashoffset:0;stroke-opacity:1;paint-order:markers stroke fill"
       id="path3320-6-3-9-4-2-5-2-9-3-4-08-0-2-3-4-3"
       cx="51.681419"
       cy="50.627663"
       r="4.2833567" />
    <circle
       style="opacity:1;vector-effect:none;fill:#000000;fill-opacity:1;stroke:none;stroke-width:2.24965954;stroke-linecap:butt;stroke-linejoin:miter;stroke-miterlimit:4;stroke-dasharray:none;stroke-dashoffset:0;stroke-opacity:1;paint-order:markers stroke fill"
       id="path3320-0-2-2-1-2-2-6-6-2-1-7-1-5-7-49-8-1"
       cx="32.616859"
       cy="31.563248"
       r="4.2833567" />
    <circle
       style="opacity:1;vector-effect:none;fill:#000000;fill-opacity:1;stroke:none;stroke-width:2.24965954;stroke-linecap:butt;stroke-linejoin:miter;stroke-miterlimit:4;stroke-dasharray:none;stroke-dashoffset:0;stroke-opacity:1;paint-order:markers stroke fill"
       id="path3320-0-4-6-1-0-9-0-2-1-2-1-4-3-6-6-0-4-4"
       cx="78.231941"
       cy="77.17823"
       r="4.2833567" />
    <path
       inkscape:connector-curvature="0"
       id="path11072-7-3-8-7"
       d="M 78.732607,76.161988 C 81.821464,67.261015 84.327481,59.77873 78.629518,53.21427"
       style="fill:none;stroke:#000000;stroke-width:1.81366742;stroke-linecap:butt;stroke-linejoin:miter;stroke-miterlimit:4;stroke-dasharray:none;stroke-opacity:1"
       sodipodi:nodetypes="cc" />
    <path
       inkscape:connector-curvature="0"
       id="path11074-9-1-5-7"
       d="M 78.732607,76.161988 C 77.461262,68.6369 85.302799,62.445547 92.3259,62.932589"
       style="fill:none;stroke:#000000;stroke-width:1.81366742;stroke-linecap:butt;stroke-linejoin:miter;stroke-miterlimit:4;stroke-dasharray:none;stroke-opacity:1" />
    <path
       style="opacity:1;fill:#000000;stroke-width:0.08026407"
       inkscape:connector-curvature="0"
       id="path8242-7-7-4-9-9-19-7"
       d="m 88.965072,46.043483 c -0.386873,-0.903774 0.154107,-2.130209 -0.49844,-3.697766 -0.249621,-1.048249 -1.378937,-1.882995 -1.739322,-2.161511 -0.696693,-0.528138 -1.597255,-0.845984 -2.681623,-0.947116 a 11.114166,11.114166 0 0 0 -1.184698,0.05217 c -0.2737,0.0313 -0.57148,0.03371 -0.821904,-0.08026 -0.495229,-0.233568 -0.624454,-0.740837 -1.005709,-1.020156 a 4.3759971,4.3759971 0 0 0 -0.902168,-0.507269 c -0.539374,-0.273701 -1.295462,-0.443058 -2.090879,-0.467137 a 5.3247184,5.3247184 0 0 0 -1.537057,0.167752 l -0.05297,0.01605 c -1.426292,0.458308 -2.286723,1.260948 -2.803624,2.125392 -0.17337,0.288951 -0.178186,0.621244 -0.410149,0.874076 -0.114778,0.126015 -0.38286,0.113975 -0.646929,0.07144 -0.264069,-0.04254 -0.882904,-0.101133 -1.380542,0 -1.249711,0.269687 -2.350934,0.963169 -3.233036,2.057168 -0.802641,0.963169 -1.141356,2.29796 -1.093197,3.852676 -0.02809,0.578703 0.321056,0.971997 0.166147,1.390976 -0.15491,0.418978 -0.802641,0.701508 -1.123697,1.178276 -1.32195,1.956036 -0.83876,3.764385 -0.651745,4.469104 l 0.0297,0.109159 c 0.451084,1.791494 2.563634,3.027561 2.983415,3.256313 1.560334,0.857221 3.404,1.028986 4.366366,1.057078 0.109962,0 0.199857,0 0.260055,0 l 0.686258,0.08588 c 0.874879,0.715955 2.129406,1.133328 3.807728,1.271382 0.08749,0.008 0.178989,0.01364 0.268884,0.01686 1.055473,0.02889 2.038708,-0.34032 2.313211,-0.453492 a 9.797835,9.797835 0 0 0 1.070723,-0.54419 8.1620533,8.1620533 0 0 1 0.736824,-0.386071 l 0.02889,-0.01284 a 9.1822096,9.1822096 0 0 1 0.9423,-0.348346 c 0.345938,-0.113975 0.702311,-0.231963 1.06992,-0.390886 a 3.2980506,3.2980506 0 0 0 0.334701,-0.165344 l 0.688666,-0.08026 a 10.232064,10.232064 0 0 0 2.044326,0.287345 v 0 c 0.943103,0.02569 1.749757,-0.120396 2.381435,-0.429412 0.555427,-0.260859 0.968787,-0.654153 1.301883,-0.971196 l 0.03451,-0.03291 c 0.335503,-0.317043 1.435121,-1.530636 1.512175,-3.843846 0.03451,-0.96959 -0.215108,-1.989747 -0.698298,-2.956126 -0.716758,-1.336397 -2.142248,-2.106932 -2.472133,-2.842953 z" />
    <path
       inkscape:connector-curvature="0"
       id="path8266-7-5-8-2-0-9-1"
       style="opacity:1;fill:#ed1b24;fill-opacity:1;stroke-width:0.08026407"
       d="m 89.148074,48.451405 c -0.822707,-0.947919 -1.972088,-1.525018 -2.824493,-1.856508 a 8.0055383,8.0055383 0 0 1 0.807457,1.783467 l 0.01605,0.05137 a 0.3411223,0.3411223 0 0 1 0.01124,0.04093 l 0.01204,0.03612 c 0.0072,0.03532 0.01766,0.07063 0.02729,0.105949 l 0.01445,0.04655 a 7.5448226,7.5448226 0 0 1 0.04013,3.746727 2.9850208,2.9850208 0 0 1 -0.08026,0.313029 l -0.008,0.0297 c -0.01525,0.05378 -0.03371,0.107554 -0.04976,0.160528 l -0.02087,0.06823 c -0.468742,1.211987 -0.98484,1.891824 -1.377332,2.26746 a 8.0561047,8.0561047 0 0 0 1.444754,0.146883 c 0.612414,0 1.119683,-0.09471 1.502543,-0.281727 0.321056,-0.152502 0.593954,-0.410149 0.882905,-0.682245 l 0.02729,-0.02729 c 0.149292,-0.141265 0.895748,-0.92705 0.952735,-2.582095 0.0313,-1.090789 -0.470347,-2.318829 -1.378134,-3.367078 z m -5.165796,-2.275487 c 0.08428,2.756269 -0.732811,3.692148 -1.746546,4.850358 -0.191831,0.219121 -0.390083,0.446268 -0.593151,0.696692 -0.517704,0.642113 -0.882905,1.190316 -1.240883,1.724875 -0.481584,0.722377 -0.894142,1.345226 -1.538662,1.961654 -1.117276,1.069117 -2.741018,1.332384 -3.875149,1.404621 0.621244,0.35236 1.489701,0.574691 2.59574,0.666192 0.08508,0.008 0.166949,0.01204 0.250424,0.01204 0.759298,0 1.518596,-0.303399 1.605281,-0.337912 a 8.0095515,8.0095515 0 0 0 0.894944,-0.459111 9.5353715,9.5353715 0 0 1 0.88451,-0.458307 10.02739,10.02739 0 0 1 1.106039,-0.411755 c 0.327478,-0.109159 0.637297,-0.211095 0.941498,-0.342728 0.453492,-0.189423 1.34362,-0.844378 1.818784,-1.801928 1.31633,-2.549187 0.790601,-5.819145 -1.102829,-7.504691 z m -7.46215,1.696783 a 4.5365252,4.5365252 0 0 0 0.49844,0.0297 3.0564558,3.0564558 0 0 0 1.284225,-0.26728 c -2.255421,-0.919023 -3.332564,-2.507449 -3.830202,-3.596633 -0.10033,0.882905 -0.008,1.872561 0.390886,2.56845 0.658166,1.142158 1.646216,1.264962 1.656651,1.265765 z m 2.10934,5.341574 c 0.447873,-0.444663 0.815482,-0.853207 1.08838,-1.301884 -0.165344,0.01204 -0.351556,0.02087 -0.553019,0.02087 A 5.9250936,5.9250936 0 0 1 75.99199,51.04554 c -0.874878,-0.545796 -1.525017,-1.102026 -2.056365,-2.19121 -0.687061,-1.406226 -0.769733,-3.072508 -0.829931,-4.289311 -0.0056,-0.130028 -0.01204,-0.25524 -0.01926,-0.373228 -1.299475,1.618926 -2.103721,3.203339 -2.513068,4.938648 -0.321056,1.746546 0.04254,3.020337 0.240792,3.704187 0.02247,0.08026 0.04334,0.153304 0.05939,0.216713 a 3.8615044,3.8615044 0 0 0 1.350042,1.81477 2.937665,2.937665 0 0 0 0.823509,0.401321 3.9754794,3.9754794 0 0 0 1.167843,0.174173 c 1.427898,0 2.978599,-0.773746 4.365562,-2.176762 z m -9.204684,1.016143 c -1.150987,-2.026668 -0.748864,-4.538131 -0.507269,-5.571932 -0.61402,0.233569 -1.184698,0.618836 -1.51378,1.03942 -1.069118,1.368502 -0.747259,2.56845 -0.575494,3.210563 l 0.03612,0.132435 c 0.240792,0.952735 1.658256,1.91189 2.184788,2.200841 a 7.5568622,7.5568622 0 0 0 2.133419,0.78097 4.9073452,4.9073452 0 0 1 -1.757784,-1.792297 z m -0.02087,-7.133871 c 0.882905,-2.755465 2.784361,-4.341483 3.831004,-5.037373 A 3.205747,3.205747 0 0 0 72.33275,41.930752 c -0.807456,0 -2.006601,0.297779 -3.15197,1.718453 -0.608401,0.722377 -0.851602,2.445647 -0.561848,3.683319 a 3.6343571,3.6343571 0 0 1 0.784982,-0.235977 z m 8.002328,-7.07287 c 1.053065,0.0297 2.148669,0.200661 3.030771,1.240883 a 4.1006913,4.1006913 0 0 0 0.983235,0.829128 c -0.13083,-1.085973 -0.688665,-2.310803 -1.945601,-2.816466 l -0.03211,-0.01445 C 79.088578,39.070943 78.44165,38.941718 77.829235,38.941718 a 3.7724113,3.7724113 0 0 0 -0.963169,0.116383 c -0.95434,0.304201 -1.613308,0.830733 -1.987338,1.594044 0.488005,-0.325872 1.225632,-0.628468 2.347724,-0.628468 z m 2.090077,3.473829 c 0.40132,0.0297 0.889325,-0.117185 1.253724,-0.313029 -0.561848,-0.300188 -0.906181,-0.689469 -1.192724,-1.016144 -0.20066,-0.225542 -0.371622,-0.420583 -0.574691,-0.544993 -0.429412,-0.251226 -0.93026,-0.296977 -1.595649,-0.155712 0.410952,0.335504 0.71435,0.722377 1.016946,1.275396 0.256845,0.437439 0.666994,0.722377 1.092394,0.754482 z m -3.182471,-1.109249 a 1.2336588,1.2336588 0 0 0 -0.423794,-0.06582 2.2690653,2.2690653 0 0 0 -0.306609,0.02247 3.6423835,3.6423835 0 0 1 0.272898,0.421387 2.1101424,2.1101424 0 0 0 0.268082,0.40132 c 0.234371,0.240792 0.532151,0.356373 0.934274,0.356373 a 2.8260979,2.8260979 0 0 0 0.28895,-0.01605 c -0.190225,-0.463124 -0.362793,-0.859628 -1.033801,-1.119684 z m 2.220104,2.876664 c -0.549809,0 -1.043433,-0.208686 -1.516991,-0.411754 0.628468,0.80264 1.669493,1.619728 2.606977,1.645413 0.02809,0 0.05298,0 0.08026,0 1.504149,0 2.351738,-1.187908 2.655136,-1.632571 -0.008,-0.01445 -0.01365,-0.02809 -0.02087,-0.04334 -0.107554,-0.240792 -0.166949,-0.371622 -0.500045,-0.406939 -0.642112,-0.06822 -1.645413,0.271293 -2.304381,0.601178 a 2.1879985,2.1879985 0 0 1 -1.000091,0.248016 z m 5.177835,-1.207974 c 0.651745,0.658165 2.201644,1.095605 3.227419,1.38616 q 0.260055,0.07224 0.463123,0.132436 c 0.114778,-0.924642 -0.01043,-1.542675 -0.14608,-1.908679 -0.362794,-0.979222 -1.227238,-1.86614 -1.484886,-2.061182 -0.587532,-0.446268 -1.444753,-0.67181 -2.558015,-0.67181 -0.221529,0 -0.431018,0.008 -0.621244,0.02007 0.0096,0.04896 0.01685,0.09953 0.02809,0.150094 0.184607,1.010524 0.415768,2.269065 1.091591,2.952915 z m -4.359141,4.581473 c -0.865247,0.40132 -1.59886,0.584323 -2.377422,0.584323 a 5.852856,5.852856 0 0 1 -0.701508,-0.04495 c 0.613218,0.708731 1.752165,1.183092 2.962547,1.183092 a 4.0469144,4.0469144 0 0 0 1.130118,-0.155712 c 1.3982,-0.410952 1.982523,-1.838047 2.226525,-2.873454 -0.610007,0.47115 -1.284225,0.664587 -1.937574,0.85401 a 8.6428351,8.6428351 0 0 0 -1.302686,0.452689 z" />
  </g>
</svg>
