<?xml version="1.0" encoding="UTF-8" standalone="no"?>
<!-- Created with Inkscape (http://www.inkscape.org/) -->

<svg
   xmlns:dc="http://purl.org/dc/elements/1.1/"
   xmlns:cc="http://creativecommons.org/ns#"
   xmlns:rdf="http://www.w3.org/1999/02/22-rdf-syntax-ns#"
   xmlns:svg="http://www.w3.org/2000/svg"
   xmlns="http://www.w3.org/2000/svg"
   xmlns:sodipodi="http://sodipodi.sourceforge.net/DTD/sodipodi-0.dtd"
   xmlns:inkscape="http://www.inkscape.org/namespaces/inkscape"
   width="38.247913mm"
   height="38.247864mm"
   viewBox="0 0 38.247913 38.247864"
   version="1.1"
   id="svg3993"
   inkscape:version="0.92.3 (2405546, 2018-03-11)"
   sodipodi:docname="shaking_hands_as_transit.svg"
   inkscape:export-filename="/home/michaelb/projects/pta/static/images/logos/shaking_hands_as_transit.svg.png"
   inkscape:export-xdpi="87.690002"
   inkscape:export-ydpi="87.690002">
  <defs
     id="defs3987" />
  <sodipodi:namedview
     id="base"
     pagecolor="#ffffff"
     bordercolor="#666666"
     borderopacity="1.0"
     inkscape:pageopacity="0.0"
     inkscape:pageshadow="2"
     inkscape:zoom="1.979899"
     inkscape:cx="73.807871"
     inkscape:cy="115.16755"
     inkscape:document-units="mm"
     inkscape:current-layer="layer1"
     showgrid="false"
     fit-margin-top="1"
     fit-margin-left="1"
     fit-margin-right="1"
     fit-margin-bottom="1"
     inkscape:window-width="1920"
     inkscape:window-height="1008"
     inkscape:window-x="0"
     inkscape:window-y="32"
     inkscape:window-maximized="1" />
  <metadata
     id="metadata3990">
    <rdf:RDF>
      <cc:Work
         rdf:about="">
        <dc:format>image/svg+xml</dc:format>
        <dc:type
           rdf:resource="http://purl.org/dc/dcmitype/StillImage" />
        <dc:title></dc:title>
      </cc:Work>
    </rdf:RDF>
  </metadata>
  <g
     inkscape:label="Layer 1"
     inkscape:groupmode="layer"
     id="layer1"
     transform="translate(-74.614137,-119.12607)">
    <path
       inkscape:connector-curvature="0"
       style="clip-rule:evenodd;fill:#fff9f9;fill-rule:evenodd;stroke-width:0.26458332"
       d="m 102.8686,139.8806 c 0.13256,-0.15452 0.32623,-0.24368 0.52996,-0.24368 h 7.6708 v 0.69823 h -7.6708 l -1.9984,2.33098 -0.53022,-0.45429 z"
       id="path38" />
    <path
       inkscape:connector-curvature="0"
       style="clip-rule:evenodd;fill:#492b7f;fill-rule:evenodd;stroke-width:0.26458332"
       d="m 101.3536,143.3948 -6.243641,-6.32672 0.497152,-0.49054 6.243369,6.32672 c 0.25797,0.26141 0.4027,0.61383 0.4027,0.98107 v 0.35719 c 0,0.77126 -0.62521,1.39647 -1.39674,1.39647 h -0.50535 v 0.24236 c 0,0.77126 -0.625475,1.39647 -1.396735,1.39647 H 98.62098 v 0.0603 c 0,0.77126 -0.625211,1.39647 -1.396471,1.39647 h -0.697442 v 0.24236 c 0,0.77126 -0.62521,1.39647 -1.396471,1.39647 H 94.89009 c -0.378619,0 -0.741098,-0.15372 -1.004094,-0.42598 l -1.275291,-1.31947 0.502179,-0.48525 1.275027,1.31948 c 0.131762,0.13599 0.313002,0.21299 0.502179,0.21299 h 0.240506 c 0.385498,0 0.698236,-0.31274 0.698236,-0.69824 v -0.45111 l -2.357702,-2.45428 0.503502,-0.48366 2.352146,2.44846 h 0.897731 c 0.385762,0 0.698235,-0.31274 0.698235,-0.69824 v -0.26696 l -2.624666,-2.68447 0.499268,-0.48815 2.621492,2.68102 h 0.535517 c 0.385762,0 0.698235,-0.31274 0.698235,-0.69823 v -0.44689 l -2.595827,-2.59582 0.493713,-0.49372 2.596094,2.59583 h 0.70987 c 0.38577,0 0.6985,-0.31247 0.6985,-0.69823 v -0.35719 c 0,-0.18362 -0.0725,-0.35983 -0.20134,-0.49054 z"
       id="path40" />
    <path
       inkscape:connector-curvature="0"
       style="clip-rule:evenodd;fill:#fff9f9;fill-rule:evenodd;stroke-width:0.26458332"
       d="m 96.663328,132.15646 c 0.251354,-0.21063 0.568854,-0.32605 0.896937,-0.32605 h 12.848695 v 0.69827 H 97.560265 c -0.164042,0 -0.322792,0.0577 -0.448469,0.16303 l -6.0706,5.08625 c -0.158485,0.13255 -0.250031,0.32861 -0.250031,0.53525 v 2.3786 c 0,0.38577 0.312738,0.69824 0.698236,0.69824 h 0.254793 c 0.33999,0 0.630767,-0.24501 0.688182,-0.58023 l 0.329141,-1.92088 c 0.05821,-0.33919 0.239713,-0.64532 0.509588,-0.85884 l 1.870604,-1.48113 0.433652,0.54768 -1.870604,1.48088 c -0.135202,0.10689 -0.225954,0.25982 -0.255059,0.42942 l -0.329141,1.92087 c -0.114829,0.67046 -0.696119,1.16046 -1.376363,1.16046 h -0.254793 c -0.771261,0 -1.396471,-0.62521 -1.396471,-1.39647 v -2.3786 c 0,-0.41328 0.183091,-0.80513 0.499798,-1.07051 z"
       id="path42" />
    <path
       inkscape:connector-curvature="0"
       style="clip-rule:evenodd;fill:#492b7f;fill-rule:evenodd;stroke-width:0.26458332"
       d="m 77.267836,131.83041 h 12.885683 c 0.27305,0 0.535252,0.10658 0.730779,0.29708 l 2.936082,2.85964 -0.487363,0.50006 -2.935816,-2.85948 c -0.06509,-0.0635 -0.152665,-0.099 -0.243682,-0.099 H 77.267836 Z"
       id="path44" />
    <path
       inkscape:connector-curvature="0"
       style="clip-rule:evenodd;fill:#492b7f;fill-rule:evenodd;stroke-width:0.26458332"
       d="m 83.417229,139.8843 c -0.132821,-0.15689 -0.327819,-0.24738 -0.533136,-0.24738 h -6.664087 v 0.69823 h 6.664087 l 2.207684,2.60985 0.533135,-0.45111 z"
       id="path46" />
    <path
       inkscape:connector-curvature="0"
       style="clip-rule:evenodd;fill:#fff9f9;fill-rule:evenodd;stroke-width:0.26458332"
       d="m 86.028666,141.45302 c 0.261673,-0.26194 0.617008,-0.40905 0.987425,-0.40905 h 0.248708 c 0.771261,0 1.396471,0.62521 1.396471,1.39647 v 0.13653 h 0.431536 c 0.77126,0 1.39647,0.62521 1.39647,1.39647 v 0.16589 h 0.326231 c 0.775494,0 1.396471,0.63977 1.396471,1.40653 0,0.18283 -0.03598,0.36354 -0.104246,0.53128 0.754062,0.0198 1.359164,0.63738 1.359164,1.39594 v 0.2032 c 0,0.3437 -0.126735,0.67522 -0.356129,0.93134 l -1.163902,1.30069 c -0.264848,0.2958 -0.643467,0.46514 -1.040606,0.46514 h -0.296333 c -0.77126,0 -1.39647,-0.62521 -1.39647,-1.39647 v -0.24236 h -0.307711 c -0.771525,0 -1.396735,-0.62521 -1.396735,-1.39647 v -0.0603 h -0.370417 c -0.77126,0 -1.396471,-0.62521 -1.396471,-1.39647 v -0.24236 h -0.297391 c -0.771525,0 -1.396736,-0.62521 -1.396736,-1.39647 v -0.23045 c 0,-0.37042 0.147109,-0.72575 0.409046,-0.98769 z m 0.411692,3.9751 v 0.45323 c 0,0.3855 0.312737,0.69824 0.698235,0.69824 h 0.568061 l 2.084387,-2.22885 v -0.3773 c 0,-0.3855 -0.312737,-0.69824 -0.698235,-0.69824 h -0.629709 z m 1.522677,-2.64028 v -0.3474 c 0,-0.38549 -0.312738,-0.69823 -0.698236,-0.69823 h -0.248708 c -0.185208,0 -0.362744,0.0736 -0.493712,0.20452 l -1.571625,1.57136 c -0.130969,0.13097 -0.204523,0.30877 -0.204523,0.49398 v 0.23045 c 0,0.38576 0.312737,0.69824 0.6985,0.69824 h 0.495564 z m 2.328597,2.04999 -2.084387,2.22885 v 0.27147 c 0,0.38549 0.312738,0.69823 0.6985,0.69823 h 0.507207 l 1.908174,-2.00501 c 0.122766,-0.12885 0.192616,-0.3048 0.192616,-0.48551 0,-0.38973 -0.316971,-0.70803 -0.698235,-0.70803 z m -0.379942,3.68724 v 0.45191 c 0,0.38549 0.312473,0.69823 0.698236,0.69823 h 0.296333 c 0.198702,0 0.387879,-0.0847 0.520171,-0.23257 l 1.164166,-1.30069 c 0.114565,-0.12806 0.1778,-0.29395 0.1778,-0.46567 v -0.2032 c 0,-0.38549 -0.312473,-0.69823 -0.698235,-0.69823 h -0.492654 z"
       id="path48" />
    <path
       inkscape:connector-curvature="0"
       style="fill:#e8262d;stroke-width:0.26458332"
       d="m 103.93064,140.04993 c 0,0.28919 -0.23442,0.52361 -0.52361,0.52361 -0.28919,0 -0.52388,-0.23442 -0.52388,-0.52361 0,-0.28919 0.23469,-0.52387 0.52388,-0.52387 0.28919,0 0.52361,0.23468 0.52361,0.52387 z"
       id="path50" />
    <path
       inkscape:connector-curvature="0"
       style="clip-rule:evenodd;fill:#fff9f9;fill-rule:evenodd;stroke-width:0.26458332"
       d="m 104.27989,140.04993 c 0,0.48207 -0.39079,0.87286 -0.87286,0.87286 -0.48207,0 -0.87286,-0.39079 -0.87286,-0.87286 0,-0.48207 0.39079,-0.87286 0.87286,-0.87286 0.48207,0 0.87286,0.39079 0.87286,0.87286 z m -0.87286,0.52361 c 0.28919,0 0.52361,-0.23442 0.52361,-0.52361 0,-0.28945 -0.23442,-0.52387 -0.52361,-0.52387 -0.28919,0 -0.52388,0.23442 -0.52388,0.52387 0,0.28919 0.23469,0.52361 0.52388,0.52361 z"
       id="path52" />
    <path
       inkscape:connector-curvature="0"
       style="fill:#e8262d;stroke-width:0.26458332"
       d="m 108.78998,140.04993 c 0,0.28919 -0.23442,0.52361 -0.52361,0.52361 -0.28919,0 -0.52388,-0.23442 -0.52388,-0.52361 0,-0.28919 0.23469,-0.52387 0.52388,-0.52387 0.28919,0 0.52361,0.23468 0.52361,0.52387 z"
       id="path54" />
    <path
       inkscape:connector-curvature="0"
       style="clip-rule:evenodd;fill:#fff9f9;fill-rule:evenodd;stroke-width:0.26458332"
       d="m 109.13923,140.04993 c 0,0.48207 -0.39079,0.87286 -0.87286,0.87286 -0.48208,0 -0.87286,-0.39079 -0.87286,-0.87286 0,-0.48207 0.39078,-0.87286 0.87286,-0.87286 0.48207,0 0.87286,0.39079 0.87286,0.87286 z m -0.87286,0.52361 c 0.28919,0 0.52361,-0.23442 0.52361,-0.52361 0,-0.28945 -0.23442,-0.52387 -0.52361,-0.52387 -0.28919,0 -0.52388,0.23442 -0.52388,0.52387 0,0.28919 0.23469,0.52361 0.52388,0.52361 z"
       id="path56" />
    <path
       inkscape:connector-curvature="0"
       style="fill:#e8262d;stroke-width:0.26458332"
       d="m 107.77847,132.24327 c 0,0.28922 -0.23442,0.52369 -0.52361,0.52369 -0.28945,0 -0.52387,-0.23447 -0.52387,-0.52369 0,-0.28924 0.23442,-0.52372 0.52387,-0.52372 0.28919,0 0.52361,0.23448 0.52361,0.52372 z"
       id="path58" />
    <path
       inkscape:connector-curvature="0"
       style="clip-rule:evenodd;fill:#fff9f9;fill-rule:evenodd;stroke-width:0.26458332"
       d="m 108.12746,132.24319 c 0,0.48207 -0.39079,0.87286 -0.8726,0.87286 -0.48207,0 -0.87286,-0.39079 -0.87286,-0.87286 0,-0.48204 0.39079,-0.87283 0.87286,-0.87283 0.48181,0 0.8726,0.39079 0.8726,0.87283 z m -0.8726,0.52372 c 0.28919,0 0.52361,-0.23448 0.52361,-0.52372 0,-0.28921 -0.23442,-0.52369 -0.52361,-0.52369 -0.28945,0 -0.52387,0.23448 -0.52387,0.52369 0,0.28924 0.23442,0.52372 0.52387,0.52372 z"
       id="path60" />
    <path
       inkscape:connector-curvature="0"
       style="fill:#e8262d;stroke-width:0.26458332"
       d="m 92.143186,141.73692 c 0,0.28919 -0.234421,0.52361 -0.52361,0.52361 -0.28919,0 -0.523611,-0.23442 -0.523611,-0.52361 0,-0.28919 0.234421,-0.52388 0.523611,-0.52388 0.289189,0 0.52361,0.23469 0.52361,0.52388 z"
       id="path62" />
    <path
       inkscape:connector-curvature="0"
       style="clip-rule:evenodd;fill:#fff9f9;fill-rule:evenodd;stroke-width:0.26458332"
       d="m 92.492436,141.73692 c 0,0.48207 -0.39079,0.87286 -0.87286,0.87286 -0.482071,0 -0.872861,-0.39079 -0.872861,-0.87286 0,-0.48207 0.39079,-0.87286 0.872861,-0.87286 0.48207,0 0.87286,0.39079 0.87286,0.87286 z m -0.87286,0.52361 c 0.289189,0 0.52361,-0.23442 0.52361,-0.52361 0,-0.28919 -0.234421,-0.52361 -0.52361,-0.52361 -0.28919,0 -0.523611,0.23442 -0.523611,0.52361 0,0.28919 0.234421,0.52361 0.523611,0.52361 z"
       id="path64" />
    <path
       inkscape:connector-curvature="0"
       style="fill:#e8262d;stroke-width:0.26458332"
       d="m 94.519409,145.97369 c 0,0.28945 -0.234686,0.52388 -0.523875,0.52388 -0.28919,0 -0.523611,-0.23443 -0.523611,-0.52388 0,-0.28919 0.234421,-0.52361 0.523611,-0.52361 0.289189,0 0.523875,0.23442 0.523875,0.52361 z"
       id="path66" />
    <path
       inkscape:connector-curvature="0"
       style="clip-rule:evenodd;fill:#492b7f;fill-rule:evenodd;stroke-width:0.26458332"
       d="m 94.868394,145.97395 c 0,0.48208 -0.390789,0.87287 -0.87286,0.87287 -0.482071,0 -0.872861,-0.39079 -0.872861,-0.87287 0,-0.48207 0.39079,-0.87286 0.872861,-0.87286 0.482071,0 0.87286,0.39079 0.87286,0.87286 z m -0.87286,0.52362 c 0.289189,0 0.523875,-0.23443 0.523875,-0.52362 0,-0.28918 -0.234686,-0.52387 -0.523875,-0.52387 -0.28919,0 -0.523611,0.23469 -0.523611,0.52387 0,0.28919 0.234421,0.52362 0.523611,0.52362 z"
       id="path68" />
    <path
       inkscape:connector-curvature="0"
       style="fill:#e8262d;stroke-width:0.26458332"
       d="m 96.351913,144.31793 c 0,0.28919 -0.234685,0.52387 -0.523875,0.52387 -0.28919,0 -0.52361,-0.23468 -0.52361,-0.52387 0,-0.28919 0.23442,-0.52361 0.52361,-0.52361 0.28919,0 0.523875,0.23442 0.523875,0.52361 z"
       id="path70" />
    <path
       inkscape:connector-curvature="0"
       style="clip-rule:evenodd;fill:#492b7f;fill-rule:evenodd;stroke-width:0.26458332"
       d="m 96.700898,144.31793 c 0,0.48207 -0.390789,0.87286 -0.87286,0.87286 -0.482071,0 -0.87286,-0.39079 -0.87286,-0.87286 0,-0.48207 0.390789,-0.87286 0.87286,-0.87286 0.482071,0 0.87286,0.39079 0.87286,0.87286 z m -0.87286,0.52361 c 0.28919,0 0.52361,-0.23442 0.52361,-0.52361 0,-0.28919 -0.23442,-0.52361 -0.52361,-0.52361 -0.28919,0 -0.52361,0.23442 -0.52361,0.52361 0,0.28919 0.23442,0.52361 0.52361,0.52361 z"
       id="path72" />
    <path
       inkscape:connector-curvature="0"
       style="fill:#e8262d;stroke-width:0.26458332"
       d="m 96.031238,137.0231 c 0,0.28919 -0.234421,0.52361 -0.52361,0.52361 -0.28919,0 -0.523875,-0.23442 -0.523875,-0.52361 0,-0.28919 0.234685,-0.52361 0.523875,-0.52361 0.289189,0 0.52361,0.23442 0.52361,0.52361 z"
       id="path74" />
    <path
       inkscape:connector-curvature="0"
       style="clip-rule:evenodd;fill:#492b7f;fill-rule:evenodd;stroke-width:0.26458332"
       d="m 96.380488,137.0231 c 0,0.48207 -0.39079,0.87286 -0.87286,0.87286 -0.482071,0 -0.872861,-0.39079 -0.872861,-0.87286 0,-0.48207 0.39079,-0.87286 0.872861,-0.87286 0.48207,0 0.87286,0.39079 0.87286,0.87286 z m -0.87286,0.52361 c 0.289454,0 0.523875,-0.23442 0.523875,-0.52361 0,-0.28945 -0.234421,-0.52387 -0.523875,-0.52387 -0.28919,0 -0.523611,0.23442 -0.523611,0.52387 0,0.28919 0.234421,0.52361 0.523611,0.52361 z"
       id="path76" />
    <path
       inkscape:connector-curvature="0"
       style="fill:#e8262d;stroke-width:0.26458332"
       d="m 83.534968,140.04993 c 0,0.28919 -0.234421,0.52361 -0.52361,0.52361 -0.28919,0 -0.523875,-0.23442 -0.523875,-0.52361 0,-0.28919 0.234685,-0.52387 0.523875,-0.52387 0.289189,0 0.52361,0.23468 0.52361,0.52387 z"
       id="path78" />
    <path
       inkscape:connector-curvature="0"
       style="clip-rule:evenodd;fill:#492b7f;fill-rule:evenodd;stroke-width:0.26458332"
       d="m 83.884218,140.04993 c 0,0.48207 -0.390789,0.87286 -0.87286,0.87286 -0.482071,0 -0.872861,-0.39079 -0.872861,-0.87286 0,-0.48207 0.39079,-0.87286 0.872861,-0.87286 0.482071,0 0.87286,0.39079 0.87286,0.87286 z m -0.87286,0.52361 c 0.289189,0 0.52361,-0.23442 0.52361,-0.52361 0,-0.28945 -0.234421,-0.52387 -0.52361,-0.52387 -0.28919,0 -0.523611,0.23442 -0.523611,0.52387 0,0.28919 0.234421,0.52361 0.523611,0.52361 z"
       id="path80" />
    <path
       inkscape:connector-curvature="0"
       style="fill:#e8262d;stroke-width:0.26458332"
       d="m 78.905977,140.04993 c 0,0.28919 -0.234474,0.52361 -0.52369,0.52361 -0.289242,0 -0.523716,-0.23442 -0.523716,-0.52361 0,-0.28919 0.234474,-0.52387 0.523716,-0.52387 0.289216,0 0.52369,0.23468 0.52369,0.52387 z"
       id="path82" />
    <path
       inkscape:connector-curvature="0"
       style="clip-rule:evenodd;fill:#492b7f;fill-rule:evenodd;stroke-width:0.26458332"
       d="m 79.255121,140.04993 c 0,0.48207 -0.390789,0.87286 -0.872834,0.87286 -0.482071,0 -0.87286,-0.39079 -0.87286,-0.87286 0,-0.48207 0.390789,-0.87286 0.87286,-0.87286 0.482045,0 0.872834,0.39079 0.872834,0.87286 z m -0.872834,0.52361 c 0.289216,0 0.52369,-0.23442 0.52369,-0.52361 0,-0.28945 -0.234474,-0.52387 -0.52369,-0.52387 -0.289242,0 -0.523716,0.23442 -0.523716,0.52387 0,0.28919 0.234474,0.52361 0.523716,0.52361 z"
       id="path84" />
    <path
       inkscape:connector-curvature="0"
       style="fill:#e8262d;stroke-width:0.26458332"
       d="m 83.214558,132.24327 c 0,0.28922 -0.234421,0.52369 -0.523611,0.52369 -0.289189,0 -0.52361,-0.23447 -0.52361,-0.52369 0,-0.28924 0.234421,-0.52372 0.52361,-0.52372 0.28919,0 0.523611,0.23448 0.523611,0.52372 z"
       id="path86" />
    <path
       inkscape:connector-curvature="0"
       style="clip-rule:evenodd;fill:#492b7f;fill-rule:evenodd;stroke-width:0.26458332"
       d="m 83.563808,132.24319 c 0,0.48207 -0.39079,0.87286 -0.872861,0.87286 -0.48207,0 -0.87286,-0.39079 -0.87286,-0.87286 0,-0.48204 0.39079,-0.87283 0.87286,-0.87283 0.482071,0 0.872861,0.39079 0.872861,0.87283 z m -0.872861,0.52372 c 0.289455,0 0.523875,-0.23448 0.523875,-0.52372 0,-0.28921 -0.23442,-0.52369 -0.523875,-0.52369 -0.289189,0 -0.52361,0.23448 -0.52361,0.52369 0,0.28924 0.234421,0.52372 0.52361,0.52372 z"
       id="path88" />
    <path
       inkscape:connector-curvature="0"
       style="fill:#e8262d;stroke-width:0.26458332"
       d="m 91.06448,132.36032 c 0,0.28922 -0.234421,0.52369 -0.523611,0.52369 -0.289454,0 -0.523875,-0.23447 -0.523875,-0.52369 0,-0.28924 0.234421,-0.52371 0.523875,-0.52371 0.28919,0 0.523611,0.23447 0.523611,0.52371 z"
       id="path90" />
    <path
       inkscape:connector-curvature="0"
       style="clip-rule:evenodd;fill:#492b7f;fill-rule:evenodd;stroke-width:0.26458332"
       d="m 91.41373,132.36038 c 0,0.48207 -0.39079,0.87283 -0.872861,0.87283 -0.482071,0 -0.872859,-0.39076 -0.872859,-0.87283 0,-0.48208 0.390788,-0.87284 0.872859,-0.87284 0.482071,0 0.872861,0.39076 0.872861,0.87284 z m -0.872861,0.52371 c 0.28919,0 0.523611,-0.23447 0.523611,-0.52371 0,-0.28925 -0.234421,-0.52372 -0.523611,-0.52372 -0.289454,0 -0.523875,0.23447 -0.523875,0.52372 0,0.28924 0.234421,0.52371 0.523875,0.52371 z"
       id="path92" />
    <path
       inkscape:connector-curvature="0"
       style="fill:#e8262d;stroke-width:0.26458332"
       d="m 98.133617,142.82303 c 0,0.28919 -0.234421,0.52388 -0.52361,0.52388 -0.289454,0 -0.523875,-0.23469 -0.523875,-0.52388 0,-0.28919 0.234421,-0.52361 0.523875,-0.52361 0.289189,0 0.52361,0.23442 0.52361,0.52361 z"
       id="path94" />
    <path
       inkscape:connector-curvature="0"
       style="clip-rule:evenodd;fill:#492b7f;fill-rule:evenodd;stroke-width:0.26458332"
       d="m 98.482867,142.82303 c 0,0.48207 -0.390789,0.87286 -0.87286,0.87286 -0.482071,0 -0.872861,-0.39079 -0.872861,-0.87286 0,-0.48207 0.39079,-0.87286 0.872861,-0.87286 0.482071,0 0.87286,0.39079 0.87286,0.87286 z m -0.87286,0.52361 c 0.289189,0 0.52361,-0.23442 0.52361,-0.52361 0,-0.28919 -0.234421,-0.52361 -0.52361,-0.52361 -0.289454,0 -0.523875,0.23442 -0.523875,0.52361 0,0.28919 0.234421,0.52361 0.523875,0.52361 z"
       id="path96" />
    <path
       inkscape:connector-curvature="0"
       style="fill:#e8262d;stroke-width:0.26458332"
       d="m 98.270142,132.24327 c 0,0.28922 -0.234421,0.52369 -0.52361,0.52369 -0.28919,0 -0.523875,-0.23447 -0.523875,-0.52369 0,-0.28924 0.234685,-0.52372 0.523875,-0.52372 0.289189,0 0.52361,0.23448 0.52361,0.52372 z"
       id="path98" />
    <path
       inkscape:connector-curvature="0"
       style="clip-rule:evenodd;fill:#fff9f9;fill-rule:evenodd;stroke-width:0.26458332"
       d="m 98.619128,132.24319 c 0,0.48207 -0.39079,0.87286 -0.872596,0.87286 -0.482071,0 -0.872861,-0.39079 -0.872861,-0.87286 0,-0.48204 0.39079,-0.87283 0.872861,-0.87283 0.481806,0 0.872596,0.39079 0.872596,0.87283 z m -0.872596,0.52372 c 0.289189,0 0.52361,-0.23448 0.52361,-0.52372 0,-0.28921 -0.234421,-0.52369 -0.52361,-0.52369 -0.289454,0 -0.523875,0.23448 -0.523875,0.52369 0,0.28924 0.234421,0.52372 0.523875,0.52372 z"
       id="path100" />
    <path
       inkscape:connector-curvature="0"
       style="fill:#e8262d;stroke-width:0.26458332"
       d="m 94.034428,135.30093 c 0,0.28919 -0.234421,0.52361 -0.523875,0.52361 -0.28919,0 -0.523611,-0.23442 -0.523611,-0.52361 0,-0.28946 0.234421,-0.52388 0.523611,-0.52388 0.289454,0 0.523875,0.23442 0.523875,0.52388 z"
       id="path102" />
    <path
       inkscape:connector-curvature="0"
       style="clip-rule:evenodd;fill:#fff9f9;fill-rule:evenodd;stroke-width:0.26458332"
       d="m 94.383678,135.30066 c 0,0.48207 -0.39079,0.87286 -0.872861,0.87286 -0.482071,0 -0.87286,-0.39079 -0.87286,-0.87286 0,-0.48207 0.390789,-0.87275 0.87286,-0.87275 0.482071,0 0.872861,0.39068 0.872861,0.87275 z m -0.872861,0.52388 c 0.28919,0 0.523875,-0.23442 0.523875,-0.52388 0,-0.28919 -0.234685,-0.52361 -0.523875,-0.52361 -0.289189,0 -0.52361,0.23442 -0.52361,0.52361 0,0.28946 0.234421,0.52388 0.52361,0.52388 z"
       id="path104" />
    <path
       inkscape:connector-curvature="0"
       style="fill:#e8262d;stroke-width:0.26458332"
       d="m 85.300268,144.95875 c 0,0.28919 -0.234685,0.52361 -0.523875,0.52361 -0.289189,0 -0.52361,-0.23442 -0.52361,-0.52361 0,-0.28946 0.234421,-0.52388 0.52361,-0.52388 0.28919,0 0.523875,0.23442 0.523875,0.52388 z"
       id="path106" />
    <path
       inkscape:connector-curvature="0"
       style="clip-rule:evenodd;fill:#fff9f9;fill-rule:evenodd;stroke-width:0.26458332"
       d="m 85.649254,144.95875 c 0,0.48207 -0.39079,0.87286 -0.872861,0.87286 -0.482071,0 -0.87286,-0.39079 -0.87286,-0.87286 0,-0.48207 0.390789,-0.87286 0.87286,-0.87286 0.482071,0 0.872861,0.39079 0.872861,0.87286 z m -0.872861,0.52361 c 0.28919,0 0.523875,-0.23442 0.523875,-0.52361 0,-0.28919 -0.234685,-0.52388 -0.523875,-0.52388 -0.289189,0 -0.52361,0.23469 -0.52361,0.52388 0,0.28919 0.234421,0.52361 0.52361,0.52361 z"
       id="path108" />
    <path
       inkscape:connector-curvature="0"
       style="fill:#e8262d;stroke-width:0.26458332"
       d="m 86.889091,146.69415 c 0,0.28919 -0.234421,0.52361 -0.52361,0.52361 -0.28919,0 -0.523611,-0.23442 -0.523611,-0.52361 0,-0.28945 0.234421,-0.52387 0.523611,-0.52387 0.289189,0 0.52361,0.23442 0.52361,0.52387 z"
       id="path110" />
    <path
       inkscape:connector-curvature="0"
       style="clip-rule:evenodd;fill:#fff9f9;fill-rule:evenodd;stroke-width:0.26458332"
       d="m 87.238341,146.69415 c 0,0.48207 -0.390789,0.87286 -0.87286,0.87286 -0.482071,0 -0.872861,-0.39079 -0.872861,-0.87286 0,-0.48207 0.39079,-0.87286 0.872861,-0.87286 0.482071,0 0.87286,0.39079 0.87286,0.87286 z m -0.87286,0.52361 c 0.289189,0 0.52361,-0.23442 0.52361,-0.52361 0,-0.28919 -0.234421,-0.52361 -0.52361,-0.52361 -0.28919,0 -0.523875,0.23442 -0.523875,0.52361 0,0.28919 0.234685,0.52361 0.523875,0.52361 z"
       id="path112" />
    <path
       inkscape:connector-curvature="0"
       style="fill:#e8262d;stroke-width:0.26458332"
       d="m 88.69011,148.22873 c 0,0.28946 -0.234421,0.52388 -0.523611,0.52388 -0.289189,0 -0.52361,-0.23442 -0.52361,-0.52388 0,-0.28919 0.234421,-0.52361 0.52361,-0.52361 0.28919,0 0.523611,0.23442 0.523611,0.52361 z"
       id="path114" />
    <path
       inkscape:connector-curvature="0"
       style="clip-rule:evenodd;fill:#fff9f9;fill-rule:evenodd;stroke-width:0.26458332"
       d="m 89.03936,148.22873 c 0,0.48208 -0.39079,0.87286 -0.872861,0.87286 -0.48207,0 -0.87286,-0.39078 -0.87286,-0.87286 0,-0.48207 0.39079,-0.87286 0.87286,-0.87286 0.482071,0 0.872861,0.39079 0.872861,0.87286 z m -0.872861,0.52388 c 0.28919,0 0.523611,-0.23469 0.523611,-0.52388 0,-0.28919 -0.234421,-0.52361 -0.523611,-0.52361 -0.289189,0 -0.52361,0.23442 -0.52361,0.52361 0,0.28919 0.234421,0.52388 0.52361,0.52388 z"
       id="path116" />
    <path
       inkscape:connector-curvature="0"
       style="fill:#e8262d;stroke-width:0.26458332"
       d="m 90.511501,149.72337 c 0,0.28919 -0.234421,0.52361 -0.523611,0.52361 -0.289188,0 -0.523609,-0.23442 -0.523609,-0.52361 0,-0.28919 0.234421,-0.52361 0.523609,-0.52361 0.28919,0 0.523611,0.23442 0.523611,0.52361 z"
       id="path118" />
    <path
       inkscape:connector-curvature="0"
       style="clip-rule:evenodd;fill:#fff9f9;fill-rule:evenodd;stroke-width:0.26458332"
       d="m 90.860751,149.72337 c 0,0.48207 -0.39079,0.87286 -0.872861,0.87286 -0.48207,0 -0.872859,-0.39079 -0.872859,-0.87286 0,-0.48208 0.390789,-0.87286 0.872859,-0.87286 0.482071,0 0.872861,0.39078 0.872861,0.87286 z m -0.872861,0.52361 c 0.28919,0 0.523875,-0.23442 0.523875,-0.52361 0,-0.28946 -0.234685,-0.52388 -0.523875,-0.52388 -0.289188,0 -0.523609,0.23442 -0.523609,0.52388 0,0.28919 0.234421,0.52361 0.523609,0.52361 z"
       id="path120" />
    <path
       inkscape:connector-curvature="0"
       style="fill:#492b7f;stroke:#492b7f;stroke-width:0.26458332"
       d="m 76.566187,138.24997 c 0,-9.48372 7.688183,-17.17185 17.171907,-17.17185 9.483726,0 17.171986,7.68813 17.171986,17.17185 0,9.48373 -7.68826,17.17199 -17.171986,17.17199 -9.483724,0 -17.171907,-7.68826 -17.171907,-17.17199 z m 17.171907,-17.99161 c -9.936426,0 -17.991665,8.05516 -17.991665,17.99161 0,9.9367 8.055239,17.99167 17.991665,17.99167 9.936426,0 17.991666,-8.05497 17.991666,-17.99167 0,-9.93645 -8.05524,-17.99161 -17.991666,-17.99161 z"
       id="path122" />
  </g>
</svg>
